G04 #@! TF.FileFunction,Copper,L1,Top,Signal*
%FSLAX46Y46*%
G04 Gerber Fmt 4.6, Leading zero omitted, Abs format (unit mm)*
G04 Created by KiCad (PCBNEW 4.0.6) date 06/23/17 11:36:22*
%MOMM*%
%LPD*%
G01*
G04 APERTURE LIST*
%ADD10C,0.100000*%
%ADD11C,1.778000*%
%ADD12R,1.070000X1.800000*%
%ADD13O,1.070000X1.800000*%
%ADD14R,1.800000X1.800000*%
%ADD15O,1.800000X1.800000*%
%ADD16C,2.362200*%
%ADD17C,3.860800*%
%ADD18C,1.016000*%
%ADD19R,2.400000X1.600000*%
%ADD20O,2.400000X1.600000*%
%ADD21C,4.114800*%
%ADD22C,4.622800*%
%ADD23C,3.683000*%
%ADD24C,0.600000*%
%ADD25C,0.254000*%
%ADD26C,0.508000*%
G04 APERTURE END LIST*
D10*
D11*
X94615000Y-63500000D03*
X92075000Y-63500000D03*
D12*
X98679000Y-65405000D03*
D13*
X100330000Y-65405000D03*
X101981000Y-65405000D03*
X103632000Y-65405000D03*
D11*
X91440000Y-67310000D03*
X93980000Y-67310000D03*
D14*
X198120000Y-64135000D03*
D15*
X198120000Y-66675000D03*
X198120000Y-69215000D03*
D14*
X198120000Y-87630000D03*
D15*
X198120000Y-90170000D03*
X198120000Y-92710000D03*
D14*
X198120000Y-111125000D03*
D15*
X198120000Y-113665000D03*
X198120000Y-116205000D03*
D11*
X125730000Y-69659500D03*
X125730000Y-66230500D03*
X121285000Y-66230500D03*
X121285000Y-69659500D03*
X116840000Y-69659500D03*
X116840000Y-66230500D03*
X112395000Y-66230500D03*
X112395000Y-69659500D03*
X121285000Y-73850500D03*
X121285000Y-77279500D03*
X116840000Y-77279500D03*
X116840000Y-73850500D03*
X112395000Y-73850500D03*
X112395000Y-77279500D03*
X125730000Y-89979500D03*
X125730000Y-86550500D03*
X121285000Y-86550500D03*
X121285000Y-89979500D03*
X116840000Y-89979500D03*
X116840000Y-86550500D03*
X112395000Y-86550500D03*
X112395000Y-89979500D03*
X125730000Y-97599500D03*
X125730000Y-94170500D03*
X121285000Y-94170500D03*
X121285000Y-97599500D03*
X116840000Y-97599500D03*
X116840000Y-94170500D03*
X112395000Y-94170500D03*
X112395000Y-97599500D03*
X125730000Y-110299500D03*
X125730000Y-106870500D03*
X121285000Y-106870500D03*
X121285000Y-110299500D03*
X116840000Y-110299500D03*
X116840000Y-106870500D03*
X112395000Y-106870500D03*
X112395000Y-110299500D03*
X125730000Y-117919500D03*
X125730000Y-114490500D03*
X121285000Y-114490500D03*
X121285000Y-117919500D03*
X116840000Y-117919500D03*
X116840000Y-114490500D03*
X112395000Y-114490500D03*
X112395000Y-117919500D03*
X137985500Y-65405000D03*
X141414500Y-65405000D03*
X137350500Y-85725000D03*
X140779500Y-85725000D03*
X137985500Y-106045000D03*
X141414500Y-106045000D03*
X130365500Y-65405000D03*
X133794500Y-65405000D03*
X129730500Y-85725000D03*
X133159500Y-85725000D03*
X130365500Y-106045000D03*
X133794500Y-106045000D03*
X193040000Y-67754500D03*
X193040000Y-64325500D03*
X193040000Y-91249500D03*
X193040000Y-87820500D03*
X193040000Y-114744500D03*
X193040000Y-111315500D03*
X109220000Y-54800500D03*
X109220000Y-58229500D03*
X104775000Y-58229500D03*
X104775000Y-54800500D03*
X100330000Y-54800500D03*
X100330000Y-58229500D03*
X94615000Y-72580500D03*
X94615000Y-76009500D03*
X94615000Y-82994500D03*
X94615000Y-79565500D03*
X95885000Y-58229500D03*
X95885000Y-54800500D03*
X91440000Y-54800500D03*
X91440000Y-58229500D03*
D16*
X100965000Y-102235000D03*
X97205800Y-102235000D03*
X104724200Y-102235000D03*
D17*
X95453200Y-92227400D03*
X106476800Y-92227400D03*
D18*
X180975000Y-55245000D03*
X176530000Y-55245000D03*
X172085000Y-55245000D03*
X180975000Y-50800000D03*
X176530000Y-50800000D03*
X172085000Y-50800000D03*
X152400000Y-50800000D03*
X152400000Y-55245000D03*
D19*
X139700000Y-69850000D03*
D20*
X132080000Y-77470000D03*
X139700000Y-72390000D03*
X132080000Y-74930000D03*
X139700000Y-74930000D03*
X132080000Y-72390000D03*
X139700000Y-77470000D03*
X132080000Y-69850000D03*
D19*
X139065000Y-90170000D03*
D20*
X131445000Y-97790000D03*
X139065000Y-92710000D03*
X131445000Y-95250000D03*
X139065000Y-95250000D03*
X131445000Y-92710000D03*
X139065000Y-97790000D03*
X131445000Y-90170000D03*
D19*
X139700000Y-110490000D03*
D20*
X132080000Y-118110000D03*
X139700000Y-113030000D03*
X132080000Y-115570000D03*
X139700000Y-115570000D03*
X132080000Y-113030000D03*
X139700000Y-118110000D03*
X132080000Y-110490000D03*
D11*
X116205000Y-59055000D03*
X118745000Y-56515000D03*
X113665000Y-56515000D03*
X125730000Y-59055000D03*
X128270000Y-56515000D03*
X123190000Y-56515000D03*
X135255000Y-59055000D03*
X137795000Y-56515000D03*
X132715000Y-56515000D03*
X125730000Y-77279500D03*
X125730000Y-73850500D03*
D19*
X107315000Y-72390000D03*
D20*
X99695000Y-80010000D03*
X107315000Y-74930000D03*
X99695000Y-77470000D03*
X107315000Y-77470000D03*
X99695000Y-74930000D03*
X107315000Y-80010000D03*
X99695000Y-72390000D03*
D21*
X95123000Y-113030000D03*
D22*
X101727000Y-113030000D03*
D21*
X98425000Y-117627400D03*
X198247000Y-102870000D03*
D22*
X191643000Y-102870000D03*
D21*
X194945000Y-98272600D03*
X198247000Y-79375000D03*
D22*
X191643000Y-79375000D03*
D21*
X194945000Y-74777600D03*
X198247000Y-55880000D03*
D22*
X191643000Y-55880000D03*
D21*
X194945000Y-51282600D03*
D23*
X182880000Y-110744000D03*
X182880000Y-106045000D03*
X182880000Y-101346000D03*
X171450000Y-110744000D03*
X171450000Y-106045000D03*
X171450000Y-101346000D03*
X160020000Y-110744000D03*
X160020000Y-106045000D03*
X160020000Y-101346000D03*
X148590000Y-110744000D03*
X148590000Y-106045000D03*
X148590000Y-101346000D03*
X182880000Y-90424000D03*
X182880000Y-85725000D03*
X182880000Y-81026000D03*
X171450000Y-90424000D03*
X171450000Y-85725000D03*
X171450000Y-81026000D03*
X160020000Y-90424000D03*
X160020000Y-85725000D03*
X160020000Y-81026000D03*
X148590000Y-90424000D03*
X148590000Y-85725000D03*
X148590000Y-81026000D03*
X182880000Y-70104000D03*
X182880000Y-65405000D03*
X182880000Y-60706000D03*
X171450000Y-70104000D03*
X171450000Y-65405000D03*
X171450000Y-60706000D03*
X160020000Y-70104000D03*
X160020000Y-65405000D03*
X160020000Y-60706000D03*
X148590000Y-70104000D03*
X148590000Y-65405000D03*
X148590000Y-60706000D03*
D24*
X133700700Y-103724400D03*
X144221500Y-81301900D03*
D25*
X119316500Y-60388500D02*
X118491000Y-61214000D01*
X102506700Y-60406200D02*
X100330000Y-58229500D01*
X103314500Y-61214000D02*
X102506700Y-60406200D01*
X118491000Y-61214000D02*
X103314500Y-61214000D01*
X123190000Y-56515000D02*
X119316500Y-60388500D01*
X119316500Y-60388500D02*
X119298800Y-60406200D01*
X125730100Y-56515000D02*
X123190000Y-56515000D01*
X128270100Y-59055000D02*
X125730100Y-56515000D01*
X135255000Y-59055000D02*
X128270100Y-59055000D01*
X139745600Y-59055000D02*
X135255000Y-59055000D01*
X148000600Y-50800000D02*
X139745600Y-59055000D01*
X152400000Y-50800000D02*
X148000600Y-50800000D01*
D26*
X112395000Y-117919500D02*
X110934500Y-117919500D01*
X100939600Y-120142000D02*
X98425000Y-117627400D01*
X108712000Y-120142000D02*
X100939600Y-120142000D01*
X110934500Y-117919500D02*
X108712000Y-120142000D01*
X191008000Y-118110000D02*
X187452000Y-114554000D01*
X194564000Y-118110000D02*
X191008000Y-118110000D01*
X139700000Y-118110000D02*
X181102000Y-118110000D01*
X187452000Y-114554000D02*
X184658000Y-114554000D01*
X184658000Y-114554000D02*
X181102000Y-118110000D01*
X198120000Y-69215000D02*
X201052200Y-72147200D01*
X201052200Y-89777800D02*
X198120000Y-92710000D01*
X201052200Y-89777800D02*
X201052200Y-73758700D01*
X201052200Y-72147200D02*
X201052200Y-73758700D01*
X194564000Y-118110000D02*
X196215000Y-118110000D01*
X196215000Y-118110000D02*
X198120000Y-116205000D01*
X139700000Y-118110000D02*
X137788500Y-118110000D01*
X114119300Y-119643800D02*
X112395000Y-117919500D01*
X136254700Y-119643800D02*
X114119300Y-119643800D01*
X137788500Y-118110000D02*
X136254700Y-119643800D01*
X98717100Y-117919500D02*
X98425000Y-117627400D01*
X194603500Y-118110000D02*
X194564000Y-118110000D01*
X103892000Y-70878500D02*
X105403500Y-72390000D01*
X92699000Y-70878500D02*
X103892000Y-70878500D01*
X89793300Y-67972800D02*
X92699000Y-70878500D01*
X89793300Y-65781700D02*
X89793300Y-67972800D01*
X92075000Y-63500000D02*
X89793300Y-65781700D01*
X107315000Y-72390000D02*
X105403500Y-72390000D01*
X95123000Y-114325400D02*
X98425000Y-117627400D01*
X95123000Y-113030000D02*
X95123000Y-114325400D01*
D25*
X124968000Y-63209298D02*
X127217298Y-60960000D01*
X140472100Y-60401600D02*
X139913700Y-60960000D01*
X139913700Y-60960000D02*
X127604300Y-60960000D01*
X179865700Y-49690700D02*
X180975000Y-50800000D01*
X179865700Y-49690700D02*
X156409200Y-49690700D01*
X156409200Y-49690700D02*
X153052100Y-53047800D01*
X153052100Y-53047800D02*
X147825900Y-53047800D01*
X147825900Y-53047800D02*
X140472100Y-60401600D01*
X127217298Y-60960000D02*
X127604300Y-60960000D01*
X99350702Y-63209298D02*
X99314000Y-63246000D01*
X124968000Y-63209298D02*
X99350702Y-63209298D01*
X98679000Y-65405000D02*
X98679000Y-63881000D01*
X98679000Y-63881000D02*
X99314000Y-63246000D01*
D26*
X130168500Y-70612000D02*
X128778000Y-72002500D01*
X130930500Y-69850000D02*
X130168500Y-70612000D01*
X128778000Y-72002500D02*
X128778000Y-73071700D01*
X132080000Y-69850000D02*
X130930500Y-69850000D01*
X160020000Y-106045000D02*
X171450000Y-106045000D01*
X171450000Y-106045000D02*
X182880000Y-106045000D01*
X148590000Y-106045000D02*
X160020000Y-106045000D01*
X94805500Y-72390000D02*
X94615000Y-72580500D01*
X99695000Y-72390000D02*
X94805500Y-72390000D01*
X182880000Y-85725000D02*
X171450000Y-85725000D01*
X171450000Y-85725000D02*
X160020000Y-85725000D01*
X160020000Y-85725000D02*
X148590000Y-85725000D01*
X182880000Y-65405000D02*
X171450000Y-65405000D01*
X171450000Y-65405000D02*
X160020000Y-65405000D01*
X160020000Y-65405000D02*
X148590000Y-65405000D01*
X146269400Y-103724400D02*
X133700700Y-103724400D01*
X148590000Y-106045000D02*
X146269400Y-103724400D01*
X126284700Y-75565000D02*
X128778000Y-73071700D01*
X107315000Y-80010000D02*
X116375100Y-80010000D01*
X116375100Y-80010000D02*
X119278300Y-77106800D01*
X119278300Y-77106800D02*
X119278300Y-77010300D01*
X119278300Y-77010300D02*
X120723600Y-75565000D01*
X120723600Y-75565000D02*
X126284700Y-75565000D01*
X132080000Y-110490000D02*
X130168500Y-110490000D01*
X97205800Y-107226400D02*
X102368200Y-112388800D01*
X97205800Y-102235000D02*
X97205800Y-107226400D01*
X128269700Y-112388800D02*
X102368200Y-112388800D01*
X130168500Y-110490000D02*
X128269700Y-112388800D01*
X102368200Y-112388800D02*
X101727000Y-113030000D01*
X191643000Y-94488000D02*
X182880000Y-85725000D01*
X191643000Y-102870000D02*
X191643000Y-94488000D01*
D25*
X127551300Y-62019300D02*
X127594600Y-61976000D01*
X140259000Y-61976000D02*
X140735500Y-61499500D01*
X127594600Y-61976000D02*
X140259000Y-61976000D01*
X101981000Y-65405000D02*
X101981000Y-64516000D01*
X101981000Y-64516000D02*
X102576500Y-63920500D01*
X102576500Y-63920500D02*
X103973500Y-63920500D01*
X159278400Y-50800000D02*
X172085000Y-50800000D01*
X140735500Y-61499500D02*
X145897500Y-56337500D01*
X145897500Y-56337500D02*
X153740900Y-56337500D01*
X153740900Y-56337500D02*
X159278400Y-50800000D01*
X125650100Y-63920500D02*
X127551300Y-62019300D01*
X103973500Y-63920500D02*
X125650100Y-63920500D01*
X103632000Y-65405000D02*
X104404900Y-64632100D01*
X105674900Y-64632100D02*
X126447700Y-64632100D01*
X126447700Y-64632100D02*
X128161500Y-62918300D01*
X128161500Y-62918300D02*
X140984200Y-62918300D01*
X140984200Y-62918300D02*
X146845500Y-57057000D01*
X146845500Y-57057000D02*
X157978900Y-57057000D01*
X157978900Y-57057000D02*
X161431400Y-53604500D01*
X161431400Y-53604500D02*
X173725500Y-53604500D01*
X173725500Y-53604500D02*
X176530000Y-50800000D01*
X104404900Y-64632100D02*
X105674900Y-64632100D01*
X114821600Y-57898500D02*
X114554100Y-58166000D01*
X95885000Y-54800500D02*
X97599500Y-56515000D01*
X97599500Y-56515000D02*
X111175700Y-56515000D01*
X111175700Y-56515000D02*
X112559200Y-57898500D01*
X114821600Y-57898500D02*
X116205100Y-56515000D01*
X116205100Y-56515000D02*
X118745000Y-56515000D01*
X112826700Y-58166000D02*
X112559200Y-57898500D01*
X114554100Y-58166000D02*
X112826700Y-58166000D01*
X91440000Y-54800500D02*
X95885000Y-54800500D01*
X123597700Y-61187300D02*
X122809000Y-61976000D01*
X122809000Y-61976000D02*
X99314000Y-61976000D01*
X99314000Y-61976000D02*
X93980000Y-67310000D01*
X125730000Y-59055000D02*
X123597700Y-61187300D01*
D26*
X194119500Y-90170000D02*
X198120000Y-90170000D01*
X193040000Y-91249500D02*
X194119500Y-90170000D01*
X194945000Y-99568000D02*
X194945000Y-98272600D01*
X198247000Y-102870000D02*
X194945000Y-99568000D01*
D25*
X198120000Y-64135000D02*
X195961000Y-61976000D01*
X195961000Y-61976000D02*
X192774400Y-61976000D01*
X189078300Y-58279900D02*
X192774400Y-61976000D01*
X146973700Y-58279900D02*
X189078300Y-58279900D01*
X141322200Y-63931400D02*
X146973700Y-58279900D01*
X131839100Y-63931400D02*
X141322200Y-63931400D01*
X130365500Y-65405000D02*
X131839100Y-63931400D01*
X194933500Y-87630000D02*
X198120000Y-87630000D01*
X185903400Y-78599900D02*
X194933500Y-87630000D01*
X145139200Y-78599900D02*
X185903400Y-78599900D01*
X141705800Y-82033300D02*
X145139200Y-78599900D01*
X133422200Y-82033300D02*
X141705800Y-82033300D01*
X129730500Y-85725000D02*
X133422200Y-82033300D01*
X130365500Y-105808800D02*
X130365500Y-106045000D01*
X133334400Y-102839900D02*
X130365500Y-105808800D01*
X143160800Y-102839900D02*
X133334400Y-102839900D01*
X147080700Y-98920000D02*
X143160800Y-102839900D01*
X183951400Y-98920000D02*
X147080700Y-98920000D01*
X188072500Y-103041100D02*
X183951400Y-98920000D01*
X188072500Y-103423300D02*
X188072500Y-103041100D01*
X195774200Y-111125000D02*
X188072500Y-103423300D01*
X198120000Y-111125000D02*
X195774200Y-111125000D01*
X104775000Y-54800500D02*
X106997500Y-54800500D01*
X106997500Y-54800500D02*
X108509200Y-53288800D01*
X100330000Y-54800500D02*
X104775000Y-54800500D01*
X129488800Y-53288800D02*
X132715000Y-56515000D01*
X108509200Y-53288800D02*
X129488800Y-53288800D01*
X128354300Y-67035200D02*
X125730000Y-69659500D01*
X145521200Y-67035200D02*
X128354300Y-67035200D01*
X148590000Y-70104000D02*
X145521200Y-67035200D01*
X139700000Y-72390000D02*
X138684000Y-72390000D01*
X138684000Y-72390000D02*
X136398000Y-74676000D01*
X136398000Y-74676000D02*
X136398000Y-75540600D01*
X116840000Y-76817400D02*
X116840000Y-77279500D01*
X119806900Y-73850500D02*
X116840000Y-76817400D01*
X121285000Y-73850500D02*
X119806900Y-73850500D01*
X115361900Y-76817400D02*
X112395000Y-73850500D01*
X116840000Y-76817400D02*
X115361900Y-76817400D01*
X127315300Y-78864800D02*
X125730000Y-77279500D01*
X133073800Y-78864800D02*
X127315300Y-78864800D01*
X136398000Y-75540600D02*
X133073800Y-78864800D01*
X116840000Y-69659500D02*
X112395000Y-69659500D01*
X157563800Y-72560200D02*
X160020000Y-70104000D01*
X146893300Y-72560200D02*
X157563800Y-72560200D01*
X142079900Y-67746800D02*
X146893300Y-72560200D01*
X129726700Y-67746800D02*
X142079900Y-67746800D01*
X126329000Y-71144500D02*
X129726700Y-67746800D01*
X124858800Y-71144500D02*
X126329000Y-71144500D01*
X121659300Y-67945000D02*
X124858800Y-71144500D01*
X118554500Y-67945000D02*
X121659300Y-67945000D01*
X116840000Y-66230500D02*
X118554500Y-67945000D01*
X168282200Y-73271800D02*
X171450000Y-70104000D01*
X146588300Y-73271800D02*
X168282200Y-73271800D01*
X141781900Y-68465400D02*
X146588300Y-73271800D01*
X130349300Y-68465400D02*
X141781900Y-68465400D01*
X125730000Y-73084700D02*
X130349300Y-68465400D01*
X125730000Y-73850500D02*
X125730000Y-73084700D01*
X178451000Y-74533000D02*
X182880000Y-70104000D01*
X146372000Y-74533000D02*
X178451000Y-74533000D01*
X141315800Y-79589200D02*
X146372000Y-74533000D01*
X123594700Y-79589200D02*
X141315800Y-79589200D01*
X121285000Y-77279500D02*
X123594700Y-79589200D01*
X146239800Y-88073800D02*
X148590000Y-90424000D01*
X129677400Y-88073800D02*
X146239800Y-88073800D01*
X127771700Y-89979500D02*
X129677400Y-88073800D01*
X125730000Y-89979500D02*
X127771700Y-89979500D01*
X122764100Y-88029600D02*
X121285000Y-86550500D01*
X128715300Y-88029600D02*
X122764100Y-88029600D01*
X129426700Y-87318200D02*
X128715300Y-88029600D01*
X139186300Y-87318200D02*
X129426700Y-87318200D01*
X140779500Y-85725000D02*
X139186300Y-87318200D01*
X117856000Y-97599500D02*
X116840000Y-97599500D01*
X121285000Y-94170500D02*
X117856000Y-97599500D01*
X113411000Y-94170500D02*
X112395000Y-94170500D01*
X116840000Y-97599500D02*
X113411000Y-94170500D01*
X116840000Y-89979500D02*
X112395000Y-89979500D01*
X157540300Y-92903700D02*
X160020000Y-90424000D01*
X146995100Y-92903700D02*
X157540300Y-92903700D01*
X142876800Y-88785400D02*
X146995100Y-92903700D01*
X129972000Y-88785400D02*
X142876800Y-88785400D01*
X127274200Y-91483200D02*
X129972000Y-88785400D01*
X124914100Y-91483200D02*
X127274200Y-91483200D01*
X121455000Y-88024100D02*
X124914100Y-91483200D01*
X118313600Y-88024100D02*
X121455000Y-88024100D01*
X116840000Y-86550500D02*
X118313600Y-88024100D01*
X168126600Y-93747400D02*
X171450000Y-90424000D01*
X146918300Y-93747400D02*
X168126600Y-93747400D01*
X140766000Y-99899700D02*
X146918300Y-93747400D01*
X130187500Y-99899700D02*
X140766000Y-99899700D01*
X125730000Y-95442200D02*
X130187500Y-99899700D01*
X125730000Y-94170500D02*
X125730000Y-95442200D01*
X178450900Y-94853100D02*
X182880000Y-90424000D01*
X149130400Y-94853100D02*
X178450900Y-94853100D01*
X143317400Y-100666100D02*
X149130400Y-94853100D01*
X124351600Y-100666100D02*
X143317400Y-100666100D01*
X121285000Y-97599500D02*
X124351600Y-100666100D01*
X117856000Y-117919500D02*
X116840000Y-117919500D01*
X121285000Y-114490500D02*
X117856000Y-117919500D01*
X113411000Y-114490500D02*
X112395000Y-114490500D01*
X116840000Y-117919500D02*
X113411000Y-114490500D01*
X122758700Y-105396800D02*
X121285000Y-106870500D01*
X127585100Y-105396800D02*
X122758700Y-105396800D01*
X129747400Y-107559100D02*
X127585100Y-105396800D01*
X139900400Y-107559100D02*
X129747400Y-107559100D01*
X141414500Y-106045000D02*
X139900400Y-107559100D01*
X116840000Y-110299500D02*
X112395000Y-110299500D01*
X118554500Y-108585000D02*
X116840000Y-106870500D01*
X142940600Y-108585000D02*
X118554500Y-108585000D01*
X147540800Y-113185200D02*
X142940600Y-108585000D01*
X157578800Y-113185200D02*
X147540800Y-113185200D01*
X160020000Y-110744000D02*
X157578800Y-113185200D01*
X138944500Y-69850000D02*
X137915500Y-70879000D01*
X133864500Y-74930000D02*
X132080000Y-74930000D01*
X133864500Y-74930000D02*
X137915500Y-70879000D01*
X138944500Y-69850000D02*
X139700000Y-69850000D01*
X138309500Y-90170000D02*
X137280500Y-91199000D01*
X133229500Y-95250000D02*
X131445000Y-95250000D01*
X133229500Y-95250000D02*
X137280500Y-91199000D01*
X138309500Y-90170000D02*
X139065000Y-90170000D01*
X140330600Y-82744900D02*
X137350500Y-85725000D01*
X142778500Y-82744900D02*
X140330600Y-82744900D01*
X144221500Y-81301900D02*
X142778500Y-82744900D01*
X139700000Y-110490000D02*
X138944500Y-110490000D01*
X138944500Y-110490000D02*
X137915500Y-111519000D01*
X132080000Y-115570000D02*
X133864500Y-115570000D01*
X133864500Y-115570000D02*
X137915500Y-111519000D01*
X109220000Y-58229500D02*
X104775000Y-58229500D01*
X139065000Y-95250000D02*
X137280500Y-95250000D01*
X102523900Y-82994500D02*
X94615000Y-82994500D01*
X112170500Y-92641100D02*
X102523900Y-82994500D01*
X126344100Y-92641100D02*
X112170500Y-92641100D01*
X127852100Y-94149100D02*
X126344100Y-92641100D01*
X127852100Y-96558000D02*
X127852100Y-94149100D01*
X130478600Y-99184500D02*
X127852100Y-96558000D01*
X133346000Y-99184500D02*
X130478600Y-99184500D01*
X137280500Y-95250000D02*
X133346000Y-99184500D01*
X96448200Y-81398700D02*
X94615000Y-79565500D01*
X101601800Y-81398700D02*
X96448200Y-81398700D01*
X105530500Y-77470000D02*
X101601800Y-81398700D01*
X107315000Y-77470000D02*
X105530500Y-77470000D01*
X104019500Y-74930000D02*
X107315000Y-74930000D01*
X101479500Y-77470000D02*
X104019500Y-74930000D01*
X99695000Y-77470000D02*
X101479500Y-77470000D01*
M02*
