M48
;DRILL file {KiCad 4.0.6} date 06/23/17 11:55:05
;FORMAT={-:-/ absolute / inch / decimal}
FMAT,2
INCH,TZ
T1C0.016
T2C0.020
T3C0.028
T4C0.031
T5C0.035
T6C0.039
T7C0.051
T8C0.103
T9C0.110
T10C0.120
T11C0.140
T12C0.135
%
G90
G05
M72
T1
X5.2638Y-4.0836
X5.678Y-3.2009
T2
X6.Y-2.
X6.Y-2.175
X6.775Y-2.
X6.775Y-2.175
X6.95Y-2.
X6.95Y-2.175
X7.125Y-2.
X7.125Y-2.175
T3
X3.6Y-2.1575
X3.6Y-2.2925
X3.6Y-2.65
X3.625Y-2.5
X3.7Y-2.65
X3.725Y-2.5
X3.725Y-2.8575
X3.725Y-2.9925
X3.725Y-3.1325
X3.725Y-3.2675
X3.775Y-2.1575
X3.775Y-2.2925
X3.95Y-2.1575
X3.95Y-2.2925
X4.125Y-2.1575
X4.125Y-2.2925
X4.3Y-2.1575
X4.3Y-2.2925
X4.425Y-2.6075
X4.425Y-2.7425
X4.425Y-2.9075
X4.425Y-3.0425
X4.425Y-3.4075
X4.425Y-3.5425
X4.425Y-3.7075
X4.425Y-3.8425
X4.425Y-4.2075
X4.425Y-4.3425
X4.425Y-4.5075
X4.425Y-4.6425
X4.475Y-2.225
X4.575Y-2.325
X4.6Y-2.6075
X4.6Y-2.7425
X4.6Y-2.9075
X4.6Y-3.0425
X4.6Y-3.4075
X4.6Y-3.5425
X4.6Y-3.7075
X4.6Y-3.8425
X4.6Y-4.2075
X4.6Y-4.3425
X4.6Y-4.5075
X4.6Y-4.6425
X4.675Y-2.225
X4.775Y-2.6075
X4.775Y-2.7425
X4.775Y-2.9075
X4.775Y-3.0425
X4.775Y-3.4075
X4.775Y-3.5425
X4.775Y-3.7075
X4.775Y-3.8425
X4.775Y-4.2075
X4.775Y-4.3425
X4.775Y-4.5075
X4.775Y-4.6425
X4.85Y-2.225
X4.95Y-2.325
X4.95Y-2.6075
X4.95Y-2.7425
X4.95Y-2.9075
X4.95Y-3.0425
X4.95Y-3.4075
X4.95Y-3.5425
X4.95Y-3.7075
X4.95Y-3.8425
X4.95Y-4.2075
X4.95Y-4.3425
X4.95Y-4.5075
X4.95Y-4.6425
X5.05Y-2.225
X5.1075Y-3.375
X5.1325Y-2.575
X5.1325Y-4.175
X5.225Y-2.225
X5.2425Y-3.375
X5.2675Y-2.575
X5.2675Y-4.175
X5.325Y-2.325
X5.4075Y-3.375
X5.425Y-2.225
X5.4325Y-2.575
X5.4325Y-4.175
X5.5425Y-3.375
X5.5675Y-2.575
X5.5675Y-4.175
X7.6Y-2.5325
X7.6Y-2.6675
X7.6Y-3.4575
X7.6Y-3.5925
X7.6Y-4.3825
X7.6Y-4.5175
T4
X3.925Y-2.85
X3.925Y-2.95
X3.925Y-3.05
X3.925Y-3.15
X4.225Y-2.85
X4.225Y-2.95
X4.225Y-3.05
X4.225Y-3.15
X5.175Y-3.55
X5.175Y-3.65
X5.175Y-3.75
X5.175Y-3.85
X5.2Y-2.75
X5.2Y-2.85
X5.2Y-2.95
X5.2Y-3.05
X5.2Y-4.35
X5.2Y-4.45
X5.2Y-4.55
X5.2Y-4.65
X5.475Y-3.55
X5.475Y-3.65
X5.475Y-3.75
X5.475Y-3.85
X5.5Y-2.75
X5.5Y-2.85
X5.5Y-2.95
X5.5Y-3.05
X5.5Y-4.35
X5.5Y-4.45
X5.5Y-4.55
X5.5Y-4.65
T5
X3.885Y-2.575
X3.95Y-2.575
X4.015Y-2.575
X4.08Y-2.575
T6
X7.8Y-2.525
X7.8Y-2.625
X7.8Y-2.725
X7.8Y-3.45
X7.8Y-3.55
X7.8Y-3.65
X7.8Y-4.375
X7.8Y-4.475
X7.8Y-4.575
T7
X3.827Y-4.025
X3.975Y-4.025
X4.123Y-4.025
T8
X5.85Y-2.39
X5.85Y-2.575
X5.85Y-2.76
X5.85Y-3.19
X5.85Y-3.375
X5.85Y-3.56
X5.85Y-3.99
X5.85Y-4.175
X5.85Y-4.36
X6.3Y-2.39
X6.3Y-2.575
X6.3Y-2.76
X6.3Y-3.19
X6.3Y-3.375
X6.3Y-3.56
X6.3Y-3.99
X6.3Y-4.175
X6.3Y-4.36
X6.75Y-2.39
X6.75Y-2.575
X6.75Y-2.76
X6.75Y-3.19
X6.75Y-3.375
X6.75Y-3.56
X6.75Y-3.99
X6.75Y-4.175
X6.75Y-4.36
X7.2Y-2.39
X7.2Y-2.575
X7.2Y-2.76
X7.2Y-3.19
X7.2Y-3.375
X7.2Y-3.56
X7.2Y-3.99
X7.2Y-4.175
X7.2Y-4.36
T9
X3.758Y-3.631
X4.192Y-3.631
T10
X3.745Y-4.45
X3.875Y-4.631
X7.675Y-2.019
X7.675Y-2.944
X7.675Y-3.869
X7.805Y-2.2
X7.805Y-3.125
X7.805Y-4.05
T11
X4.005Y-4.45
X7.545Y-2.2
X7.545Y-3.125
X7.545Y-4.05
T12
X4.2Y-2.03
X4.2Y-4.62
X7.33Y-4.62
X7.35Y-2.03
T0
M30
