G04 #@! TF.FileFunction,Copper,L2,Bot,Signal*
%FSLAX46Y46*%
G04 Gerber Fmt 4.6, Leading zero omitted, Abs format (unit mm)*
G04 Created by KiCad (PCBNEW 4.0.6) date 06/30/17 20:27:55*
%MOMM*%
%LPD*%
G01*
G04 APERTURE LIST*
%ADD10C,0.100000*%
%ADD11C,1.778000*%
%ADD12R,1.070000X1.800000*%
%ADD13O,1.070000X1.800000*%
%ADD14R,1.800000X1.800000*%
%ADD15O,1.800000X1.800000*%
%ADD16C,2.362200*%
%ADD17C,3.860800*%
%ADD18C,3.000000*%
%ADD19C,1.016000*%
%ADD20R,2.400000X1.600000*%
%ADD21O,2.400000X1.600000*%
%ADD22C,4.114800*%
%ADD23C,4.622800*%
%ADD24C,3.683000*%
%ADD25C,0.600000*%
%ADD26C,0.254000*%
%ADD27C,0.508000*%
G04 APERTURE END LIST*
D10*
D11*
X94615000Y-63500000D03*
X92075000Y-63500000D03*
D12*
X98679000Y-65405000D03*
D13*
X100330000Y-65405000D03*
X101981000Y-65405000D03*
X103632000Y-65405000D03*
D11*
X91440000Y-67310000D03*
X93980000Y-67310000D03*
D14*
X198120000Y-64135000D03*
D15*
X198120000Y-66675000D03*
X198120000Y-69215000D03*
D14*
X198120000Y-87630000D03*
D15*
X198120000Y-90170000D03*
X198120000Y-92710000D03*
D14*
X198120000Y-111125000D03*
D15*
X198120000Y-113665000D03*
X198120000Y-116205000D03*
D11*
X125730000Y-69659500D03*
X125730000Y-66230500D03*
X121285000Y-66230500D03*
X121285000Y-69659500D03*
X116840000Y-69659500D03*
X116840000Y-66230500D03*
X112395000Y-66230500D03*
X112395000Y-69659500D03*
X121285000Y-73850500D03*
X121285000Y-77279500D03*
X116840000Y-77279500D03*
X116840000Y-73850500D03*
X112395000Y-73850500D03*
X112395000Y-77279500D03*
X125730000Y-89979500D03*
X125730000Y-86550500D03*
X121285000Y-86550500D03*
X121285000Y-89979500D03*
X116840000Y-89979500D03*
X116840000Y-86550500D03*
X112395000Y-86550500D03*
X112395000Y-89979500D03*
X125730000Y-97599500D03*
X125730000Y-94170500D03*
X121285000Y-94170500D03*
X121285000Y-97599500D03*
X116840000Y-97599500D03*
X116840000Y-94170500D03*
X112395000Y-94170500D03*
X112395000Y-97599500D03*
X125730000Y-110299500D03*
X125730000Y-106870500D03*
X121285000Y-106870500D03*
X121285000Y-110299500D03*
X116840000Y-110299500D03*
X116840000Y-106870500D03*
X112395000Y-106870500D03*
X112395000Y-110299500D03*
X125730000Y-117919500D03*
X125730000Y-114490500D03*
X121285000Y-114490500D03*
X121285000Y-117919500D03*
X116840000Y-117919500D03*
X116840000Y-114490500D03*
X112395000Y-114490500D03*
X112395000Y-117919500D03*
X137985500Y-65405000D03*
X141414500Y-65405000D03*
X137350500Y-85725000D03*
X140779500Y-85725000D03*
X137985500Y-106045000D03*
X141414500Y-106045000D03*
X130365500Y-65405000D03*
X133794500Y-65405000D03*
X129730500Y-85725000D03*
X133159500Y-85725000D03*
X130365500Y-106045000D03*
X133794500Y-106045000D03*
X193040000Y-67754500D03*
X193040000Y-64325500D03*
X193040000Y-91249500D03*
X193040000Y-87820500D03*
X193040000Y-114744500D03*
X193040000Y-111315500D03*
X109220000Y-54800500D03*
X109220000Y-58229500D03*
X104775000Y-58229500D03*
X104775000Y-54800500D03*
X100330000Y-54800500D03*
X100330000Y-58229500D03*
X94615000Y-72580500D03*
X94615000Y-76009500D03*
X94615000Y-82994500D03*
X94615000Y-79565500D03*
X95885000Y-58229500D03*
X95885000Y-54800500D03*
X91440000Y-54800500D03*
X91440000Y-58229500D03*
D16*
X100965000Y-102235000D03*
X97205800Y-102235000D03*
X104724200Y-102235000D03*
D17*
X95453200Y-92227400D03*
X106476800Y-92227400D03*
D18*
X180975000Y-55245000D03*
D19*
X180975000Y-55245000D03*
D18*
X176530000Y-55245000D03*
D19*
X176530000Y-55245000D03*
D18*
X172085000Y-55245000D03*
D19*
X172085000Y-55245000D03*
D18*
X180975000Y-50800000D03*
D19*
X180975000Y-50800000D03*
D18*
X176530000Y-50800000D03*
D19*
X176530000Y-50800000D03*
D18*
X172085000Y-50800000D03*
D19*
X172085000Y-50800000D03*
D18*
X152400000Y-50800000D03*
D19*
X152400000Y-50800000D03*
D18*
X152400000Y-55245000D03*
D19*
X152400000Y-55245000D03*
D20*
X139700000Y-69850000D03*
D21*
X132080000Y-77470000D03*
X139700000Y-72390000D03*
X132080000Y-74930000D03*
X139700000Y-74930000D03*
X132080000Y-72390000D03*
X139700000Y-77470000D03*
X132080000Y-69850000D03*
D20*
X139065000Y-90170000D03*
D21*
X131445000Y-97790000D03*
X139065000Y-92710000D03*
X131445000Y-95250000D03*
X139065000Y-95250000D03*
X131445000Y-92710000D03*
X139065000Y-97790000D03*
X131445000Y-90170000D03*
D20*
X139700000Y-110490000D03*
D21*
X132080000Y-118110000D03*
X139700000Y-113030000D03*
X132080000Y-115570000D03*
X139700000Y-115570000D03*
X132080000Y-113030000D03*
X139700000Y-118110000D03*
X132080000Y-110490000D03*
D11*
X116205000Y-59055000D03*
X118745000Y-56515000D03*
X113665000Y-56515000D03*
X125730000Y-59055000D03*
X128270000Y-56515000D03*
X123190000Y-56515000D03*
X135255000Y-59055000D03*
X137795000Y-56515000D03*
X132715000Y-56515000D03*
X125730000Y-77279500D03*
X125730000Y-73850500D03*
D20*
X107315000Y-72390000D03*
D21*
X99695000Y-80010000D03*
X107315000Y-74930000D03*
X99695000Y-77470000D03*
X107315000Y-77470000D03*
X99695000Y-74930000D03*
X107315000Y-80010000D03*
X99695000Y-72390000D03*
D22*
X95123000Y-113030000D03*
D23*
X101727000Y-113030000D03*
D22*
X98425000Y-117627400D03*
X198247000Y-102870000D03*
D23*
X191643000Y-102870000D03*
D22*
X194945000Y-98272600D03*
X198247000Y-79375000D03*
D23*
X191643000Y-79375000D03*
D22*
X194945000Y-74777600D03*
X198247000Y-55880000D03*
D23*
X191643000Y-55880000D03*
D22*
X194945000Y-51282600D03*
D24*
X182880000Y-110744000D03*
X182880000Y-106045000D03*
X182880000Y-101346000D03*
X171450000Y-110744000D03*
X171450000Y-106045000D03*
X171450000Y-101346000D03*
X160020000Y-110744000D03*
X160020000Y-106045000D03*
X160020000Y-101346000D03*
X148590000Y-110744000D03*
X148590000Y-106045000D03*
X148590000Y-101346000D03*
X182880000Y-90424000D03*
X182880000Y-85725000D03*
X182880000Y-81026000D03*
X171450000Y-90424000D03*
X171450000Y-85725000D03*
X171450000Y-81026000D03*
X160020000Y-90424000D03*
X160020000Y-85725000D03*
X160020000Y-81026000D03*
X148590000Y-90424000D03*
X148590000Y-85725000D03*
X148590000Y-81026000D03*
X182880000Y-70104000D03*
X182880000Y-65405000D03*
X182880000Y-60706000D03*
X171450000Y-70104000D03*
X171450000Y-65405000D03*
X171450000Y-60706000D03*
X160020000Y-70104000D03*
X160020000Y-65405000D03*
X160020000Y-60706000D03*
X148590000Y-70104000D03*
X148590000Y-65405000D03*
X148590000Y-60706000D03*
D25*
X133700700Y-103724400D03*
X144221500Y-81301900D03*
D26*
X131445000Y-97790000D02*
X133229500Y-97790000D01*
X132080000Y-77470000D02*
X133864500Y-77470000D01*
X135294600Y-99855100D02*
X133229500Y-97790000D01*
X135294600Y-116679900D02*
X135294600Y-99855100D01*
X133864500Y-118110000D02*
X135294600Y-116679900D01*
X132080000Y-118110000D02*
X133864500Y-118110000D01*
X95059500Y-63500000D02*
X94615000Y-63500000D01*
X100330000Y-58229500D02*
X95059500Y-63500000D01*
X134633200Y-78238700D02*
X133864500Y-77470000D01*
X134633200Y-96386300D02*
X134633200Y-78238700D01*
X133229500Y-97790000D02*
X134633200Y-96386300D01*
X135292000Y-59092000D02*
X135255000Y-59055000D01*
X135292000Y-76042500D02*
X135292000Y-59092000D01*
X133864500Y-77470000D02*
X135292000Y-76042500D01*
D27*
X115168500Y-55011500D02*
X115570000Y-54610000D01*
X113665000Y-56515000D02*
X115168500Y-55011500D01*
X135539800Y-55011500D02*
X137043300Y-56515000D01*
X135138300Y-54610000D02*
X135539800Y-55011500D01*
X115570000Y-54610000D02*
X135138300Y-54610000D01*
X92075000Y-58864500D02*
X92075000Y-63500000D01*
X91440000Y-58229500D02*
X92075000Y-58864500D01*
X110877400Y-96081800D02*
X112395000Y-97599500D01*
X95123000Y-111836200D02*
X104724200Y-102235000D01*
X95123000Y-113030000D02*
X95123000Y-111836200D01*
X104724200Y-102235000D02*
X110877400Y-96081800D01*
X198120000Y-92710000D02*
X198120000Y-94321500D01*
X198120000Y-116205000D02*
X201052200Y-113272800D01*
X201052200Y-113272800D02*
X201052200Y-97253700D01*
X201052200Y-97253700D02*
X198120000Y-94321500D01*
X109226500Y-74781000D02*
X111725000Y-77279500D01*
X109226500Y-72390000D02*
X109226500Y-74781000D01*
X112395000Y-77279500D02*
X111725000Y-77279500D01*
X110763500Y-95968000D02*
X110877400Y-96081800D01*
X110763500Y-78911000D02*
X110763500Y-95968000D01*
X111725000Y-77949500D02*
X110763500Y-78911000D01*
X111725000Y-77279500D02*
X111725000Y-77949500D01*
X107315000Y-72390000D02*
X109226500Y-72390000D01*
X109226500Y-60953500D02*
X109226500Y-72390000D01*
X113665000Y-56515000D02*
X109226500Y-60953500D01*
X137795000Y-56515000D02*
X137043300Y-56515000D01*
X136337800Y-76019300D02*
X137788500Y-77470000D01*
X139528700Y-77470000D02*
X137788500Y-77470000D01*
X137043300Y-56515000D02*
X137043300Y-59870200D01*
X137043300Y-59870200D02*
X136337800Y-60575700D01*
X136337800Y-60575700D02*
X136337800Y-76019300D01*
X139065000Y-97790000D02*
X140976500Y-97790000D01*
X139700000Y-77470000D02*
X139528700Y-77470000D01*
X142400100Y-96366400D02*
X140976500Y-97790000D01*
X142400100Y-78258600D02*
X142400100Y-96366400D01*
X141611500Y-77470000D02*
X142400100Y-78258600D01*
X139700000Y-77470000D02*
X141611500Y-77470000D01*
D26*
X193040000Y-62865000D02*
X193040000Y-64325500D01*
X180975000Y-50800000D02*
X193040000Y-62865000D01*
D27*
X100330000Y-65405000D02*
X100330000Y-68453000D01*
X101606500Y-69729500D02*
X101606500Y-72390000D01*
X100330000Y-68453000D02*
X101606500Y-69729500D01*
X100330000Y-65405000D02*
X100330000Y-63500000D01*
X100330000Y-63500000D02*
X102565300Y-61264700D01*
X105410000Y-78994000D02*
X103378000Y-76962000D01*
X103378000Y-76962000D02*
X103378000Y-74161500D01*
X103378000Y-74161500D02*
X101606500Y-72390000D01*
X107315000Y-80010000D02*
X106426000Y-80010000D01*
X106426000Y-80010000D02*
X105410000Y-78994000D01*
X105410000Y-78994000D02*
X105403500Y-78987500D01*
X132080000Y-69850000D02*
X131318000Y-69850000D01*
X131318000Y-69850000D02*
X130168500Y-70999500D01*
X132080000Y-105345100D02*
X132080000Y-110490000D01*
X133700700Y-103724400D02*
X132080000Y-105345100D01*
X99695000Y-72390000D02*
X101606500Y-72390000D01*
X97524900Y-56589600D02*
X95885000Y-58229500D01*
X100987800Y-56589600D02*
X97524900Y-56589600D01*
X102565300Y-58167100D02*
X100987800Y-56589600D01*
X104217400Y-56515000D02*
X102565300Y-58167100D01*
X107505500Y-56515000D02*
X104217400Y-56515000D01*
X109220000Y-54800500D02*
X107505500Y-56515000D01*
X102565300Y-58167100D02*
X102565300Y-61264700D01*
X131445000Y-90170000D02*
X129774900Y-90170000D01*
X129533500Y-99557200D02*
X133700700Y-103724400D01*
X129533500Y-90411400D02*
X129533500Y-99557200D01*
X129774900Y-90170000D02*
X129533500Y-90411400D01*
X131380900Y-88564000D02*
X129774900Y-90170000D01*
X131380900Y-81879400D02*
X131380900Y-88564000D01*
X130168500Y-80667000D02*
X131380900Y-81879400D01*
X130168500Y-70999500D02*
X130168500Y-80667000D01*
X191643000Y-79375000D02*
X189230000Y-79375000D01*
X189230000Y-79375000D02*
X182880000Y-85725000D01*
X189230000Y-79375000D02*
X189230000Y-66040000D01*
X183515000Y-66040000D02*
X189230000Y-66040000D01*
X182880000Y-65405000D02*
X183515000Y-66040000D01*
X194675200Y-58912200D02*
X191643000Y-55880000D01*
X194675200Y-65007900D02*
X194675200Y-58912200D01*
X193643100Y-66040000D02*
X194675200Y-65007900D01*
X189230000Y-66040000D02*
X193643100Y-66040000D01*
X188468000Y-106045000D02*
X191643000Y-102870000D01*
X182880000Y-106045000D02*
X188468000Y-106045000D01*
D26*
X194556000Y-109799500D02*
X193040000Y-111315500D01*
X194556000Y-101687400D02*
X194556000Y-109799500D01*
X191150700Y-98282100D02*
X194556000Y-101687400D01*
X186295100Y-98282100D02*
X191150700Y-98282100D01*
X174177100Y-86164100D02*
X186295100Y-98282100D01*
X174177100Y-52892100D02*
X174177100Y-86164100D01*
X172085000Y-50800000D02*
X174177100Y-52892100D01*
X178858000Y-53128000D02*
X176530000Y-50800000D01*
X178858000Y-89836800D02*
X178858000Y-53128000D01*
X181884200Y-92863000D02*
X178858000Y-89836800D01*
X187997500Y-92863000D02*
X181884200Y-92863000D01*
X193040000Y-87820500D02*
X187997500Y-92863000D01*
X89952800Y-65822800D02*
X91440000Y-67310000D01*
X89952800Y-56287700D02*
X89952800Y-65822800D01*
X91440000Y-54800500D02*
X89952800Y-56287700D01*
D27*
X198247000Y-54584600D02*
X198247000Y-55880000D01*
X194945000Y-51282600D02*
X198247000Y-54584600D01*
X198120000Y-66675000D02*
X197648100Y-66675000D01*
X194178200Y-67754500D02*
X196452900Y-65479800D01*
X193040000Y-67754500D02*
X194178200Y-67754500D01*
X197648100Y-66675000D02*
X196452900Y-65479800D01*
X196452900Y-57674100D02*
X198247000Y-55880000D01*
X196452900Y-65479800D02*
X196452900Y-57674100D01*
X198247000Y-79375000D02*
X201676000Y-82804000D01*
X199898000Y-90170000D02*
X198120000Y-90170000D01*
X201676000Y-88392000D02*
X199898000Y-90170000D01*
X201676000Y-82804000D02*
X201676000Y-88392000D01*
X198247000Y-78079600D02*
X198247000Y-79375000D01*
X194945000Y-74777600D02*
X198247000Y-78079600D01*
X196463100Y-104653900D02*
X198247000Y-102870000D01*
X196463100Y-113665000D02*
X196463100Y-104653900D01*
X194119500Y-113665000D02*
X196463100Y-113665000D01*
X193040000Y-114744500D02*
X194119500Y-113665000D01*
X196463100Y-113665000D02*
X198120000Y-113665000D01*
D26*
X125533200Y-56515000D02*
X128270000Y-56515000D01*
X122993200Y-59055000D02*
X125533200Y-56515000D01*
X116205000Y-59055000D02*
X122993200Y-59055000D01*
X122301000Y-69659500D02*
X121285000Y-69659500D01*
X125730000Y-66230500D02*
X122301000Y-69659500D01*
X139700000Y-72390000D02*
X141224000Y-72390000D01*
X141732000Y-71882000D02*
X141732000Y-65722500D01*
X141224000Y-72390000D02*
X141732000Y-71882000D01*
X141732000Y-65722500D02*
X141414500Y-65405000D01*
X141484500Y-65475000D02*
X141414500Y-65405000D01*
X122301000Y-73850500D02*
X121285000Y-73850500D01*
X125730000Y-77279500D02*
X122301000Y-73850500D01*
X113922900Y-67758400D02*
X112395000Y-66230500D01*
X119757100Y-67758400D02*
X113922900Y-67758400D01*
X121285000Y-66230500D02*
X119757100Y-67758400D01*
X119757100Y-72322600D02*
X121285000Y-73850500D01*
X119757100Y-67758400D02*
X119757100Y-72322600D01*
X120269000Y-77279500D02*
X116840000Y-73850500D01*
X121285000Y-77279500D02*
X120269000Y-77279500D01*
X122301000Y-89979500D02*
X121285000Y-89979500D01*
X125730000Y-86550500D02*
X122301000Y-89979500D01*
X140849500Y-85795000D02*
X140779500Y-85725000D01*
X140849500Y-92710000D02*
X140849500Y-85795000D01*
X139065000Y-92710000D02*
X140849500Y-92710000D01*
X122301000Y-94170500D02*
X121285000Y-94170500D01*
X125730000Y-97599500D02*
X122301000Y-94170500D01*
X113922900Y-88078400D02*
X119757100Y-88078400D01*
X112395000Y-86550500D02*
X113922900Y-88078400D01*
X121285000Y-86550500D02*
X119757100Y-88078400D01*
X119757100Y-92642600D02*
X121285000Y-94170500D01*
X119757100Y-88078400D02*
X119757100Y-92642600D01*
X120269000Y-97599500D02*
X116840000Y-94170500D01*
X121285000Y-97599500D02*
X120269000Y-97599500D01*
X148590000Y-111624900D02*
X148590000Y-110744000D01*
X140702200Y-119512700D02*
X148590000Y-111624900D01*
X131057400Y-119512700D02*
X140702200Y-119512700D01*
X127610800Y-116066100D02*
X131057400Y-119512700D01*
X127610800Y-112180300D02*
X127610800Y-116066100D01*
X125730000Y-110299500D02*
X127610800Y-112180300D01*
X122301000Y-110299500D02*
X121285000Y-110299500D01*
X125730000Y-106870500D02*
X122301000Y-110299500D01*
X139700000Y-113030000D02*
X140462000Y-113030000D01*
X140462000Y-113030000D02*
X141484500Y-112007500D01*
X141484500Y-106115000D02*
X141414500Y-106045000D01*
X141484500Y-112007500D02*
X141484500Y-106115000D01*
X122301000Y-114490500D02*
X121285000Y-114490500D01*
X125730000Y-117919500D02*
X122301000Y-114490500D01*
X113922900Y-108398400D02*
X119757100Y-108398400D01*
X112395000Y-106870500D02*
X113922900Y-108398400D01*
X121285000Y-106870500D02*
X119757100Y-108398400D01*
X119757100Y-112962600D02*
X121285000Y-114490500D01*
X119757100Y-108398400D02*
X119757100Y-112962600D01*
X161951700Y-120242300D02*
X171450000Y-110744000D01*
X130780700Y-120242300D02*
X161951700Y-120242300D01*
X125730000Y-115191600D02*
X130780700Y-120242300D01*
X125730000Y-114490500D02*
X125730000Y-115191600D01*
X120269000Y-117919500D02*
X121285000Y-117919500D01*
X116840000Y-114490500D02*
X120269000Y-117919500D01*
X172651600Y-120972400D02*
X182880000Y-110744000D01*
X124337900Y-120972400D02*
X172651600Y-120972400D01*
X121285000Y-117919500D02*
X124337900Y-120972400D01*
X139700000Y-69850000D02*
X137985500Y-68135500D01*
X137985500Y-68135500D02*
X137985500Y-65405000D01*
X137915500Y-65475000D02*
X137985500Y-65405000D01*
X150368000Y-53022500D02*
X137985500Y-65405000D01*
X180975000Y-54238700D02*
X178752500Y-52016200D01*
X178752500Y-52016200D02*
X178752500Y-50071200D01*
X178752500Y-50071200D02*
X176666900Y-47985600D01*
X176666900Y-47985600D02*
X161294500Y-47985600D01*
X161294500Y-47985600D02*
X156257600Y-53022500D01*
X156257600Y-53022500D02*
X150368000Y-53022500D01*
X180975000Y-55245000D02*
X180975000Y-54238700D01*
X139065000Y-90170000D02*
X138938000Y-90170000D01*
X138938000Y-90170000D02*
X137280500Y-88512500D01*
X137280500Y-85795000D02*
X137350500Y-85725000D01*
X137280500Y-88512500D02*
X137280500Y-85795000D01*
X152804500Y-72718900D02*
X144221500Y-81301900D01*
X152804500Y-64463300D02*
X152804500Y-72718900D01*
X168570700Y-48697100D02*
X152804500Y-64463300D01*
X172960200Y-48697100D02*
X168570700Y-48697100D01*
X174307600Y-50044500D02*
X172960200Y-48697100D01*
X174307600Y-52016300D02*
X174307600Y-50044500D01*
X176530000Y-54238700D02*
X174307600Y-52016300D01*
X176530000Y-55245000D02*
X176530000Y-54238700D01*
X139700000Y-110490000D02*
X137985500Y-108775500D01*
X137985500Y-108775500D02*
X137985500Y-106045000D01*
X137985500Y-106045000D02*
X137915500Y-106115000D01*
X152525500Y-91505000D02*
X137985500Y-106045000D01*
X172085000Y-55245000D02*
X164234500Y-63095500D01*
X164234500Y-63095500D02*
X164234500Y-70340300D01*
X164234500Y-70340300D02*
X152525500Y-82049300D01*
X152525500Y-82049300D02*
X152525500Y-91505000D01*
X132080000Y-72390000D02*
X132842000Y-72390000D01*
X132842000Y-72390000D02*
X133864500Y-71367500D01*
X133864500Y-71367500D02*
X133864500Y-65475000D01*
X133864500Y-65475000D02*
X133794500Y-65405000D01*
X131445000Y-92710000D02*
X131826000Y-92710000D01*
X131826000Y-92710000D02*
X133229500Y-91306500D01*
X133229500Y-85795000D02*
X133159500Y-85725000D01*
X133229500Y-91306500D02*
X133229500Y-85795000D01*
X132080000Y-113030000D02*
X132842000Y-113030000D01*
X132842000Y-113030000D02*
X133864500Y-112007500D01*
X133864500Y-106115000D02*
X133794500Y-106045000D01*
X133864500Y-112007500D02*
X133864500Y-106115000D01*
X139065000Y-95250000D02*
X138684000Y-95250000D01*
X138684000Y-95250000D02*
X137280500Y-96653500D01*
X96103100Y-77497600D02*
X94615000Y-76009500D01*
X96103100Y-81506400D02*
X96103100Y-77497600D01*
X94615000Y-82994500D02*
X96103100Y-81506400D01*
X139700000Y-115570000D02*
X137915500Y-115570000D01*
X139700000Y-74930000D02*
X141484500Y-74930000D01*
X143473000Y-72941500D02*
X141484500Y-74930000D01*
X143473000Y-62378200D02*
X143473000Y-72941500D01*
X150606200Y-55245000D02*
X143473000Y-62378200D01*
X152400000Y-55245000D02*
X150606200Y-55245000D01*
X140763600Y-99188800D02*
X137280500Y-99188800D01*
X143267900Y-96684500D02*
X140763600Y-99188800D01*
X143267900Y-76713400D02*
X143267900Y-96684500D01*
X141484500Y-74930000D02*
X143267900Y-76713400D01*
X137280500Y-96653500D02*
X137280500Y-99188800D01*
X136475400Y-114129900D02*
X137915500Y-115570000D01*
X136475400Y-99993900D02*
X136475400Y-114129900D01*
X137280500Y-99188800D02*
X136475400Y-99993900D01*
X99695000Y-77470000D02*
X100076000Y-77470000D01*
X100076000Y-77470000D02*
X101479500Y-78873500D01*
X101479500Y-101720500D02*
X100965000Y-102235000D01*
X101479500Y-78873500D02*
X101479500Y-101720500D01*
G36*
X203904741Y-47828602D02*
X204502193Y-48227807D01*
X204901398Y-48825257D01*
X205055000Y-49597467D01*
X205055000Y-119312533D01*
X204901398Y-120084743D01*
X204502193Y-120682193D01*
X203904741Y-121081398D01*
X203132533Y-121235000D01*
X173466630Y-121235000D01*
X176910972Y-117790658D01*
X183946413Y-117790658D01*
X184285985Y-118612485D01*
X184914208Y-119241805D01*
X185735441Y-119582811D01*
X186624658Y-119583587D01*
X187446485Y-119244015D01*
X188075805Y-118615792D01*
X188416811Y-117794559D01*
X188417587Y-116905342D01*
X188278920Y-116569742D01*
X196628954Y-116569742D01*
X196882034Y-117112576D01*
X197323583Y-117517240D01*
X197755260Y-117696036D01*
X197993000Y-117575378D01*
X197993000Y-116332000D01*
X198247000Y-116332000D01*
X198247000Y-117575378D01*
X198484740Y-117696036D01*
X198916417Y-117517240D01*
X199357966Y-117112576D01*
X199611046Y-116569742D01*
X199490997Y-116332000D01*
X198247000Y-116332000D01*
X197993000Y-116332000D01*
X196749003Y-116332000D01*
X196628954Y-116569742D01*
X188278920Y-116569742D01*
X188078015Y-116083515D01*
X187449792Y-115454195D01*
X186628559Y-115113189D01*
X185739342Y-115112413D01*
X184917515Y-115451985D01*
X184288195Y-116080208D01*
X183947189Y-116901441D01*
X183946413Y-117790658D01*
X176910972Y-117790658D01*
X179655318Y-115046312D01*
X191515736Y-115046312D01*
X191747262Y-115606649D01*
X192175596Y-116035731D01*
X192735528Y-116268235D01*
X193341812Y-116268764D01*
X193902149Y-116037238D01*
X194331231Y-115608904D01*
X194563735Y-115048972D01*
X194564167Y-114554000D01*
X196883261Y-114554000D01*
X197034591Y-114780481D01*
X197272582Y-114939501D01*
X196882034Y-115297424D01*
X196628954Y-115840258D01*
X196749003Y-116078000D01*
X197993000Y-116078000D01*
X197993000Y-116058000D01*
X198247000Y-116058000D01*
X198247000Y-116078000D01*
X199490997Y-116078000D01*
X199611046Y-115840258D01*
X199357966Y-115297424D01*
X198967418Y-114939501D01*
X199205409Y-114780481D01*
X199538155Y-114282491D01*
X199655000Y-113695072D01*
X199655000Y-113634928D01*
X199538155Y-113047509D01*
X199257163Y-112626974D01*
X199471441Y-112489090D01*
X199616431Y-112276890D01*
X199667440Y-112025000D01*
X199667440Y-110225000D01*
X199623162Y-109989683D01*
X199484090Y-109773559D01*
X199271890Y-109628569D01*
X199020000Y-109577560D01*
X197352100Y-109577560D01*
X197352100Y-105413692D01*
X197709099Y-105561931D01*
X198780202Y-105562866D01*
X199770130Y-105153836D01*
X200528175Y-104397113D01*
X200938931Y-103407901D01*
X200939866Y-102336798D01*
X200530836Y-101346870D01*
X199774113Y-100588825D01*
X198784901Y-100178069D01*
X197713798Y-100177134D01*
X196723870Y-100586164D01*
X195965825Y-101342887D01*
X195555069Y-102332099D01*
X195554134Y-103403202D01*
X195820079Y-104046838D01*
X195641771Y-104313694D01*
X195574100Y-104653900D01*
X195574100Y-112776000D01*
X194119500Y-112776000D01*
X193779295Y-112843670D01*
X193490882Y-113036382D01*
X193306532Y-113220732D01*
X192738188Y-113220236D01*
X192177851Y-113451762D01*
X191748769Y-113880096D01*
X191516265Y-114440028D01*
X191515736Y-115046312D01*
X179655318Y-115046312D01*
X181746701Y-112954929D01*
X182385232Y-113220070D01*
X183370445Y-113220929D01*
X184280992Y-112844699D01*
X184978251Y-112148656D01*
X185356070Y-111238768D01*
X185356929Y-110253555D01*
X184980699Y-109343008D01*
X184284656Y-108645749D01*
X183679215Y-108394348D01*
X184280992Y-108145699D01*
X184978251Y-107449656D01*
X185192370Y-106934000D01*
X188468000Y-106934000D01*
X188808206Y-106866329D01*
X189096618Y-106673618D01*
X190277095Y-105493141D01*
X191054354Y-105815887D01*
X192226504Y-105816910D01*
X193309821Y-105369293D01*
X193794000Y-104885958D01*
X193794000Y-109483869D01*
X193444549Y-109833321D01*
X193344472Y-109791765D01*
X192738188Y-109791236D01*
X192177851Y-110022762D01*
X191748769Y-110451096D01*
X191516265Y-111011028D01*
X191515736Y-111617312D01*
X191747262Y-112177649D01*
X192175596Y-112606731D01*
X192735528Y-112839235D01*
X193341812Y-112839764D01*
X193902149Y-112608238D01*
X194331231Y-112179904D01*
X194563735Y-111619972D01*
X194564264Y-111013688D01*
X194521921Y-110911210D01*
X195094816Y-110338315D01*
X195193834Y-110190123D01*
X195259996Y-110091105D01*
X195318000Y-109799500D01*
X195318000Y-101687400D01*
X195259996Y-101395795D01*
X195224644Y-101342887D01*
X195094815Y-101148584D01*
X194911202Y-100964971D01*
X195478202Y-100965466D01*
X196468130Y-100556436D01*
X197226175Y-99799713D01*
X197636931Y-98810501D01*
X197637866Y-97739398D01*
X197228836Y-96749470D01*
X196472113Y-95991425D01*
X195482901Y-95580669D01*
X194411798Y-95579734D01*
X193421870Y-95988764D01*
X192663825Y-96745487D01*
X192253069Y-97734699D01*
X192252570Y-98306340D01*
X191689515Y-97743285D01*
X191569360Y-97663000D01*
X191442305Y-97578104D01*
X191150700Y-97520100D01*
X186610730Y-97520100D01*
X182715630Y-93625000D01*
X187997500Y-93625000D01*
X188289105Y-93566996D01*
X188536315Y-93401815D01*
X188863388Y-93074742D01*
X196628954Y-93074742D01*
X196882034Y-93617576D01*
X197323583Y-94022240D01*
X197755260Y-94201036D01*
X197993000Y-94080378D01*
X197993000Y-92837000D01*
X198247000Y-92837000D01*
X198247000Y-94080378D01*
X198484740Y-94201036D01*
X198916417Y-94022240D01*
X199357966Y-93617576D01*
X199611046Y-93074742D01*
X199490997Y-92837000D01*
X198247000Y-92837000D01*
X197993000Y-92837000D01*
X196749003Y-92837000D01*
X196628954Y-93074742D01*
X188863388Y-93074742D01*
X190386818Y-91551312D01*
X191515736Y-91551312D01*
X191747262Y-92111649D01*
X192175596Y-92540731D01*
X192735528Y-92773235D01*
X193341812Y-92773764D01*
X193902149Y-92542238D01*
X194331231Y-92113904D01*
X194563735Y-91553972D01*
X194564264Y-90947688D01*
X194332738Y-90387351D01*
X193904404Y-89958269D01*
X193344472Y-89725765D01*
X192738188Y-89725236D01*
X192177851Y-89956762D01*
X191748769Y-90385096D01*
X191516265Y-90945028D01*
X191515736Y-91551312D01*
X190386818Y-91551312D01*
X192635451Y-89302679D01*
X192735528Y-89344235D01*
X193341812Y-89344764D01*
X193902149Y-89113238D01*
X194331231Y-88684904D01*
X194563735Y-88124972D01*
X194564264Y-87518688D01*
X194332738Y-86958351D01*
X193904404Y-86529269D01*
X193344472Y-86296765D01*
X192738188Y-86296236D01*
X192177851Y-86527762D01*
X191748769Y-86956096D01*
X191516265Y-87516028D01*
X191515736Y-88122312D01*
X191558079Y-88224791D01*
X187681870Y-92101000D01*
X184705431Y-92101000D01*
X184978251Y-91828656D01*
X185356070Y-90918768D01*
X185356929Y-89933555D01*
X184980699Y-89023008D01*
X184284656Y-88325749D01*
X183679215Y-88074348D01*
X184280992Y-87825699D01*
X184978251Y-87129656D01*
X185356070Y-86219768D01*
X185356929Y-85234555D01*
X185143710Y-84718526D01*
X189049182Y-80813054D01*
X189143707Y-81041821D01*
X189971820Y-81871380D01*
X191054354Y-82320887D01*
X192226504Y-82321910D01*
X193309821Y-81874293D01*
X194139380Y-81046180D01*
X194588887Y-79963646D01*
X194589910Y-78791496D01*
X194142293Y-77708179D01*
X193547922Y-77112770D01*
X194407099Y-77469531D01*
X195478202Y-77470466D01*
X196116776Y-77206612D01*
X196362284Y-77452120D01*
X195965825Y-77847887D01*
X195555069Y-78837099D01*
X195554134Y-79908202D01*
X195963164Y-80898130D01*
X196719887Y-81656175D01*
X197709099Y-82066931D01*
X198780202Y-82067866D01*
X199418776Y-81804012D01*
X200787000Y-83172236D01*
X200787000Y-88023764D01*
X199529764Y-89281000D01*
X199356739Y-89281000D01*
X199257163Y-89131974D01*
X199471441Y-88994090D01*
X199616431Y-88781890D01*
X199667440Y-88530000D01*
X199667440Y-86730000D01*
X199623162Y-86494683D01*
X199484090Y-86278559D01*
X199271890Y-86133569D01*
X199020000Y-86082560D01*
X197220000Y-86082560D01*
X196984683Y-86126838D01*
X196768559Y-86265910D01*
X196623569Y-86478110D01*
X196572560Y-86730000D01*
X196572560Y-88530000D01*
X196616838Y-88765317D01*
X196755910Y-88981441D01*
X196968110Y-89126431D01*
X196984344Y-89129719D01*
X196701845Y-89552509D01*
X196585000Y-90139928D01*
X196585000Y-90200072D01*
X196701845Y-90787491D01*
X197034591Y-91285481D01*
X197272582Y-91444501D01*
X196882034Y-91802424D01*
X196628954Y-92345258D01*
X196749003Y-92583000D01*
X197993000Y-92583000D01*
X197993000Y-92563000D01*
X198247000Y-92563000D01*
X198247000Y-92583000D01*
X199490997Y-92583000D01*
X199611046Y-92345258D01*
X199357966Y-91802424D01*
X198967418Y-91444501D01*
X199205409Y-91285481D01*
X199356739Y-91059000D01*
X199898000Y-91059000D01*
X200238206Y-90991329D01*
X200526618Y-90798618D01*
X202304618Y-89020618D01*
X202372812Y-88918559D01*
X202497329Y-88732206D01*
X202565000Y-88392000D01*
X202565000Y-82804000D01*
X202497329Y-82463794D01*
X202304618Y-82175382D01*
X200675808Y-80546572D01*
X200938931Y-79912901D01*
X200939866Y-78841798D01*
X200530836Y-77851870D01*
X199774113Y-77093825D01*
X198784901Y-76683069D01*
X198107113Y-76682477D01*
X197373808Y-75949172D01*
X197636931Y-75315501D01*
X197637866Y-74244398D01*
X197228836Y-73254470D01*
X196472113Y-72496425D01*
X195482901Y-72085669D01*
X194411798Y-72084734D01*
X193421870Y-72493764D01*
X192663825Y-73250487D01*
X192253069Y-74239699D01*
X192252134Y-75310802D01*
X192661164Y-76300730D01*
X193184145Y-76824625D01*
X192231646Y-76429113D01*
X191059496Y-76428090D01*
X190119000Y-76816695D01*
X190119000Y-69579742D01*
X196628954Y-69579742D01*
X196882034Y-70122576D01*
X197323583Y-70527240D01*
X197755260Y-70706036D01*
X197993000Y-70585378D01*
X197993000Y-69342000D01*
X198247000Y-69342000D01*
X198247000Y-70585378D01*
X198484740Y-70706036D01*
X198916417Y-70527240D01*
X199357966Y-70122576D01*
X199611046Y-69579742D01*
X199490997Y-69342000D01*
X198247000Y-69342000D01*
X197993000Y-69342000D01*
X196749003Y-69342000D01*
X196628954Y-69579742D01*
X190119000Y-69579742D01*
X190119000Y-66929000D01*
X191732615Y-66929000D01*
X191516265Y-67450028D01*
X191515736Y-68056312D01*
X191747262Y-68616649D01*
X192175596Y-69045731D01*
X192735528Y-69278235D01*
X193341812Y-69278764D01*
X193902149Y-69047238D01*
X194331231Y-68618904D01*
X194333876Y-68612534D01*
X194518406Y-68575829D01*
X194806818Y-68383118D01*
X196452900Y-66737036D01*
X196625738Y-66909874D01*
X196701845Y-67292491D01*
X197034591Y-67790481D01*
X197272582Y-67949501D01*
X196882034Y-68307424D01*
X196628954Y-68850258D01*
X196749003Y-69088000D01*
X197993000Y-69088000D01*
X197993000Y-69068000D01*
X198247000Y-69068000D01*
X198247000Y-69088000D01*
X199490997Y-69088000D01*
X199611046Y-68850258D01*
X199357966Y-68307424D01*
X198967418Y-67949501D01*
X199205409Y-67790481D01*
X199538155Y-67292491D01*
X199655000Y-66705072D01*
X199655000Y-66644928D01*
X199538155Y-66057509D01*
X199257163Y-65636974D01*
X199471441Y-65499090D01*
X199616431Y-65286890D01*
X199667440Y-65035000D01*
X199667440Y-63235000D01*
X199623162Y-62999683D01*
X199484090Y-62783559D01*
X199271890Y-62638569D01*
X199020000Y-62587560D01*
X197341900Y-62587560D01*
X197341900Y-58419457D01*
X197709099Y-58571931D01*
X198780202Y-58572866D01*
X199770130Y-58163836D01*
X200528175Y-57407113D01*
X200938931Y-56417901D01*
X200939866Y-55346798D01*
X200530836Y-54356870D01*
X199774113Y-53598825D01*
X198784901Y-53188069D01*
X198107113Y-53187477D01*
X197373808Y-52454172D01*
X197636931Y-51820501D01*
X197637866Y-50749398D01*
X197228836Y-49759470D01*
X196472113Y-49001425D01*
X195482901Y-48590669D01*
X194411798Y-48589734D01*
X193421870Y-48998764D01*
X192663825Y-49755487D01*
X192253069Y-50744699D01*
X192252134Y-51815802D01*
X192661164Y-52805730D01*
X193184145Y-53329625D01*
X192231646Y-52934113D01*
X191059496Y-52933090D01*
X189976179Y-53380707D01*
X189146620Y-54208820D01*
X188697113Y-55291354D01*
X188696090Y-56463504D01*
X189143707Y-57546821D01*
X189971820Y-58376380D01*
X191054354Y-58825887D01*
X192226504Y-58826910D01*
X193009250Y-58503486D01*
X193786200Y-59280436D01*
X193786200Y-62785568D01*
X193743996Y-62573395D01*
X193622460Y-62391504D01*
X193578816Y-62326185D01*
X183257289Y-52004658D01*
X184454413Y-52004658D01*
X184793985Y-52826485D01*
X185422208Y-53455805D01*
X186243441Y-53796811D01*
X187132658Y-53797587D01*
X187954485Y-53458015D01*
X188583805Y-52829792D01*
X188924811Y-52008559D01*
X188925587Y-51119342D01*
X188586015Y-50297515D01*
X187957792Y-49668195D01*
X187136559Y-49327189D01*
X186247342Y-49326413D01*
X185425515Y-49665985D01*
X184796195Y-50294208D01*
X184455189Y-51115441D01*
X184454413Y-52004658D01*
X183257289Y-52004658D01*
X182924649Y-51672019D01*
X183109628Y-51226541D01*
X183110370Y-50377185D01*
X182786020Y-49592200D01*
X182185959Y-48991091D01*
X181401541Y-48665372D01*
X180552185Y-48664630D01*
X179767200Y-48988980D01*
X179257111Y-49498180D01*
X177433930Y-47675000D01*
X203132533Y-47675000D01*
X203904741Y-47828602D01*
X203904741Y-47828602D01*
G37*
X203904741Y-47828602D02*
X204502193Y-48227807D01*
X204901398Y-48825257D01*
X205055000Y-49597467D01*
X205055000Y-119312533D01*
X204901398Y-120084743D01*
X204502193Y-120682193D01*
X203904741Y-121081398D01*
X203132533Y-121235000D01*
X173466630Y-121235000D01*
X176910972Y-117790658D01*
X183946413Y-117790658D01*
X184285985Y-118612485D01*
X184914208Y-119241805D01*
X185735441Y-119582811D01*
X186624658Y-119583587D01*
X187446485Y-119244015D01*
X188075805Y-118615792D01*
X188416811Y-117794559D01*
X188417587Y-116905342D01*
X188278920Y-116569742D01*
X196628954Y-116569742D01*
X196882034Y-117112576D01*
X197323583Y-117517240D01*
X197755260Y-117696036D01*
X197993000Y-117575378D01*
X197993000Y-116332000D01*
X198247000Y-116332000D01*
X198247000Y-117575378D01*
X198484740Y-117696036D01*
X198916417Y-117517240D01*
X199357966Y-117112576D01*
X199611046Y-116569742D01*
X199490997Y-116332000D01*
X198247000Y-116332000D01*
X197993000Y-116332000D01*
X196749003Y-116332000D01*
X196628954Y-116569742D01*
X188278920Y-116569742D01*
X188078015Y-116083515D01*
X187449792Y-115454195D01*
X186628559Y-115113189D01*
X185739342Y-115112413D01*
X184917515Y-115451985D01*
X184288195Y-116080208D01*
X183947189Y-116901441D01*
X183946413Y-117790658D01*
X176910972Y-117790658D01*
X179655318Y-115046312D01*
X191515736Y-115046312D01*
X191747262Y-115606649D01*
X192175596Y-116035731D01*
X192735528Y-116268235D01*
X193341812Y-116268764D01*
X193902149Y-116037238D01*
X194331231Y-115608904D01*
X194563735Y-115048972D01*
X194564167Y-114554000D01*
X196883261Y-114554000D01*
X197034591Y-114780481D01*
X197272582Y-114939501D01*
X196882034Y-115297424D01*
X196628954Y-115840258D01*
X196749003Y-116078000D01*
X197993000Y-116078000D01*
X197993000Y-116058000D01*
X198247000Y-116058000D01*
X198247000Y-116078000D01*
X199490997Y-116078000D01*
X199611046Y-115840258D01*
X199357966Y-115297424D01*
X198967418Y-114939501D01*
X199205409Y-114780481D01*
X199538155Y-114282491D01*
X199655000Y-113695072D01*
X199655000Y-113634928D01*
X199538155Y-113047509D01*
X199257163Y-112626974D01*
X199471441Y-112489090D01*
X199616431Y-112276890D01*
X199667440Y-112025000D01*
X199667440Y-110225000D01*
X199623162Y-109989683D01*
X199484090Y-109773559D01*
X199271890Y-109628569D01*
X199020000Y-109577560D01*
X197352100Y-109577560D01*
X197352100Y-105413692D01*
X197709099Y-105561931D01*
X198780202Y-105562866D01*
X199770130Y-105153836D01*
X200528175Y-104397113D01*
X200938931Y-103407901D01*
X200939866Y-102336798D01*
X200530836Y-101346870D01*
X199774113Y-100588825D01*
X198784901Y-100178069D01*
X197713798Y-100177134D01*
X196723870Y-100586164D01*
X195965825Y-101342887D01*
X195555069Y-102332099D01*
X195554134Y-103403202D01*
X195820079Y-104046838D01*
X195641771Y-104313694D01*
X195574100Y-104653900D01*
X195574100Y-112776000D01*
X194119500Y-112776000D01*
X193779295Y-112843670D01*
X193490882Y-113036382D01*
X193306532Y-113220732D01*
X192738188Y-113220236D01*
X192177851Y-113451762D01*
X191748769Y-113880096D01*
X191516265Y-114440028D01*
X191515736Y-115046312D01*
X179655318Y-115046312D01*
X181746701Y-112954929D01*
X182385232Y-113220070D01*
X183370445Y-113220929D01*
X184280992Y-112844699D01*
X184978251Y-112148656D01*
X185356070Y-111238768D01*
X185356929Y-110253555D01*
X184980699Y-109343008D01*
X184284656Y-108645749D01*
X183679215Y-108394348D01*
X184280992Y-108145699D01*
X184978251Y-107449656D01*
X185192370Y-106934000D01*
X188468000Y-106934000D01*
X188808206Y-106866329D01*
X189096618Y-106673618D01*
X190277095Y-105493141D01*
X191054354Y-105815887D01*
X192226504Y-105816910D01*
X193309821Y-105369293D01*
X193794000Y-104885958D01*
X193794000Y-109483869D01*
X193444549Y-109833321D01*
X193344472Y-109791765D01*
X192738188Y-109791236D01*
X192177851Y-110022762D01*
X191748769Y-110451096D01*
X191516265Y-111011028D01*
X191515736Y-111617312D01*
X191747262Y-112177649D01*
X192175596Y-112606731D01*
X192735528Y-112839235D01*
X193341812Y-112839764D01*
X193902149Y-112608238D01*
X194331231Y-112179904D01*
X194563735Y-111619972D01*
X194564264Y-111013688D01*
X194521921Y-110911210D01*
X195094816Y-110338315D01*
X195193834Y-110190123D01*
X195259996Y-110091105D01*
X195318000Y-109799500D01*
X195318000Y-101687400D01*
X195259996Y-101395795D01*
X195224644Y-101342887D01*
X195094815Y-101148584D01*
X194911202Y-100964971D01*
X195478202Y-100965466D01*
X196468130Y-100556436D01*
X197226175Y-99799713D01*
X197636931Y-98810501D01*
X197637866Y-97739398D01*
X197228836Y-96749470D01*
X196472113Y-95991425D01*
X195482901Y-95580669D01*
X194411798Y-95579734D01*
X193421870Y-95988764D01*
X192663825Y-96745487D01*
X192253069Y-97734699D01*
X192252570Y-98306340D01*
X191689515Y-97743285D01*
X191569360Y-97663000D01*
X191442305Y-97578104D01*
X191150700Y-97520100D01*
X186610730Y-97520100D01*
X182715630Y-93625000D01*
X187997500Y-93625000D01*
X188289105Y-93566996D01*
X188536315Y-93401815D01*
X188863388Y-93074742D01*
X196628954Y-93074742D01*
X196882034Y-93617576D01*
X197323583Y-94022240D01*
X197755260Y-94201036D01*
X197993000Y-94080378D01*
X197993000Y-92837000D01*
X198247000Y-92837000D01*
X198247000Y-94080378D01*
X198484740Y-94201036D01*
X198916417Y-94022240D01*
X199357966Y-93617576D01*
X199611046Y-93074742D01*
X199490997Y-92837000D01*
X198247000Y-92837000D01*
X197993000Y-92837000D01*
X196749003Y-92837000D01*
X196628954Y-93074742D01*
X188863388Y-93074742D01*
X190386818Y-91551312D01*
X191515736Y-91551312D01*
X191747262Y-92111649D01*
X192175596Y-92540731D01*
X192735528Y-92773235D01*
X193341812Y-92773764D01*
X193902149Y-92542238D01*
X194331231Y-92113904D01*
X194563735Y-91553972D01*
X194564264Y-90947688D01*
X194332738Y-90387351D01*
X193904404Y-89958269D01*
X193344472Y-89725765D01*
X192738188Y-89725236D01*
X192177851Y-89956762D01*
X191748769Y-90385096D01*
X191516265Y-90945028D01*
X191515736Y-91551312D01*
X190386818Y-91551312D01*
X192635451Y-89302679D01*
X192735528Y-89344235D01*
X193341812Y-89344764D01*
X193902149Y-89113238D01*
X194331231Y-88684904D01*
X194563735Y-88124972D01*
X194564264Y-87518688D01*
X194332738Y-86958351D01*
X193904404Y-86529269D01*
X193344472Y-86296765D01*
X192738188Y-86296236D01*
X192177851Y-86527762D01*
X191748769Y-86956096D01*
X191516265Y-87516028D01*
X191515736Y-88122312D01*
X191558079Y-88224791D01*
X187681870Y-92101000D01*
X184705431Y-92101000D01*
X184978251Y-91828656D01*
X185356070Y-90918768D01*
X185356929Y-89933555D01*
X184980699Y-89023008D01*
X184284656Y-88325749D01*
X183679215Y-88074348D01*
X184280992Y-87825699D01*
X184978251Y-87129656D01*
X185356070Y-86219768D01*
X185356929Y-85234555D01*
X185143710Y-84718526D01*
X189049182Y-80813054D01*
X189143707Y-81041821D01*
X189971820Y-81871380D01*
X191054354Y-82320887D01*
X192226504Y-82321910D01*
X193309821Y-81874293D01*
X194139380Y-81046180D01*
X194588887Y-79963646D01*
X194589910Y-78791496D01*
X194142293Y-77708179D01*
X193547922Y-77112770D01*
X194407099Y-77469531D01*
X195478202Y-77470466D01*
X196116776Y-77206612D01*
X196362284Y-77452120D01*
X195965825Y-77847887D01*
X195555069Y-78837099D01*
X195554134Y-79908202D01*
X195963164Y-80898130D01*
X196719887Y-81656175D01*
X197709099Y-82066931D01*
X198780202Y-82067866D01*
X199418776Y-81804012D01*
X200787000Y-83172236D01*
X200787000Y-88023764D01*
X199529764Y-89281000D01*
X199356739Y-89281000D01*
X199257163Y-89131974D01*
X199471441Y-88994090D01*
X199616431Y-88781890D01*
X199667440Y-88530000D01*
X199667440Y-86730000D01*
X199623162Y-86494683D01*
X199484090Y-86278559D01*
X199271890Y-86133569D01*
X199020000Y-86082560D01*
X197220000Y-86082560D01*
X196984683Y-86126838D01*
X196768559Y-86265910D01*
X196623569Y-86478110D01*
X196572560Y-86730000D01*
X196572560Y-88530000D01*
X196616838Y-88765317D01*
X196755910Y-88981441D01*
X196968110Y-89126431D01*
X196984344Y-89129719D01*
X196701845Y-89552509D01*
X196585000Y-90139928D01*
X196585000Y-90200072D01*
X196701845Y-90787491D01*
X197034591Y-91285481D01*
X197272582Y-91444501D01*
X196882034Y-91802424D01*
X196628954Y-92345258D01*
X196749003Y-92583000D01*
X197993000Y-92583000D01*
X197993000Y-92563000D01*
X198247000Y-92563000D01*
X198247000Y-92583000D01*
X199490997Y-92583000D01*
X199611046Y-92345258D01*
X199357966Y-91802424D01*
X198967418Y-91444501D01*
X199205409Y-91285481D01*
X199356739Y-91059000D01*
X199898000Y-91059000D01*
X200238206Y-90991329D01*
X200526618Y-90798618D01*
X202304618Y-89020618D01*
X202372812Y-88918559D01*
X202497329Y-88732206D01*
X202565000Y-88392000D01*
X202565000Y-82804000D01*
X202497329Y-82463794D01*
X202304618Y-82175382D01*
X200675808Y-80546572D01*
X200938931Y-79912901D01*
X200939866Y-78841798D01*
X200530836Y-77851870D01*
X199774113Y-77093825D01*
X198784901Y-76683069D01*
X198107113Y-76682477D01*
X197373808Y-75949172D01*
X197636931Y-75315501D01*
X197637866Y-74244398D01*
X197228836Y-73254470D01*
X196472113Y-72496425D01*
X195482901Y-72085669D01*
X194411798Y-72084734D01*
X193421870Y-72493764D01*
X192663825Y-73250487D01*
X192253069Y-74239699D01*
X192252134Y-75310802D01*
X192661164Y-76300730D01*
X193184145Y-76824625D01*
X192231646Y-76429113D01*
X191059496Y-76428090D01*
X190119000Y-76816695D01*
X190119000Y-69579742D01*
X196628954Y-69579742D01*
X196882034Y-70122576D01*
X197323583Y-70527240D01*
X197755260Y-70706036D01*
X197993000Y-70585378D01*
X197993000Y-69342000D01*
X198247000Y-69342000D01*
X198247000Y-70585378D01*
X198484740Y-70706036D01*
X198916417Y-70527240D01*
X199357966Y-70122576D01*
X199611046Y-69579742D01*
X199490997Y-69342000D01*
X198247000Y-69342000D01*
X197993000Y-69342000D01*
X196749003Y-69342000D01*
X196628954Y-69579742D01*
X190119000Y-69579742D01*
X190119000Y-66929000D01*
X191732615Y-66929000D01*
X191516265Y-67450028D01*
X191515736Y-68056312D01*
X191747262Y-68616649D01*
X192175596Y-69045731D01*
X192735528Y-69278235D01*
X193341812Y-69278764D01*
X193902149Y-69047238D01*
X194331231Y-68618904D01*
X194333876Y-68612534D01*
X194518406Y-68575829D01*
X194806818Y-68383118D01*
X196452900Y-66737036D01*
X196625738Y-66909874D01*
X196701845Y-67292491D01*
X197034591Y-67790481D01*
X197272582Y-67949501D01*
X196882034Y-68307424D01*
X196628954Y-68850258D01*
X196749003Y-69088000D01*
X197993000Y-69088000D01*
X197993000Y-69068000D01*
X198247000Y-69068000D01*
X198247000Y-69088000D01*
X199490997Y-69088000D01*
X199611046Y-68850258D01*
X199357966Y-68307424D01*
X198967418Y-67949501D01*
X199205409Y-67790481D01*
X199538155Y-67292491D01*
X199655000Y-66705072D01*
X199655000Y-66644928D01*
X199538155Y-66057509D01*
X199257163Y-65636974D01*
X199471441Y-65499090D01*
X199616431Y-65286890D01*
X199667440Y-65035000D01*
X199667440Y-63235000D01*
X199623162Y-62999683D01*
X199484090Y-62783559D01*
X199271890Y-62638569D01*
X199020000Y-62587560D01*
X197341900Y-62587560D01*
X197341900Y-58419457D01*
X197709099Y-58571931D01*
X198780202Y-58572866D01*
X199770130Y-58163836D01*
X200528175Y-57407113D01*
X200938931Y-56417901D01*
X200939866Y-55346798D01*
X200530836Y-54356870D01*
X199774113Y-53598825D01*
X198784901Y-53188069D01*
X198107113Y-53187477D01*
X197373808Y-52454172D01*
X197636931Y-51820501D01*
X197637866Y-50749398D01*
X197228836Y-49759470D01*
X196472113Y-49001425D01*
X195482901Y-48590669D01*
X194411798Y-48589734D01*
X193421870Y-48998764D01*
X192663825Y-49755487D01*
X192253069Y-50744699D01*
X192252134Y-51815802D01*
X192661164Y-52805730D01*
X193184145Y-53329625D01*
X192231646Y-52934113D01*
X191059496Y-52933090D01*
X189976179Y-53380707D01*
X189146620Y-54208820D01*
X188697113Y-55291354D01*
X188696090Y-56463504D01*
X189143707Y-57546821D01*
X189971820Y-58376380D01*
X191054354Y-58825887D01*
X192226504Y-58826910D01*
X193009250Y-58503486D01*
X193786200Y-59280436D01*
X193786200Y-62785568D01*
X193743996Y-62573395D01*
X193622460Y-62391504D01*
X193578816Y-62326185D01*
X183257289Y-52004658D01*
X184454413Y-52004658D01*
X184793985Y-52826485D01*
X185422208Y-53455805D01*
X186243441Y-53796811D01*
X187132658Y-53797587D01*
X187954485Y-53458015D01*
X188583805Y-52829792D01*
X188924811Y-52008559D01*
X188925587Y-51119342D01*
X188586015Y-50297515D01*
X187957792Y-49668195D01*
X187136559Y-49327189D01*
X186247342Y-49326413D01*
X185425515Y-49665985D01*
X184796195Y-50294208D01*
X184455189Y-51115441D01*
X184454413Y-52004658D01*
X183257289Y-52004658D01*
X182924649Y-51672019D01*
X183109628Y-51226541D01*
X183110370Y-50377185D01*
X182786020Y-49592200D01*
X182185959Y-48991091D01*
X181401541Y-48665372D01*
X180552185Y-48664630D01*
X179767200Y-48988980D01*
X179257111Y-49498180D01*
X177433930Y-47675000D01*
X203132533Y-47675000D01*
X203904741Y-47828602D01*
G36*
X155941970Y-52260500D02*
X153958932Y-52260500D01*
X154208909Y-52010959D01*
X154534628Y-51226541D01*
X154535370Y-50377185D01*
X154211020Y-49592200D01*
X153610959Y-48991091D01*
X152826541Y-48665372D01*
X151977185Y-48664630D01*
X151192200Y-48988980D01*
X150591091Y-49589041D01*
X150265372Y-50373459D01*
X150264630Y-51222815D01*
X150588980Y-52007800D01*
X150841239Y-52260500D01*
X150368000Y-52260500D01*
X150076395Y-52318504D01*
X149829184Y-52483685D01*
X138390049Y-63922821D01*
X138289972Y-63881265D01*
X137683688Y-63880736D01*
X137123351Y-64112262D01*
X136694269Y-64540596D01*
X136461765Y-65100528D01*
X136461236Y-65706812D01*
X136692762Y-66267149D01*
X137121096Y-66696231D01*
X137223500Y-66738753D01*
X137223500Y-68135500D01*
X137281504Y-68427105D01*
X137426095Y-68643500D01*
X137446685Y-68674315D01*
X137852560Y-69080190D01*
X137852560Y-70650000D01*
X137896838Y-70885317D01*
X138035910Y-71101441D01*
X138248110Y-71246431D01*
X138397074Y-71276597D01*
X138249352Y-71375302D01*
X137938283Y-71840849D01*
X137829050Y-72390000D01*
X137938283Y-72939151D01*
X138249352Y-73404698D01*
X138631438Y-73660000D01*
X138249352Y-73915302D01*
X137938283Y-74380849D01*
X137829050Y-74930000D01*
X137938283Y-75479151D01*
X138249352Y-75944698D01*
X138627707Y-76197507D01*
X138195500Y-76545104D01*
X137925633Y-77038181D01*
X137908096Y-77120961D01*
X138030085Y-77343000D01*
X139573000Y-77343000D01*
X139573000Y-77323000D01*
X139827000Y-77323000D01*
X139827000Y-77343000D01*
X141369915Y-77343000D01*
X141491904Y-77120961D01*
X141474367Y-77038181D01*
X141204500Y-76545104D01*
X140772293Y-76197507D01*
X141150648Y-75944698D01*
X141259163Y-75782294D01*
X142505900Y-77029031D01*
X142505900Y-96368870D01*
X140813937Y-98060833D01*
X140734915Y-97917000D01*
X139192000Y-97917000D01*
X139192000Y-97937000D01*
X138938000Y-97937000D01*
X138938000Y-97917000D01*
X138918000Y-97917000D01*
X138918000Y-97663000D01*
X138938000Y-97663000D01*
X138938000Y-97643000D01*
X139192000Y-97643000D01*
X139192000Y-97663000D01*
X140734915Y-97663000D01*
X140856904Y-97440961D01*
X140839367Y-97358181D01*
X140569500Y-96865104D01*
X140137293Y-96517507D01*
X140515648Y-96264698D01*
X140826717Y-95799151D01*
X140935950Y-95250000D01*
X140826717Y-94700849D01*
X140515648Y-94235302D01*
X140133562Y-93980000D01*
X140515648Y-93724698D01*
X140684496Y-93472000D01*
X140849500Y-93472000D01*
X141141105Y-93413996D01*
X141388315Y-93248815D01*
X141553496Y-93001605D01*
X141611500Y-92710000D01*
X141611500Y-87030195D01*
X141641649Y-87017738D01*
X142070731Y-86589404D01*
X142303235Y-86029472D01*
X142303764Y-85423188D01*
X142072238Y-84862851D01*
X141643904Y-84433769D01*
X141083972Y-84201265D01*
X140477688Y-84200736D01*
X139917351Y-84432262D01*
X139488269Y-84860596D01*
X139255765Y-85420528D01*
X139255236Y-86026812D01*
X139486762Y-86587149D01*
X139915096Y-87016231D01*
X140087500Y-87087819D01*
X140087500Y-88722560D01*
X138568190Y-88722560D01*
X138042500Y-88196870D01*
X138042500Y-87088042D01*
X138212649Y-87017738D01*
X138641731Y-86589404D01*
X138874235Y-86029472D01*
X138874764Y-85423188D01*
X138643238Y-84862851D01*
X138214904Y-84433769D01*
X137654972Y-84201265D01*
X137048688Y-84200736D01*
X136488351Y-84432262D01*
X136059269Y-84860596D01*
X135826765Y-85420528D01*
X135826236Y-86026812D01*
X136057762Y-86587149D01*
X136486096Y-87016231D01*
X136518500Y-87029686D01*
X136518500Y-88512500D01*
X136576504Y-88804105D01*
X136720323Y-89019344D01*
X136741685Y-89051315D01*
X137217560Y-89527190D01*
X137217560Y-90970000D01*
X137261838Y-91205317D01*
X137400910Y-91421441D01*
X137613110Y-91566431D01*
X137762074Y-91596597D01*
X137614352Y-91695302D01*
X137303283Y-92160849D01*
X137194050Y-92710000D01*
X137303283Y-93259151D01*
X137614352Y-93724698D01*
X137996438Y-93980000D01*
X137614352Y-94235302D01*
X137303283Y-94700849D01*
X137194050Y-95250000D01*
X137262458Y-95593911D01*
X136741685Y-96114685D01*
X136576504Y-96361895D01*
X136518500Y-96653500D01*
X136518500Y-98873169D01*
X135936585Y-99455085D01*
X135931372Y-99462887D01*
X135926159Y-99455085D01*
X135833415Y-99316284D01*
X134307130Y-97790000D01*
X135172016Y-96925115D01*
X135337197Y-96677904D01*
X135395200Y-96386300D01*
X135395200Y-78238700D01*
X135337196Y-77947095D01*
X135251632Y-77819039D01*
X137908096Y-77819039D01*
X137925633Y-77901819D01*
X138195500Y-78394896D01*
X138633517Y-78747166D01*
X139173000Y-78905000D01*
X139573000Y-78905000D01*
X139573000Y-77597000D01*
X139827000Y-77597000D01*
X139827000Y-78905000D01*
X140227000Y-78905000D01*
X140766483Y-78747166D01*
X141204500Y-78394896D01*
X141474367Y-77901819D01*
X141491904Y-77819039D01*
X141369915Y-77597000D01*
X139827000Y-77597000D01*
X139573000Y-77597000D01*
X138030085Y-77597000D01*
X137908096Y-77819039D01*
X135251632Y-77819039D01*
X135172015Y-77699885D01*
X134942130Y-77470000D01*
X135830815Y-76581315D01*
X135937403Y-76421795D01*
X135995996Y-76334105D01*
X136054000Y-76042500D01*
X136054000Y-60373831D01*
X136117149Y-60347738D01*
X136546231Y-59919404D01*
X136778735Y-59359472D01*
X136779264Y-58753188D01*
X136547738Y-58192851D01*
X136119404Y-57763769D01*
X135694169Y-57587196D01*
X136902409Y-57587196D01*
X136987467Y-57842539D01*
X137556965Y-58050516D01*
X138162700Y-58024723D01*
X138602533Y-57842539D01*
X138687591Y-57587196D01*
X137795000Y-56694605D01*
X136902409Y-57587196D01*
X135694169Y-57587196D01*
X135559472Y-57531265D01*
X134953188Y-57530736D01*
X134392851Y-57762262D01*
X133963769Y-58190596D01*
X133731265Y-58750528D01*
X133730736Y-59356812D01*
X133962262Y-59917149D01*
X134390596Y-60346231D01*
X134530000Y-60404117D01*
X134530000Y-64060243D01*
X134098972Y-63881265D01*
X133492688Y-63880736D01*
X132932351Y-64112262D01*
X132503269Y-64540596D01*
X132270765Y-65100528D01*
X132270236Y-65706812D01*
X132501762Y-66267149D01*
X132930096Y-66696231D01*
X133102500Y-66767819D01*
X133102500Y-68549222D01*
X133065101Y-68524233D01*
X132515950Y-68415000D01*
X131644050Y-68415000D01*
X131094899Y-68524233D01*
X130629352Y-68835302D01*
X130318283Y-69300849D01*
X130245870Y-69664894D01*
X129539882Y-70370882D01*
X129347171Y-70659294D01*
X129279500Y-70999500D01*
X129279500Y-80667000D01*
X129347171Y-81007206D01*
X129509924Y-81250782D01*
X129539882Y-81295618D01*
X130491900Y-82247636D01*
X130491900Y-84390998D01*
X130034972Y-84201265D01*
X129428688Y-84200736D01*
X128868351Y-84432262D01*
X128439269Y-84860596D01*
X128206765Y-85420528D01*
X128206236Y-86026812D01*
X128437762Y-86587149D01*
X128866096Y-87016231D01*
X129426028Y-87248735D01*
X130032312Y-87249264D01*
X130491900Y-87059367D01*
X130491900Y-88195764D01*
X128904882Y-89782782D01*
X128712171Y-90071194D01*
X128644500Y-90411400D01*
X128644500Y-99557200D01*
X128712171Y-99897406D01*
X128878747Y-100146704D01*
X128904882Y-100185818D01*
X132443464Y-103724400D01*
X131451382Y-104716482D01*
X131347653Y-104871723D01*
X131229904Y-104753769D01*
X130669972Y-104521265D01*
X130063688Y-104520736D01*
X129503351Y-104752262D01*
X129074269Y-105180596D01*
X128841765Y-105740528D01*
X128841236Y-106346812D01*
X129072762Y-106907149D01*
X129501096Y-107336231D01*
X130061028Y-107568735D01*
X130667312Y-107569264D01*
X131191000Y-107352881D01*
X131191000Y-109145117D01*
X131094899Y-109164233D01*
X130629352Y-109475302D01*
X130318283Y-109940849D01*
X130209050Y-110490000D01*
X130318283Y-111039151D01*
X130629352Y-111504698D01*
X131011438Y-111760000D01*
X130629352Y-112015302D01*
X130318283Y-112480849D01*
X130209050Y-113030000D01*
X130318283Y-113579151D01*
X130629352Y-114044698D01*
X131011438Y-114300000D01*
X130629352Y-114555302D01*
X130318283Y-115020849D01*
X130209050Y-115570000D01*
X130318283Y-116119151D01*
X130629352Y-116584698D01*
X131011438Y-116840000D01*
X130629352Y-117095302D01*
X130318283Y-117560849D01*
X130295868Y-117673537D01*
X128372800Y-115750470D01*
X128372800Y-112180300D01*
X128314796Y-111888695D01*
X128149615Y-111641485D01*
X127212179Y-110704049D01*
X127253735Y-110603972D01*
X127254264Y-109997688D01*
X127022738Y-109437351D01*
X126594404Y-109008269D01*
X126034472Y-108775765D01*
X125428188Y-108775236D01*
X124867851Y-109006762D01*
X124438769Y-109435096D01*
X124206265Y-109995028D01*
X124205736Y-110601312D01*
X124437262Y-111161649D01*
X124865596Y-111590731D01*
X125425528Y-111823235D01*
X126031812Y-111823764D01*
X126134291Y-111781421D01*
X126848800Y-112495930D01*
X126848800Y-113454109D01*
X126594404Y-113199269D01*
X126034472Y-112966765D01*
X125428188Y-112966236D01*
X124867851Y-113197762D01*
X124438769Y-113626096D01*
X124206265Y-114186028D01*
X124205736Y-114792312D01*
X124437262Y-115352649D01*
X124865596Y-115781731D01*
X125425528Y-116014235D01*
X125475048Y-116014278D01*
X125856379Y-116395610D01*
X125428188Y-116395236D01*
X125325710Y-116437579D01*
X122839815Y-113951685D01*
X122662338Y-113833098D01*
X122577738Y-113628351D01*
X122149404Y-113199269D01*
X121589472Y-112966765D01*
X120983188Y-112966236D01*
X120880709Y-113008579D01*
X120519100Y-112646970D01*
X120519100Y-111631633D01*
X120980528Y-111823235D01*
X121586812Y-111823764D01*
X122147149Y-111592238D01*
X122576231Y-111163904D01*
X122662127Y-110957042D01*
X122839815Y-110838315D01*
X125325451Y-108352680D01*
X125425528Y-108394235D01*
X126031812Y-108394764D01*
X126592149Y-108163238D01*
X127021231Y-107734904D01*
X127253735Y-107174972D01*
X127254264Y-106568688D01*
X127022738Y-106008351D01*
X126594404Y-105579269D01*
X126034472Y-105346765D01*
X125428188Y-105346236D01*
X124867851Y-105577762D01*
X124438769Y-106006096D01*
X124206265Y-106566028D01*
X124205736Y-107172312D01*
X124248079Y-107274790D01*
X122331843Y-109191027D01*
X122149404Y-109008269D01*
X121589472Y-108775765D01*
X120983188Y-108775236D01*
X120519100Y-108966993D01*
X120519100Y-108714030D01*
X120880451Y-108352679D01*
X120980528Y-108394235D01*
X121586812Y-108394764D01*
X122147149Y-108163238D01*
X122576231Y-107734904D01*
X122808735Y-107174972D01*
X122809264Y-106568688D01*
X122577738Y-106008351D01*
X122149404Y-105579269D01*
X121589472Y-105346765D01*
X120983188Y-105346236D01*
X120422851Y-105577762D01*
X119993769Y-106006096D01*
X119761265Y-106566028D01*
X119760736Y-107172312D01*
X119803079Y-107274791D01*
X119441470Y-107636400D01*
X118172133Y-107636400D01*
X118363735Y-107174972D01*
X118364264Y-106568688D01*
X118132738Y-106008351D01*
X117704404Y-105579269D01*
X117144472Y-105346765D01*
X116538188Y-105346236D01*
X115977851Y-105577762D01*
X115548769Y-106006096D01*
X115316265Y-106566028D01*
X115315736Y-107172312D01*
X115507493Y-107636400D01*
X114238530Y-107636400D01*
X113877179Y-107275049D01*
X113918735Y-107174972D01*
X113919264Y-106568688D01*
X113687738Y-106008351D01*
X113259404Y-105579269D01*
X112699472Y-105346765D01*
X112093188Y-105346236D01*
X111532851Y-105577762D01*
X111103769Y-106006096D01*
X110871265Y-106566028D01*
X110870736Y-107172312D01*
X111102262Y-107732649D01*
X111530596Y-108161731D01*
X112090528Y-108394235D01*
X112696812Y-108394764D01*
X112799291Y-108352421D01*
X113384085Y-108937215D01*
X113631295Y-109102396D01*
X113922900Y-109160400D01*
X115823945Y-109160400D01*
X115548769Y-109435096D01*
X115316265Y-109995028D01*
X115315736Y-110601312D01*
X115547262Y-111161649D01*
X115975596Y-111590731D01*
X116535528Y-111823235D01*
X117141812Y-111823764D01*
X117702149Y-111592238D01*
X118131231Y-111163904D01*
X118363735Y-110603972D01*
X118364264Y-109997688D01*
X118132738Y-109437351D01*
X117856270Y-109160400D01*
X118995100Y-109160400D01*
X118995100Y-112962600D01*
X119053104Y-113254205D01*
X119167830Y-113425904D01*
X119218285Y-113501415D01*
X119802821Y-114085951D01*
X119761265Y-114186028D01*
X119760736Y-114792312D01*
X119992262Y-115352649D01*
X120420596Y-115781731D01*
X120980528Y-116014235D01*
X121586812Y-116014764D01*
X122147149Y-115783238D01*
X122331789Y-115598920D01*
X124247820Y-117514951D01*
X124206265Y-117615028D01*
X124205736Y-118221312D01*
X124437262Y-118781649D01*
X124865596Y-119210731D01*
X125425528Y-119443235D01*
X126031812Y-119443764D01*
X126592149Y-119212238D01*
X127021231Y-118783904D01*
X127253735Y-118223972D01*
X127254111Y-117793341D01*
X129671169Y-120210400D01*
X124653531Y-120210400D01*
X122767179Y-118324049D01*
X122808735Y-118223972D01*
X122809264Y-117617688D01*
X122577738Y-117057351D01*
X122149404Y-116628269D01*
X121589472Y-116395765D01*
X120983188Y-116395236D01*
X120422851Y-116626762D01*
X120238211Y-116811080D01*
X118322179Y-114895049D01*
X118363735Y-114794972D01*
X118364264Y-114188688D01*
X118132738Y-113628351D01*
X117704404Y-113199269D01*
X117144472Y-112966765D01*
X116538188Y-112966236D01*
X115977851Y-113197762D01*
X115548769Y-113626096D01*
X115316265Y-114186028D01*
X115315736Y-114792312D01*
X115547262Y-115352649D01*
X115975596Y-115781731D01*
X116535528Y-116014235D01*
X117141812Y-116014764D01*
X117244291Y-115972421D01*
X119730184Y-118458315D01*
X119855157Y-118541819D01*
X119907662Y-118576902D01*
X119992262Y-118781649D01*
X120420596Y-119210731D01*
X120980528Y-119443235D01*
X121586812Y-119443764D01*
X121689291Y-119401421D01*
X123522869Y-121235000D01*
X90237467Y-121235000D01*
X89465257Y-121081398D01*
X88867807Y-120682193D01*
X88468602Y-120084741D01*
X88361013Y-119543855D01*
X96688150Y-119543855D01*
X96915915Y-119920542D01*
X97908335Y-120323489D01*
X98979412Y-120315980D01*
X99934085Y-119920542D01*
X100161850Y-119543855D01*
X98425000Y-117807005D01*
X96688150Y-119543855D01*
X88361013Y-119543855D01*
X88315000Y-119312533D01*
X88315000Y-117110735D01*
X95728911Y-117110735D01*
X95736420Y-118181812D01*
X96131858Y-119136485D01*
X96508545Y-119364250D01*
X98245395Y-117627400D01*
X98604605Y-117627400D01*
X100341455Y-119364250D01*
X100718142Y-119136485D01*
X101121089Y-118144065D01*
X101118612Y-117790658D01*
X104444413Y-117790658D01*
X104783985Y-118612485D01*
X105412208Y-119241805D01*
X106233441Y-119582811D01*
X107122658Y-119583587D01*
X107944485Y-119244015D01*
X108197244Y-118991696D01*
X111502409Y-118991696D01*
X111587467Y-119247039D01*
X112156965Y-119455016D01*
X112762700Y-119429223D01*
X113202533Y-119247039D01*
X113287591Y-118991696D01*
X112395000Y-118099105D01*
X111502409Y-118991696D01*
X108197244Y-118991696D01*
X108573805Y-118615792D01*
X108914811Y-117794559D01*
X108914909Y-117681465D01*
X110859484Y-117681465D01*
X110885277Y-118287200D01*
X111067461Y-118727033D01*
X111322804Y-118812091D01*
X112215395Y-117919500D01*
X112574605Y-117919500D01*
X113467196Y-118812091D01*
X113722539Y-118727033D01*
X113907225Y-118221312D01*
X115315736Y-118221312D01*
X115547262Y-118781649D01*
X115975596Y-119210731D01*
X116535528Y-119443235D01*
X117141812Y-119443764D01*
X117702149Y-119212238D01*
X118131231Y-118783904D01*
X118363735Y-118223972D01*
X118364264Y-117617688D01*
X118132738Y-117057351D01*
X117704404Y-116628269D01*
X117144472Y-116395765D01*
X116538188Y-116395236D01*
X115977851Y-116626762D01*
X115548769Y-117055096D01*
X115316265Y-117615028D01*
X115315736Y-118221312D01*
X113907225Y-118221312D01*
X113930516Y-118157535D01*
X113904723Y-117551800D01*
X113722539Y-117111967D01*
X113467196Y-117026909D01*
X112574605Y-117919500D01*
X112215395Y-117919500D01*
X111322804Y-117026909D01*
X111067461Y-117111967D01*
X110859484Y-117681465D01*
X108914909Y-117681465D01*
X108915587Y-116905342D01*
X108891607Y-116847304D01*
X111502409Y-116847304D01*
X112395000Y-117739895D01*
X113287591Y-116847304D01*
X113202533Y-116591961D01*
X112633035Y-116383984D01*
X112027300Y-116409777D01*
X111587467Y-116591961D01*
X111502409Y-116847304D01*
X108891607Y-116847304D01*
X108576015Y-116083515D01*
X107947792Y-115454195D01*
X107126559Y-115113189D01*
X106237342Y-115112413D01*
X105415515Y-115451985D01*
X104786195Y-116080208D01*
X104445189Y-116901441D01*
X104444413Y-117790658D01*
X101118612Y-117790658D01*
X101113580Y-117072988D01*
X100718142Y-116118315D01*
X100341455Y-115890550D01*
X98604605Y-117627400D01*
X98245395Y-117627400D01*
X96508545Y-115890550D01*
X96131858Y-116118315D01*
X95728911Y-117110735D01*
X88315000Y-117110735D01*
X88315000Y-114946455D01*
X93386150Y-114946455D01*
X93613915Y-115323142D01*
X94606335Y-115726089D01*
X95677412Y-115718580D01*
X95695844Y-115710945D01*
X96688150Y-115710945D01*
X98425000Y-117447795D01*
X100161850Y-115710945D01*
X100041699Y-115512234D01*
X100055820Y-115526380D01*
X101138354Y-115975887D01*
X102310504Y-115976910D01*
X103393821Y-115529293D01*
X104132088Y-114792312D01*
X110870736Y-114792312D01*
X111102262Y-115352649D01*
X111530596Y-115781731D01*
X112090528Y-116014235D01*
X112696812Y-116014764D01*
X113257149Y-115783238D01*
X113686231Y-115354904D01*
X113918735Y-114794972D01*
X113919264Y-114188688D01*
X113687738Y-113628351D01*
X113259404Y-113199269D01*
X112699472Y-112966765D01*
X112093188Y-112966236D01*
X111532851Y-113197762D01*
X111103769Y-113626096D01*
X110871265Y-114186028D01*
X110870736Y-114792312D01*
X104132088Y-114792312D01*
X104223380Y-114701180D01*
X104672887Y-113618646D01*
X104673910Y-112446496D01*
X104226293Y-111363179D01*
X103465755Y-110601312D01*
X110870736Y-110601312D01*
X111102262Y-111161649D01*
X111530596Y-111590731D01*
X112090528Y-111823235D01*
X112696812Y-111823764D01*
X113257149Y-111592238D01*
X113686231Y-111163904D01*
X113918735Y-110603972D01*
X113919264Y-109997688D01*
X113687738Y-109437351D01*
X113259404Y-109008269D01*
X112699472Y-108775765D01*
X112093188Y-108775236D01*
X111532851Y-109006762D01*
X111103769Y-109435096D01*
X110871265Y-109995028D01*
X110870736Y-110601312D01*
X103465755Y-110601312D01*
X103398180Y-110533620D01*
X102315646Y-110084113D01*
X101143496Y-110083090D01*
X100060179Y-110530707D01*
X99230620Y-111358820D01*
X98781113Y-112441354D01*
X98780090Y-113613504D01*
X99227707Y-114696821D01*
X99816288Y-115286429D01*
X98941665Y-114931311D01*
X97870588Y-114938820D01*
X96915915Y-115334258D01*
X96688150Y-115710945D01*
X95695844Y-115710945D01*
X96632085Y-115323142D01*
X96859850Y-114946455D01*
X95123000Y-113209605D01*
X93386150Y-114946455D01*
X88315000Y-114946455D01*
X88315000Y-112513335D01*
X92426911Y-112513335D01*
X92434420Y-113584412D01*
X92829858Y-114539085D01*
X93206545Y-114766850D01*
X94943395Y-113030000D01*
X95302605Y-113030000D01*
X97039455Y-114766850D01*
X97416142Y-114539085D01*
X97819089Y-113546665D01*
X97811580Y-112475588D01*
X97416142Y-111520915D01*
X97039455Y-111293150D01*
X95302605Y-113030000D01*
X94943395Y-113030000D01*
X93206545Y-111293150D01*
X92829858Y-111520915D01*
X92426911Y-112513335D01*
X88315000Y-112513335D01*
X88315000Y-111113545D01*
X93386150Y-111113545D01*
X95123000Y-112850395D01*
X96859850Y-111113545D01*
X96632085Y-110736858D01*
X95639665Y-110333911D01*
X94568588Y-110341420D01*
X93613915Y-110736858D01*
X93386150Y-111113545D01*
X88315000Y-111113545D01*
X88315000Y-102594660D01*
X95389385Y-102594660D01*
X95665287Y-103262394D01*
X96175719Y-103773717D01*
X96842970Y-104050785D01*
X97565460Y-104051415D01*
X98233194Y-103775513D01*
X98744517Y-103265081D01*
X99021585Y-102597830D01*
X99022215Y-101875340D01*
X98746313Y-101207606D01*
X98235881Y-100696283D01*
X97568630Y-100419215D01*
X96846140Y-100418585D01*
X96178406Y-100694487D01*
X95667083Y-101204919D01*
X95390015Y-101872170D01*
X95389385Y-102594660D01*
X88315000Y-102594660D01*
X88315000Y-92735451D01*
X92887356Y-92735451D01*
X93277092Y-93678684D01*
X93998120Y-94400972D01*
X94940672Y-94792354D01*
X95961251Y-94793244D01*
X96904484Y-94403508D01*
X97626772Y-93682480D01*
X98018154Y-92739928D01*
X98019044Y-91719349D01*
X97629308Y-90776116D01*
X96908280Y-90053828D01*
X95965728Y-89662446D01*
X94945149Y-89661556D01*
X94001916Y-90051292D01*
X93279628Y-90772320D01*
X92888246Y-91714872D01*
X92887356Y-92735451D01*
X88315000Y-92735451D01*
X88315000Y-76311312D01*
X93090736Y-76311312D01*
X93322262Y-76871649D01*
X93750596Y-77300731D01*
X94310528Y-77533235D01*
X94916812Y-77533764D01*
X95019290Y-77491421D01*
X95341100Y-77813231D01*
X95341100Y-78216840D01*
X94919472Y-78041765D01*
X94313188Y-78041236D01*
X93752851Y-78272762D01*
X93323769Y-78701096D01*
X93091265Y-79261028D01*
X93090736Y-79867312D01*
X93322262Y-80427649D01*
X93750596Y-80856731D01*
X94310528Y-81089235D01*
X94916812Y-81089764D01*
X95341100Y-80914452D01*
X95341100Y-81190769D01*
X95019549Y-81512321D01*
X94919472Y-81470765D01*
X94313188Y-81470236D01*
X93752851Y-81701762D01*
X93323769Y-82130096D01*
X93091265Y-82690028D01*
X93090736Y-83296312D01*
X93322262Y-83856649D01*
X93750596Y-84285731D01*
X94310528Y-84518235D01*
X94916812Y-84518764D01*
X95477149Y-84287238D01*
X95906231Y-83858904D01*
X96138735Y-83298972D01*
X96139264Y-82692688D01*
X96096921Y-82590210D01*
X96641915Y-82045216D01*
X96807096Y-81798005D01*
X96826240Y-81701762D01*
X96865100Y-81506400D01*
X96865100Y-77497600D01*
X96807096Y-77205995D01*
X96730368Y-77091164D01*
X96641915Y-76958784D01*
X96097179Y-76414049D01*
X96138735Y-76313972D01*
X96139264Y-75707688D01*
X95907738Y-75147351D01*
X95479404Y-74718269D01*
X94919472Y-74485765D01*
X94313188Y-74485236D01*
X93752851Y-74716762D01*
X93323769Y-75145096D01*
X93091265Y-75705028D01*
X93090736Y-76311312D01*
X88315000Y-76311312D01*
X88315000Y-72882312D01*
X93090736Y-72882312D01*
X93322262Y-73442649D01*
X93750596Y-73871731D01*
X94310528Y-74104235D01*
X94916812Y-74104764D01*
X95477149Y-73873238D01*
X95906231Y-73444904D01*
X96138735Y-72884972D01*
X96139264Y-72278688D01*
X95907738Y-71718351D01*
X95479404Y-71289269D01*
X94919472Y-71056765D01*
X94313188Y-71056236D01*
X93752851Y-71287762D01*
X93323769Y-71716096D01*
X93091265Y-72276028D01*
X93090736Y-72882312D01*
X88315000Y-72882312D01*
X88315000Y-56287700D01*
X89190800Y-56287700D01*
X89190800Y-65822800D01*
X89248804Y-66114405D01*
X89376156Y-66305000D01*
X89413985Y-66361615D01*
X89957821Y-66905451D01*
X89916265Y-67005528D01*
X89915736Y-67611812D01*
X90147262Y-68172149D01*
X90575596Y-68601231D01*
X91135528Y-68833735D01*
X91741812Y-68834264D01*
X92302149Y-68602738D01*
X92710336Y-68195263D01*
X93115596Y-68601231D01*
X93675528Y-68833735D01*
X94281812Y-68834264D01*
X94842149Y-68602738D01*
X95271231Y-68174404D01*
X95503735Y-67614472D01*
X95504264Y-67008188D01*
X95272738Y-66447851D01*
X94844404Y-66018769D01*
X94284472Y-65786265D01*
X93678188Y-65785736D01*
X93117851Y-66017262D01*
X92709664Y-66424737D01*
X92304404Y-66018769D01*
X91744472Y-65786265D01*
X91138188Y-65785736D01*
X91035710Y-65828079D01*
X90714800Y-65507170D01*
X90714800Y-64572196D01*
X91182409Y-64572196D01*
X91267467Y-64827539D01*
X91836965Y-65035516D01*
X92442700Y-65009723D01*
X92882533Y-64827539D01*
X92967591Y-64572196D01*
X92075000Y-63679605D01*
X91182409Y-64572196D01*
X90714800Y-64572196D01*
X90714800Y-64228682D01*
X90747461Y-64307533D01*
X91002804Y-64392591D01*
X91895395Y-63500000D01*
X92254605Y-63500000D01*
X93147196Y-64392591D01*
X93312138Y-64337647D01*
X93322262Y-64362149D01*
X93750596Y-64791231D01*
X94310528Y-65023735D01*
X94916812Y-65024264D01*
X95477149Y-64792738D01*
X95906231Y-64364404D01*
X96138735Y-63804472D01*
X96139002Y-63498128D01*
X99925451Y-59711680D01*
X100025528Y-59753235D01*
X100631812Y-59753764D01*
X101192149Y-59522238D01*
X101621231Y-59093904D01*
X101676300Y-58961283D01*
X101676300Y-60896464D01*
X99701382Y-62871382D01*
X99508671Y-63159794D01*
X99441000Y-63500000D01*
X99441000Y-63903529D01*
X99214000Y-63857560D01*
X98144000Y-63857560D01*
X97908683Y-63901838D01*
X97692559Y-64040910D01*
X97547569Y-64253110D01*
X97496560Y-64505000D01*
X97496560Y-66305000D01*
X97540838Y-66540317D01*
X97679910Y-66756441D01*
X97892110Y-66901431D01*
X98144000Y-66952440D01*
X99214000Y-66952440D01*
X99441000Y-66909727D01*
X99441000Y-68453000D01*
X99508671Y-68793206D01*
X99701382Y-69081618D01*
X100717500Y-70097736D01*
X100717500Y-71089222D01*
X100680101Y-71064233D01*
X100130950Y-70955000D01*
X99259050Y-70955000D01*
X98709899Y-71064233D01*
X98244352Y-71375302D01*
X97933283Y-71840849D01*
X97824050Y-72390000D01*
X97933283Y-72939151D01*
X98244352Y-73404698D01*
X98626438Y-73660000D01*
X98244352Y-73915302D01*
X97933283Y-74380849D01*
X97824050Y-74930000D01*
X97933283Y-75479151D01*
X98244352Y-75944698D01*
X98626438Y-76200000D01*
X98244352Y-76455302D01*
X97933283Y-76920849D01*
X97824050Y-77470000D01*
X97933283Y-78019151D01*
X98244352Y-78484698D01*
X98626438Y-78740000D01*
X98244352Y-78995302D01*
X97933283Y-79460849D01*
X97824050Y-80010000D01*
X97933283Y-80559151D01*
X98244352Y-81024698D01*
X98709899Y-81335767D01*
X99259050Y-81445000D01*
X100130950Y-81445000D01*
X100680101Y-81335767D01*
X100717500Y-81310778D01*
X100717500Y-100418683D01*
X100605340Y-100418585D01*
X99937606Y-100694487D01*
X99426283Y-101204919D01*
X99149215Y-101872170D01*
X99148585Y-102594660D01*
X99424487Y-103262394D01*
X99934919Y-103773717D01*
X100602170Y-104050785D01*
X101324660Y-104051415D01*
X101992394Y-103775513D01*
X102249843Y-103518512D01*
X103620293Y-103518512D01*
X103741118Y-103804162D01*
X104416442Y-104060926D01*
X105138620Y-104039710D01*
X105707282Y-103804162D01*
X105828107Y-103518512D01*
X104724200Y-102414605D01*
X103620293Y-103518512D01*
X102249843Y-103518512D01*
X102503717Y-103265081D01*
X102780785Y-102597830D01*
X102781369Y-101927242D01*
X102898274Y-101927242D01*
X102919490Y-102649420D01*
X103155038Y-103218082D01*
X103440688Y-103338907D01*
X104544595Y-102235000D01*
X104903805Y-102235000D01*
X106007712Y-103338907D01*
X106293362Y-103218082D01*
X106550126Y-102542758D01*
X106528910Y-101820580D01*
X106293362Y-101251918D01*
X106007712Y-101131093D01*
X104903805Y-102235000D01*
X104544595Y-102235000D01*
X103440688Y-101131093D01*
X103155038Y-101251918D01*
X102898274Y-101927242D01*
X102781369Y-101927242D01*
X102781415Y-101875340D01*
X102505513Y-101207606D01*
X102249842Y-100951488D01*
X103620293Y-100951488D01*
X104724200Y-102055395D01*
X105828107Y-100951488D01*
X105707282Y-100665838D01*
X105031958Y-100409074D01*
X104309780Y-100430290D01*
X103741118Y-100665838D01*
X103620293Y-100951488D01*
X102249842Y-100951488D01*
X102241500Y-100943132D01*
X102241500Y-98671696D01*
X111502409Y-98671696D01*
X111587467Y-98927039D01*
X112156965Y-99135016D01*
X112762700Y-99109223D01*
X113202533Y-98927039D01*
X113287591Y-98671696D01*
X112395000Y-97779105D01*
X111502409Y-98671696D01*
X102241500Y-98671696D01*
X102241500Y-97361465D01*
X110859484Y-97361465D01*
X110885277Y-97967200D01*
X111067461Y-98407033D01*
X111322804Y-98492091D01*
X112215395Y-97599500D01*
X112574605Y-97599500D01*
X113467196Y-98492091D01*
X113722539Y-98407033D01*
X113907225Y-97901312D01*
X115315736Y-97901312D01*
X115547262Y-98461649D01*
X115975596Y-98890731D01*
X116535528Y-99123235D01*
X117141812Y-99123764D01*
X117702149Y-98892238D01*
X118131231Y-98463904D01*
X118363735Y-97903972D01*
X118364264Y-97297688D01*
X118132738Y-96737351D01*
X117704404Y-96308269D01*
X117144472Y-96075765D01*
X116538188Y-96075236D01*
X115977851Y-96306762D01*
X115548769Y-96735096D01*
X115316265Y-97295028D01*
X115315736Y-97901312D01*
X113907225Y-97901312D01*
X113930516Y-97837535D01*
X113904723Y-97231800D01*
X113722539Y-96791967D01*
X113467196Y-96706909D01*
X112574605Y-97599500D01*
X112215395Y-97599500D01*
X111322804Y-96706909D01*
X111067461Y-96791967D01*
X110859484Y-97361465D01*
X102241500Y-97361465D01*
X102241500Y-96527304D01*
X111502409Y-96527304D01*
X112395000Y-97419895D01*
X113287591Y-96527304D01*
X113202533Y-96271961D01*
X112633035Y-96063984D01*
X112027300Y-96089777D01*
X111587467Y-96271961D01*
X111502409Y-96527304D01*
X102241500Y-96527304D01*
X102241500Y-92735451D01*
X103910956Y-92735451D01*
X104300692Y-93678684D01*
X105021720Y-94400972D01*
X105964272Y-94792354D01*
X106984851Y-94793244D01*
X107761565Y-94472312D01*
X110870736Y-94472312D01*
X111102262Y-95032649D01*
X111530596Y-95461731D01*
X112090528Y-95694235D01*
X112696812Y-95694764D01*
X113257149Y-95463238D01*
X113686231Y-95034904D01*
X113918735Y-94474972D01*
X113918737Y-94472312D01*
X115315736Y-94472312D01*
X115547262Y-95032649D01*
X115975596Y-95461731D01*
X116535528Y-95694235D01*
X117141812Y-95694764D01*
X117244291Y-95652421D01*
X119730184Y-98138315D01*
X119855157Y-98221819D01*
X119907662Y-98256902D01*
X119992262Y-98461649D01*
X120420596Y-98890731D01*
X120980528Y-99123235D01*
X121586812Y-99123764D01*
X122147149Y-98892238D01*
X122576231Y-98463904D01*
X122808735Y-97903972D01*
X122809264Y-97297688D01*
X122577738Y-96737351D01*
X122149404Y-96308269D01*
X121589472Y-96075765D01*
X120983188Y-96075236D01*
X120422851Y-96306762D01*
X120238211Y-96491080D01*
X118322179Y-94575049D01*
X118363735Y-94474972D01*
X118364264Y-93868688D01*
X118132738Y-93308351D01*
X117704404Y-92879269D01*
X117144472Y-92646765D01*
X116538188Y-92646236D01*
X115977851Y-92877762D01*
X115548769Y-93306096D01*
X115316265Y-93866028D01*
X115315736Y-94472312D01*
X113918737Y-94472312D01*
X113919264Y-93868688D01*
X113687738Y-93308351D01*
X113259404Y-92879269D01*
X112699472Y-92646765D01*
X112093188Y-92646236D01*
X111532851Y-92877762D01*
X111103769Y-93306096D01*
X110871265Y-93866028D01*
X110870736Y-94472312D01*
X107761565Y-94472312D01*
X107928084Y-94403508D01*
X108650372Y-93682480D01*
X109041754Y-92739928D01*
X109042644Y-91719349D01*
X108652908Y-90776116D01*
X108158968Y-90281312D01*
X110870736Y-90281312D01*
X111102262Y-90841649D01*
X111530596Y-91270731D01*
X112090528Y-91503235D01*
X112696812Y-91503764D01*
X113257149Y-91272238D01*
X113686231Y-90843904D01*
X113918735Y-90283972D01*
X113919264Y-89677688D01*
X113687738Y-89117351D01*
X113259404Y-88688269D01*
X112699472Y-88455765D01*
X112093188Y-88455236D01*
X111532851Y-88686762D01*
X111103769Y-89115096D01*
X110871265Y-89675028D01*
X110870736Y-90281312D01*
X108158968Y-90281312D01*
X107931880Y-90053828D01*
X106989328Y-89662446D01*
X105968749Y-89661556D01*
X105025516Y-90051292D01*
X104303228Y-90772320D01*
X103911846Y-91714872D01*
X103910956Y-92735451D01*
X102241500Y-92735451D01*
X102241500Y-86852312D01*
X110870736Y-86852312D01*
X111102262Y-87412649D01*
X111530596Y-87841731D01*
X112090528Y-88074235D01*
X112696812Y-88074764D01*
X112799291Y-88032421D01*
X113384085Y-88617215D01*
X113631295Y-88782396D01*
X113922900Y-88840400D01*
X115823945Y-88840400D01*
X115548769Y-89115096D01*
X115316265Y-89675028D01*
X115315736Y-90281312D01*
X115547262Y-90841649D01*
X115975596Y-91270731D01*
X116535528Y-91503235D01*
X117141812Y-91503764D01*
X117702149Y-91272238D01*
X118131231Y-90843904D01*
X118363735Y-90283972D01*
X118364264Y-89677688D01*
X118132738Y-89117351D01*
X117856270Y-88840400D01*
X118995100Y-88840400D01*
X118995100Y-92642600D01*
X119053104Y-92934205D01*
X119147008Y-93074742D01*
X119218285Y-93181415D01*
X119802821Y-93765951D01*
X119761265Y-93866028D01*
X119760736Y-94472312D01*
X119992262Y-95032649D01*
X120420596Y-95461731D01*
X120980528Y-95694235D01*
X121586812Y-95694764D01*
X122147149Y-95463238D01*
X122331789Y-95278920D01*
X124247820Y-97194951D01*
X124206265Y-97295028D01*
X124205736Y-97901312D01*
X124437262Y-98461649D01*
X124865596Y-98890731D01*
X125425528Y-99123235D01*
X126031812Y-99123764D01*
X126592149Y-98892238D01*
X127021231Y-98463904D01*
X127253735Y-97903972D01*
X127254264Y-97297688D01*
X127022738Y-96737351D01*
X126594404Y-96308269D01*
X126034472Y-96075765D01*
X125428188Y-96075236D01*
X125325710Y-96117579D01*
X123680443Y-94472312D01*
X124205736Y-94472312D01*
X124437262Y-95032649D01*
X124865596Y-95461731D01*
X125425528Y-95694235D01*
X126031812Y-95694764D01*
X126592149Y-95463238D01*
X127021231Y-95034904D01*
X127253735Y-94474972D01*
X127254264Y-93868688D01*
X127022738Y-93308351D01*
X126594404Y-92879269D01*
X126034472Y-92646765D01*
X125428188Y-92646236D01*
X124867851Y-92877762D01*
X124438769Y-93306096D01*
X124206265Y-93866028D01*
X124205736Y-94472312D01*
X123680443Y-94472312D01*
X122839815Y-93631685D01*
X122743001Y-93566996D01*
X122662338Y-93513098D01*
X122577738Y-93308351D01*
X122149404Y-92879269D01*
X121589472Y-92646765D01*
X120983188Y-92646236D01*
X120880709Y-92688579D01*
X120519100Y-92326970D01*
X120519100Y-91311633D01*
X120980528Y-91503235D01*
X121586812Y-91503764D01*
X122147149Y-91272238D01*
X122576231Y-90843904D01*
X122662127Y-90637042D01*
X122839815Y-90518315D01*
X123076818Y-90281312D01*
X124205736Y-90281312D01*
X124437262Y-90841649D01*
X124865596Y-91270731D01*
X125425528Y-91503235D01*
X126031812Y-91503764D01*
X126592149Y-91272238D01*
X127021231Y-90843904D01*
X127253735Y-90283972D01*
X127254264Y-89677688D01*
X127022738Y-89117351D01*
X126594404Y-88688269D01*
X126034472Y-88455765D01*
X125428188Y-88455236D01*
X124867851Y-88686762D01*
X124438769Y-89115096D01*
X124206265Y-89675028D01*
X124205736Y-90281312D01*
X123076818Y-90281312D01*
X125325451Y-88032680D01*
X125425528Y-88074235D01*
X126031812Y-88074764D01*
X126592149Y-87843238D01*
X127021231Y-87414904D01*
X127253735Y-86854972D01*
X127254264Y-86248688D01*
X127022738Y-85688351D01*
X126594404Y-85259269D01*
X126034472Y-85026765D01*
X125428188Y-85026236D01*
X124867851Y-85257762D01*
X124438769Y-85686096D01*
X124206265Y-86246028D01*
X124205736Y-86852312D01*
X124248079Y-86954790D01*
X122331843Y-88871027D01*
X122149404Y-88688269D01*
X121589472Y-88455765D01*
X120983188Y-88455236D01*
X120519100Y-88646993D01*
X120519100Y-88394030D01*
X120880451Y-88032679D01*
X120980528Y-88074235D01*
X121586812Y-88074764D01*
X122147149Y-87843238D01*
X122576231Y-87414904D01*
X122808735Y-86854972D01*
X122809264Y-86248688D01*
X122577738Y-85688351D01*
X122149404Y-85259269D01*
X121589472Y-85026765D01*
X120983188Y-85026236D01*
X120422851Y-85257762D01*
X119993769Y-85686096D01*
X119761265Y-86246028D01*
X119760736Y-86852312D01*
X119803079Y-86954791D01*
X119441470Y-87316400D01*
X118172133Y-87316400D01*
X118363735Y-86854972D01*
X118364264Y-86248688D01*
X118132738Y-85688351D01*
X117704404Y-85259269D01*
X117144472Y-85026765D01*
X116538188Y-85026236D01*
X115977851Y-85257762D01*
X115548769Y-85686096D01*
X115316265Y-86246028D01*
X115315736Y-86852312D01*
X115507493Y-87316400D01*
X114238530Y-87316400D01*
X113877179Y-86955049D01*
X113918735Y-86854972D01*
X113919264Y-86248688D01*
X113687738Y-85688351D01*
X113259404Y-85259269D01*
X112699472Y-85026765D01*
X112093188Y-85026236D01*
X111532851Y-85257762D01*
X111103769Y-85686096D01*
X110871265Y-86246028D01*
X110870736Y-86852312D01*
X102241500Y-86852312D01*
X102241500Y-78873500D01*
X102183496Y-78581895D01*
X102058547Y-78394896D01*
X102018316Y-78334685D01*
X101497542Y-77813911D01*
X101565950Y-77470000D01*
X101456717Y-76920849D01*
X101145648Y-76455302D01*
X100763562Y-76200000D01*
X101145648Y-75944698D01*
X101456717Y-75479151D01*
X101565950Y-74930000D01*
X101456717Y-74380849D01*
X101145648Y-73915302D01*
X100763562Y-73660000D01*
X101145648Y-73404698D01*
X101229637Y-73279000D01*
X101238264Y-73279000D01*
X102489000Y-74529736D01*
X102489000Y-76962000D01*
X102556671Y-77302206D01*
X102736343Y-77571104D01*
X102749382Y-77590618D01*
X105512404Y-80353640D01*
X105553283Y-80559151D01*
X105864352Y-81024698D01*
X106329899Y-81335767D01*
X106879050Y-81445000D01*
X107750950Y-81445000D01*
X108300101Y-81335767D01*
X108765648Y-81024698D01*
X109076717Y-80559151D01*
X109185950Y-80010000D01*
X109076717Y-79460849D01*
X108765648Y-78995302D01*
X108383562Y-78740000D01*
X108765648Y-78484698D01*
X108854517Y-78351696D01*
X111502409Y-78351696D01*
X111587467Y-78607039D01*
X112156965Y-78815016D01*
X112762700Y-78789223D01*
X113202533Y-78607039D01*
X113287591Y-78351696D01*
X112395000Y-77459105D01*
X111502409Y-78351696D01*
X108854517Y-78351696D01*
X109076717Y-78019151D01*
X109185950Y-77470000D01*
X109100710Y-77041465D01*
X110859484Y-77041465D01*
X110885277Y-77647200D01*
X111067461Y-78087033D01*
X111322804Y-78172091D01*
X112215395Y-77279500D01*
X112574605Y-77279500D01*
X113467196Y-78172091D01*
X113722539Y-78087033D01*
X113907225Y-77581312D01*
X115315736Y-77581312D01*
X115547262Y-78141649D01*
X115975596Y-78570731D01*
X116535528Y-78803235D01*
X117141812Y-78803764D01*
X117702149Y-78572238D01*
X118131231Y-78143904D01*
X118363735Y-77583972D01*
X118364264Y-76977688D01*
X118132738Y-76417351D01*
X117704404Y-75988269D01*
X117144472Y-75755765D01*
X116538188Y-75755236D01*
X115977851Y-75986762D01*
X115548769Y-76415096D01*
X115316265Y-76975028D01*
X115315736Y-77581312D01*
X113907225Y-77581312D01*
X113930516Y-77517535D01*
X113904723Y-76911800D01*
X113722539Y-76471967D01*
X113467196Y-76386909D01*
X112574605Y-77279500D01*
X112215395Y-77279500D01*
X111322804Y-76386909D01*
X111067461Y-76471967D01*
X110859484Y-77041465D01*
X109100710Y-77041465D01*
X109076717Y-76920849D01*
X108765648Y-76455302D01*
X108394494Y-76207304D01*
X111502409Y-76207304D01*
X112395000Y-77099895D01*
X113287591Y-76207304D01*
X113202533Y-75951961D01*
X112633035Y-75743984D01*
X112027300Y-75769777D01*
X111587467Y-75951961D01*
X111502409Y-76207304D01*
X108394494Y-76207304D01*
X108383562Y-76200000D01*
X108765648Y-75944698D01*
X109076717Y-75479151D01*
X109185950Y-74930000D01*
X109076717Y-74380849D01*
X108924014Y-74152312D01*
X110870736Y-74152312D01*
X111102262Y-74712649D01*
X111530596Y-75141731D01*
X112090528Y-75374235D01*
X112696812Y-75374764D01*
X113257149Y-75143238D01*
X113686231Y-74714904D01*
X113918735Y-74154972D01*
X113918737Y-74152312D01*
X115315736Y-74152312D01*
X115547262Y-74712649D01*
X115975596Y-75141731D01*
X116535528Y-75374235D01*
X117141812Y-75374764D01*
X117244291Y-75332421D01*
X119730184Y-77818315D01*
X119774442Y-77847887D01*
X119907662Y-77936902D01*
X119992262Y-78141649D01*
X120420596Y-78570731D01*
X120980528Y-78803235D01*
X121586812Y-78803764D01*
X122147149Y-78572238D01*
X122576231Y-78143904D01*
X122808735Y-77583972D01*
X122809264Y-76977688D01*
X122577738Y-76417351D01*
X122149404Y-75988269D01*
X121589472Y-75755765D01*
X120983188Y-75755236D01*
X120422851Y-75986762D01*
X120238211Y-76171080D01*
X118322179Y-74255049D01*
X118363735Y-74154972D01*
X118364264Y-73548688D01*
X118132738Y-72988351D01*
X117704404Y-72559269D01*
X117144472Y-72326765D01*
X116538188Y-72326236D01*
X115977851Y-72557762D01*
X115548769Y-72986096D01*
X115316265Y-73546028D01*
X115315736Y-74152312D01*
X113918737Y-74152312D01*
X113919264Y-73548688D01*
X113687738Y-72988351D01*
X113259404Y-72559269D01*
X112699472Y-72326765D01*
X112093188Y-72326236D01*
X111532851Y-72557762D01*
X111103769Y-72986096D01*
X110871265Y-73546028D01*
X110870736Y-74152312D01*
X108924014Y-74152312D01*
X108765648Y-73915302D01*
X108630502Y-73825000D01*
X108641309Y-73825000D01*
X108874698Y-73728327D01*
X109053327Y-73549699D01*
X109150000Y-73316310D01*
X109150000Y-72675750D01*
X108991250Y-72517000D01*
X107442000Y-72517000D01*
X107442000Y-72537000D01*
X107188000Y-72537000D01*
X107188000Y-72517000D01*
X105638750Y-72517000D01*
X105480000Y-72675750D01*
X105480000Y-73316310D01*
X105576673Y-73549699D01*
X105755302Y-73728327D01*
X105988691Y-73825000D01*
X105999498Y-73825000D01*
X105864352Y-73915302D01*
X105553283Y-74380849D01*
X105444050Y-74930000D01*
X105553283Y-75479151D01*
X105864352Y-75944698D01*
X106246438Y-76200000D01*
X105864352Y-76455302D01*
X105553283Y-76920849D01*
X105444050Y-77470000D01*
X105518743Y-77845507D01*
X104267000Y-76593764D01*
X104267000Y-74161500D01*
X104199329Y-73821294D01*
X104006618Y-73532882D01*
X102495500Y-72021764D01*
X102495500Y-71463690D01*
X105480000Y-71463690D01*
X105480000Y-72104250D01*
X105638750Y-72263000D01*
X107188000Y-72263000D01*
X107188000Y-71113750D01*
X107442000Y-71113750D01*
X107442000Y-72263000D01*
X108991250Y-72263000D01*
X109150000Y-72104250D01*
X109150000Y-71463690D01*
X109053327Y-71230301D01*
X108874698Y-71051673D01*
X108641309Y-70955000D01*
X107600750Y-70955000D01*
X107442000Y-71113750D01*
X107188000Y-71113750D01*
X107029250Y-70955000D01*
X105988691Y-70955000D01*
X105755302Y-71051673D01*
X105576673Y-71230301D01*
X105480000Y-71463690D01*
X102495500Y-71463690D01*
X102495500Y-69961312D01*
X110870736Y-69961312D01*
X111102262Y-70521649D01*
X111530596Y-70950731D01*
X112090528Y-71183235D01*
X112696812Y-71183764D01*
X113257149Y-70952238D01*
X113686231Y-70523904D01*
X113918735Y-69963972D01*
X113919264Y-69357688D01*
X113687738Y-68797351D01*
X113259404Y-68368269D01*
X112699472Y-68135765D01*
X112093188Y-68135236D01*
X111532851Y-68366762D01*
X111103769Y-68795096D01*
X110871265Y-69355028D01*
X110870736Y-69961312D01*
X102495500Y-69961312D01*
X102495500Y-69729500D01*
X102472437Y-69613555D01*
X102427830Y-69389295D01*
X102235118Y-69100882D01*
X101219000Y-68084764D01*
X101219000Y-66671029D01*
X101533260Y-66881011D01*
X101981000Y-66970072D01*
X102428740Y-66881011D01*
X102806500Y-66628600D01*
X103184260Y-66881011D01*
X103632000Y-66970072D01*
X104079740Y-66881011D01*
X104459315Y-66627387D01*
X104522842Y-66532312D01*
X110870736Y-66532312D01*
X111102262Y-67092649D01*
X111530596Y-67521731D01*
X112090528Y-67754235D01*
X112696812Y-67754764D01*
X112799291Y-67712421D01*
X113384085Y-68297215D01*
X113631295Y-68462396D01*
X113922900Y-68520400D01*
X115823945Y-68520400D01*
X115548769Y-68795096D01*
X115316265Y-69355028D01*
X115315736Y-69961312D01*
X115547262Y-70521649D01*
X115975596Y-70950731D01*
X116535528Y-71183235D01*
X117141812Y-71183764D01*
X117702149Y-70952238D01*
X118131231Y-70523904D01*
X118363735Y-69963972D01*
X118364264Y-69357688D01*
X118132738Y-68797351D01*
X117856270Y-68520400D01*
X118995100Y-68520400D01*
X118995100Y-72322600D01*
X119053104Y-72614205D01*
X119130613Y-72730205D01*
X119218285Y-72861415D01*
X119802821Y-73445951D01*
X119761265Y-73546028D01*
X119760736Y-74152312D01*
X119992262Y-74712649D01*
X120420596Y-75141731D01*
X120980528Y-75374235D01*
X121586812Y-75374764D01*
X122147149Y-75143238D01*
X122331789Y-74958920D01*
X124247820Y-76874951D01*
X124206265Y-76975028D01*
X124205736Y-77581312D01*
X124437262Y-78141649D01*
X124865596Y-78570731D01*
X125425528Y-78803235D01*
X126031812Y-78803764D01*
X126592149Y-78572238D01*
X127021231Y-78143904D01*
X127253735Y-77583972D01*
X127254264Y-76977688D01*
X127022738Y-76417351D01*
X126594404Y-75988269D01*
X126034472Y-75755765D01*
X125428188Y-75755236D01*
X125325710Y-75797579D01*
X123680443Y-74152312D01*
X124205736Y-74152312D01*
X124437262Y-74712649D01*
X124865596Y-75141731D01*
X125425528Y-75374235D01*
X126031812Y-75374764D01*
X126592149Y-75143238D01*
X127021231Y-74714904D01*
X127253735Y-74154972D01*
X127254264Y-73548688D01*
X127022738Y-72988351D01*
X126594404Y-72559269D01*
X126034472Y-72326765D01*
X125428188Y-72326236D01*
X124867851Y-72557762D01*
X124438769Y-72986096D01*
X124206265Y-73546028D01*
X124205736Y-74152312D01*
X123680443Y-74152312D01*
X122839815Y-73311685D01*
X122662338Y-73193098D01*
X122577738Y-72988351D01*
X122149404Y-72559269D01*
X121589472Y-72326765D01*
X120983188Y-72326236D01*
X120880709Y-72368579D01*
X120519100Y-72006970D01*
X120519100Y-70991633D01*
X120980528Y-71183235D01*
X121586812Y-71183764D01*
X122147149Y-70952238D01*
X122576231Y-70523904D01*
X122662127Y-70317042D01*
X122839815Y-70198315D01*
X123076818Y-69961312D01*
X124205736Y-69961312D01*
X124437262Y-70521649D01*
X124865596Y-70950731D01*
X125425528Y-71183235D01*
X126031812Y-71183764D01*
X126592149Y-70952238D01*
X127021231Y-70523904D01*
X127253735Y-69963972D01*
X127254264Y-69357688D01*
X127022738Y-68797351D01*
X126594404Y-68368269D01*
X126034472Y-68135765D01*
X125428188Y-68135236D01*
X124867851Y-68366762D01*
X124438769Y-68795096D01*
X124206265Y-69355028D01*
X124205736Y-69961312D01*
X123076818Y-69961312D01*
X125325451Y-67712680D01*
X125425528Y-67754235D01*
X126031812Y-67754764D01*
X126592149Y-67523238D01*
X127021231Y-67094904D01*
X127253735Y-66534972D01*
X127254264Y-65928688D01*
X127162587Y-65706812D01*
X128841236Y-65706812D01*
X129072762Y-66267149D01*
X129501096Y-66696231D01*
X130061028Y-66928735D01*
X130667312Y-66929264D01*
X131227649Y-66697738D01*
X131656731Y-66269404D01*
X131889235Y-65709472D01*
X131889764Y-65103188D01*
X131658238Y-64542851D01*
X131229904Y-64113769D01*
X130669972Y-63881265D01*
X130063688Y-63880736D01*
X129503351Y-64112262D01*
X129074269Y-64540596D01*
X128841765Y-65100528D01*
X128841236Y-65706812D01*
X127162587Y-65706812D01*
X127022738Y-65368351D01*
X126594404Y-64939269D01*
X126034472Y-64706765D01*
X125428188Y-64706236D01*
X124867851Y-64937762D01*
X124438769Y-65366096D01*
X124206265Y-65926028D01*
X124205736Y-66532312D01*
X124248079Y-66634790D01*
X122331843Y-68551027D01*
X122149404Y-68368269D01*
X121589472Y-68135765D01*
X120983188Y-68135236D01*
X120519100Y-68326993D01*
X120519100Y-68074030D01*
X120880451Y-67712679D01*
X120980528Y-67754235D01*
X121586812Y-67754764D01*
X122147149Y-67523238D01*
X122576231Y-67094904D01*
X122808735Y-66534972D01*
X122809264Y-65928688D01*
X122577738Y-65368351D01*
X122149404Y-64939269D01*
X121589472Y-64706765D01*
X120983188Y-64706236D01*
X120422851Y-64937762D01*
X119993769Y-65366096D01*
X119761265Y-65926028D01*
X119760736Y-66532312D01*
X119803079Y-66634791D01*
X119441470Y-66996400D01*
X118172133Y-66996400D01*
X118363735Y-66534972D01*
X118364264Y-65928688D01*
X118132738Y-65368351D01*
X117704404Y-64939269D01*
X117144472Y-64706765D01*
X116538188Y-64706236D01*
X115977851Y-64937762D01*
X115548769Y-65366096D01*
X115316265Y-65926028D01*
X115315736Y-66532312D01*
X115507493Y-66996400D01*
X114238530Y-66996400D01*
X113877179Y-66635049D01*
X113918735Y-66534972D01*
X113919264Y-65928688D01*
X113687738Y-65368351D01*
X113259404Y-64939269D01*
X112699472Y-64706765D01*
X112093188Y-64706236D01*
X111532851Y-64937762D01*
X111103769Y-65366096D01*
X110871265Y-65926028D01*
X110870736Y-66532312D01*
X104522842Y-66532312D01*
X104712939Y-66247812D01*
X104802000Y-65800072D01*
X104802000Y-65009928D01*
X104712939Y-64562188D01*
X104459315Y-64182613D01*
X104079740Y-63928989D01*
X103632000Y-63839928D01*
X103184260Y-63928989D01*
X102806500Y-64181400D01*
X102428740Y-63928989D01*
X101981000Y-63839928D01*
X101533260Y-63928989D01*
X101219000Y-64138971D01*
X101219000Y-63868236D01*
X103193918Y-61893318D01*
X103386630Y-61604905D01*
X103454300Y-61264700D01*
X103454300Y-59023976D01*
X103482262Y-59091649D01*
X103910596Y-59520731D01*
X104470528Y-59753235D01*
X105076812Y-59753764D01*
X105637149Y-59522238D01*
X106066231Y-59093904D01*
X106298735Y-58533972D01*
X106298737Y-58531312D01*
X107695736Y-58531312D01*
X107927262Y-59091649D01*
X108355596Y-59520731D01*
X108915528Y-59753235D01*
X109521812Y-59753764D01*
X110082149Y-59522238D01*
X110247863Y-59356812D01*
X114680736Y-59356812D01*
X114912262Y-59917149D01*
X115340596Y-60346231D01*
X115900528Y-60578735D01*
X116506812Y-60579264D01*
X117067149Y-60347738D01*
X117496231Y-59919404D01*
X117538753Y-59817000D01*
X122993200Y-59817000D01*
X123284805Y-59758996D01*
X123532015Y-59593815D01*
X124206117Y-58919713D01*
X124205736Y-59356812D01*
X124437262Y-59917149D01*
X124865596Y-60346231D01*
X125425528Y-60578735D01*
X126031812Y-60579264D01*
X126592149Y-60347738D01*
X127021231Y-59919404D01*
X127253735Y-59359472D01*
X127254264Y-58753188D01*
X127022738Y-58192851D01*
X126594404Y-57763769D01*
X126034472Y-57531265D01*
X125594949Y-57530882D01*
X125848831Y-57277000D01*
X126935881Y-57277000D01*
X126977262Y-57377149D01*
X127405596Y-57806231D01*
X127965528Y-58038735D01*
X128571812Y-58039264D01*
X129132149Y-57807738D01*
X129561231Y-57379404D01*
X129793735Y-56819472D01*
X129793737Y-56816812D01*
X131190736Y-56816812D01*
X131422262Y-57377149D01*
X131850596Y-57806231D01*
X132410528Y-58038735D01*
X133016812Y-58039264D01*
X133577149Y-57807738D01*
X134006231Y-57379404D01*
X134238735Y-56819472D01*
X134239208Y-56276965D01*
X136259484Y-56276965D01*
X136285277Y-56882700D01*
X136467461Y-57322533D01*
X136722804Y-57407591D01*
X137615395Y-56515000D01*
X137974605Y-56515000D01*
X138867196Y-57407591D01*
X139122539Y-57322533D01*
X139330516Y-56753035D01*
X139304723Y-56147300D01*
X139122539Y-55707467D01*
X138867196Y-55622409D01*
X137974605Y-56515000D01*
X137615395Y-56515000D01*
X136722804Y-55622409D01*
X136467461Y-55707467D01*
X136259484Y-56276965D01*
X134239208Y-56276965D01*
X134239264Y-56213188D01*
X134007738Y-55652851D01*
X133798058Y-55442804D01*
X136902409Y-55442804D01*
X137795000Y-56335395D01*
X138687591Y-55442804D01*
X138602533Y-55187461D01*
X138033035Y-54979484D01*
X137427300Y-55005277D01*
X136987467Y-55187461D01*
X136902409Y-55442804D01*
X133798058Y-55442804D01*
X133579404Y-55223769D01*
X133019472Y-54991265D01*
X132413188Y-54990736D01*
X131852851Y-55222262D01*
X131423769Y-55650596D01*
X131191265Y-56210528D01*
X131190736Y-56816812D01*
X129793737Y-56816812D01*
X129794264Y-56213188D01*
X129562738Y-55652851D01*
X129134404Y-55223769D01*
X128574472Y-54991265D01*
X127968188Y-54990736D01*
X127407851Y-55222262D01*
X126978769Y-55650596D01*
X126936247Y-55753000D01*
X125533200Y-55753000D01*
X125241595Y-55811004D01*
X124994384Y-55976185D01*
X124714226Y-56256343D01*
X124714264Y-56213188D01*
X124482738Y-55652851D01*
X124054404Y-55223769D01*
X123494472Y-54991265D01*
X122888188Y-54990736D01*
X122327851Y-55222262D01*
X121898769Y-55650596D01*
X121666265Y-56210528D01*
X121665736Y-56816812D01*
X121897262Y-57377149D01*
X122325596Y-57806231D01*
X122885528Y-58038735D01*
X122931794Y-58038775D01*
X122677570Y-58293000D01*
X117539119Y-58293000D01*
X117497738Y-58192851D01*
X117069404Y-57763769D01*
X116509472Y-57531265D01*
X115903188Y-57530736D01*
X115342851Y-57762262D01*
X114913769Y-58190596D01*
X114681265Y-58750528D01*
X114680736Y-59356812D01*
X110247863Y-59356812D01*
X110511231Y-59093904D01*
X110743735Y-58533972D01*
X110744264Y-57927688D01*
X110603576Y-57587196D01*
X112772409Y-57587196D01*
X112857467Y-57842539D01*
X113426965Y-58050516D01*
X114032700Y-58024723D01*
X114472533Y-57842539D01*
X114557591Y-57587196D01*
X113665000Y-56694605D01*
X112772409Y-57587196D01*
X110603576Y-57587196D01*
X110512738Y-57367351D01*
X110084404Y-56938269D01*
X109524472Y-56705765D01*
X108918188Y-56705236D01*
X108357851Y-56936762D01*
X107928769Y-57365096D01*
X107696265Y-57925028D01*
X107695736Y-58531312D01*
X106298737Y-58531312D01*
X106299264Y-57927688D01*
X106082881Y-57404000D01*
X107505500Y-57404000D01*
X107845706Y-57336329D01*
X108134118Y-57143618D01*
X108953468Y-56324268D01*
X109521812Y-56324764D01*
X109637494Y-56276965D01*
X112129484Y-56276965D01*
X112155277Y-56882700D01*
X112337461Y-57322533D01*
X112592804Y-57407591D01*
X113485395Y-56515000D01*
X113844605Y-56515000D01*
X114737196Y-57407591D01*
X114992539Y-57322533D01*
X115177225Y-56816812D01*
X117220736Y-56816812D01*
X117452262Y-57377149D01*
X117880596Y-57806231D01*
X118440528Y-58038735D01*
X119046812Y-58039264D01*
X119607149Y-57807738D01*
X120036231Y-57379404D01*
X120268735Y-56819472D01*
X120269264Y-56213188D01*
X120037738Y-55652851D01*
X119609404Y-55223769D01*
X119049472Y-54991265D01*
X118443188Y-54990736D01*
X117882851Y-55222262D01*
X117453769Y-55650596D01*
X117221265Y-56210528D01*
X117220736Y-56816812D01*
X115177225Y-56816812D01*
X115200516Y-56753035D01*
X115174723Y-56147300D01*
X114992539Y-55707467D01*
X114737196Y-55622409D01*
X113844605Y-56515000D01*
X113485395Y-56515000D01*
X112592804Y-55622409D01*
X112337461Y-55707467D01*
X112129484Y-56276965D01*
X109637494Y-56276965D01*
X110082149Y-56093238D01*
X110511231Y-55664904D01*
X110603454Y-55442804D01*
X112772409Y-55442804D01*
X113665000Y-56335395D01*
X114557591Y-55442804D01*
X114472533Y-55187461D01*
X113903035Y-54979484D01*
X113297300Y-55005277D01*
X112857467Y-55187461D01*
X112772409Y-55442804D01*
X110603454Y-55442804D01*
X110743735Y-55104972D01*
X110744264Y-54498688D01*
X110512738Y-53938351D01*
X110084404Y-53509269D01*
X109524472Y-53276765D01*
X108918188Y-53276236D01*
X108357851Y-53507762D01*
X107928769Y-53936096D01*
X107696265Y-54496028D01*
X107695766Y-55067498D01*
X107137264Y-55626000D01*
X106082385Y-55626000D01*
X106298735Y-55104972D01*
X106299264Y-54498688D01*
X106067738Y-53938351D01*
X105709098Y-53579085D01*
X106233441Y-53796811D01*
X107122658Y-53797587D01*
X107944485Y-53458015D01*
X108573805Y-52829792D01*
X108914811Y-52008559D01*
X108915587Y-51119342D01*
X108576015Y-50297515D01*
X107947792Y-49668195D01*
X107126559Y-49327189D01*
X106237342Y-49326413D01*
X105415515Y-49665985D01*
X104786195Y-50294208D01*
X104445189Y-51115441D01*
X104444413Y-52004658D01*
X104783985Y-52826485D01*
X105342514Y-53385990D01*
X105079472Y-53276765D01*
X104473188Y-53276236D01*
X103912851Y-53507762D01*
X103483769Y-53936096D01*
X103251265Y-54496028D01*
X103250736Y-55102312D01*
X103482262Y-55662649D01*
X103658861Y-55839557D01*
X103588782Y-55886382D01*
X102565300Y-56909864D01*
X101616418Y-55960982D01*
X101515129Y-55893303D01*
X101441630Y-55844192D01*
X101621231Y-55664904D01*
X101853735Y-55104972D01*
X101854264Y-54498688D01*
X101622738Y-53938351D01*
X101194404Y-53509269D01*
X100634472Y-53276765D01*
X100028188Y-53276236D01*
X99467851Y-53507762D01*
X99038769Y-53936096D01*
X98806265Y-54496028D01*
X98805736Y-55102312D01*
X99037262Y-55662649D01*
X99075147Y-55700600D01*
X97524900Y-55700600D01*
X97184694Y-55768271D01*
X96997571Y-55893303D01*
X96896282Y-55960982D01*
X96151532Y-56705732D01*
X95583188Y-56705236D01*
X95022851Y-56936762D01*
X94593769Y-57365096D01*
X94361265Y-57925028D01*
X94360736Y-58531312D01*
X94592262Y-59091649D01*
X95020596Y-59520731D01*
X95580528Y-59753235D01*
X96186812Y-59753764D01*
X96747149Y-59522238D01*
X97176231Y-59093904D01*
X97408735Y-58533972D01*
X97409234Y-57962502D01*
X97893136Y-57478600D01*
X98991638Y-57478600D01*
X98806265Y-57925028D01*
X98805736Y-58531312D01*
X98848079Y-58633790D01*
X95333631Y-62148239D01*
X94919472Y-61976265D01*
X94313188Y-61975736D01*
X93752851Y-62207262D01*
X93323769Y-62635596D01*
X93312595Y-62662506D01*
X93147196Y-62607409D01*
X92254605Y-63500000D01*
X91895395Y-63500000D01*
X91002804Y-62607409D01*
X90747461Y-62692467D01*
X90714800Y-62781902D01*
X90714800Y-62427804D01*
X91182409Y-62427804D01*
X92075000Y-63320395D01*
X92967591Y-62427804D01*
X92882533Y-62172461D01*
X92313035Y-61964484D01*
X91707300Y-61990277D01*
X91267467Y-62172461D01*
X91182409Y-62427804D01*
X90714800Y-62427804D01*
X90714800Y-59587106D01*
X91201965Y-59765016D01*
X91807700Y-59739223D01*
X92247533Y-59557039D01*
X92332591Y-59301696D01*
X91440000Y-58409105D01*
X91425858Y-58423248D01*
X91246253Y-58243643D01*
X91260395Y-58229500D01*
X91619605Y-58229500D01*
X92512196Y-59122091D01*
X92767539Y-59037033D01*
X92975516Y-58467535D01*
X92949723Y-57861800D01*
X92767539Y-57421967D01*
X92512196Y-57336909D01*
X91619605Y-58229500D01*
X91260395Y-58229500D01*
X91246253Y-58215358D01*
X91425858Y-58035753D01*
X91440000Y-58049895D01*
X92332591Y-57157304D01*
X92247533Y-56901961D01*
X91678035Y-56693984D01*
X91072300Y-56719777D01*
X90714800Y-56867858D01*
X90714800Y-56603330D01*
X91035451Y-56282679D01*
X91135528Y-56324235D01*
X91741812Y-56324764D01*
X92302149Y-56093238D01*
X92731231Y-55664904D01*
X92963735Y-55104972D01*
X92963737Y-55102312D01*
X94360736Y-55102312D01*
X94592262Y-55662649D01*
X95020596Y-56091731D01*
X95580528Y-56324235D01*
X96186812Y-56324764D01*
X96747149Y-56093238D01*
X97176231Y-55664904D01*
X97408735Y-55104972D01*
X97409264Y-54498688D01*
X97177738Y-53938351D01*
X96749404Y-53509269D01*
X96189472Y-53276765D01*
X95583188Y-53276236D01*
X95022851Y-53507762D01*
X94593769Y-53936096D01*
X94361265Y-54496028D01*
X94360736Y-55102312D01*
X92963737Y-55102312D01*
X92964264Y-54498688D01*
X92732738Y-53938351D01*
X92304404Y-53509269D01*
X91744472Y-53276765D01*
X91138188Y-53276236D01*
X90577851Y-53507762D01*
X90148769Y-53936096D01*
X89916265Y-54496028D01*
X89915736Y-55102312D01*
X89958079Y-55204790D01*
X89413985Y-55748885D01*
X89248804Y-55996095D01*
X89190800Y-56287700D01*
X88315000Y-56287700D01*
X88315000Y-49597467D01*
X88468602Y-48825259D01*
X88867807Y-48227807D01*
X89465257Y-47828602D01*
X90237467Y-47675000D01*
X160527469Y-47675000D01*
X155941970Y-52260500D01*
X155941970Y-52260500D01*
G37*
X155941970Y-52260500D02*
X153958932Y-52260500D01*
X154208909Y-52010959D01*
X154534628Y-51226541D01*
X154535370Y-50377185D01*
X154211020Y-49592200D01*
X153610959Y-48991091D01*
X152826541Y-48665372D01*
X151977185Y-48664630D01*
X151192200Y-48988980D01*
X150591091Y-49589041D01*
X150265372Y-50373459D01*
X150264630Y-51222815D01*
X150588980Y-52007800D01*
X150841239Y-52260500D01*
X150368000Y-52260500D01*
X150076395Y-52318504D01*
X149829184Y-52483685D01*
X138390049Y-63922821D01*
X138289972Y-63881265D01*
X137683688Y-63880736D01*
X137123351Y-64112262D01*
X136694269Y-64540596D01*
X136461765Y-65100528D01*
X136461236Y-65706812D01*
X136692762Y-66267149D01*
X137121096Y-66696231D01*
X137223500Y-66738753D01*
X137223500Y-68135500D01*
X137281504Y-68427105D01*
X137426095Y-68643500D01*
X137446685Y-68674315D01*
X137852560Y-69080190D01*
X137852560Y-70650000D01*
X137896838Y-70885317D01*
X138035910Y-71101441D01*
X138248110Y-71246431D01*
X138397074Y-71276597D01*
X138249352Y-71375302D01*
X137938283Y-71840849D01*
X137829050Y-72390000D01*
X137938283Y-72939151D01*
X138249352Y-73404698D01*
X138631438Y-73660000D01*
X138249352Y-73915302D01*
X137938283Y-74380849D01*
X137829050Y-74930000D01*
X137938283Y-75479151D01*
X138249352Y-75944698D01*
X138627707Y-76197507D01*
X138195500Y-76545104D01*
X137925633Y-77038181D01*
X137908096Y-77120961D01*
X138030085Y-77343000D01*
X139573000Y-77343000D01*
X139573000Y-77323000D01*
X139827000Y-77323000D01*
X139827000Y-77343000D01*
X141369915Y-77343000D01*
X141491904Y-77120961D01*
X141474367Y-77038181D01*
X141204500Y-76545104D01*
X140772293Y-76197507D01*
X141150648Y-75944698D01*
X141259163Y-75782294D01*
X142505900Y-77029031D01*
X142505900Y-96368870D01*
X140813937Y-98060833D01*
X140734915Y-97917000D01*
X139192000Y-97917000D01*
X139192000Y-97937000D01*
X138938000Y-97937000D01*
X138938000Y-97917000D01*
X138918000Y-97917000D01*
X138918000Y-97663000D01*
X138938000Y-97663000D01*
X138938000Y-97643000D01*
X139192000Y-97643000D01*
X139192000Y-97663000D01*
X140734915Y-97663000D01*
X140856904Y-97440961D01*
X140839367Y-97358181D01*
X140569500Y-96865104D01*
X140137293Y-96517507D01*
X140515648Y-96264698D01*
X140826717Y-95799151D01*
X140935950Y-95250000D01*
X140826717Y-94700849D01*
X140515648Y-94235302D01*
X140133562Y-93980000D01*
X140515648Y-93724698D01*
X140684496Y-93472000D01*
X140849500Y-93472000D01*
X141141105Y-93413996D01*
X141388315Y-93248815D01*
X141553496Y-93001605D01*
X141611500Y-92710000D01*
X141611500Y-87030195D01*
X141641649Y-87017738D01*
X142070731Y-86589404D01*
X142303235Y-86029472D01*
X142303764Y-85423188D01*
X142072238Y-84862851D01*
X141643904Y-84433769D01*
X141083972Y-84201265D01*
X140477688Y-84200736D01*
X139917351Y-84432262D01*
X139488269Y-84860596D01*
X139255765Y-85420528D01*
X139255236Y-86026812D01*
X139486762Y-86587149D01*
X139915096Y-87016231D01*
X140087500Y-87087819D01*
X140087500Y-88722560D01*
X138568190Y-88722560D01*
X138042500Y-88196870D01*
X138042500Y-87088042D01*
X138212649Y-87017738D01*
X138641731Y-86589404D01*
X138874235Y-86029472D01*
X138874764Y-85423188D01*
X138643238Y-84862851D01*
X138214904Y-84433769D01*
X137654972Y-84201265D01*
X137048688Y-84200736D01*
X136488351Y-84432262D01*
X136059269Y-84860596D01*
X135826765Y-85420528D01*
X135826236Y-86026812D01*
X136057762Y-86587149D01*
X136486096Y-87016231D01*
X136518500Y-87029686D01*
X136518500Y-88512500D01*
X136576504Y-88804105D01*
X136720323Y-89019344D01*
X136741685Y-89051315D01*
X137217560Y-89527190D01*
X137217560Y-90970000D01*
X137261838Y-91205317D01*
X137400910Y-91421441D01*
X137613110Y-91566431D01*
X137762074Y-91596597D01*
X137614352Y-91695302D01*
X137303283Y-92160849D01*
X137194050Y-92710000D01*
X137303283Y-93259151D01*
X137614352Y-93724698D01*
X137996438Y-93980000D01*
X137614352Y-94235302D01*
X137303283Y-94700849D01*
X137194050Y-95250000D01*
X137262458Y-95593911D01*
X136741685Y-96114685D01*
X136576504Y-96361895D01*
X136518500Y-96653500D01*
X136518500Y-98873169D01*
X135936585Y-99455085D01*
X135931372Y-99462887D01*
X135926159Y-99455085D01*
X135833415Y-99316284D01*
X134307130Y-97790000D01*
X135172016Y-96925115D01*
X135337197Y-96677904D01*
X135395200Y-96386300D01*
X135395200Y-78238700D01*
X135337196Y-77947095D01*
X135251632Y-77819039D01*
X137908096Y-77819039D01*
X137925633Y-77901819D01*
X138195500Y-78394896D01*
X138633517Y-78747166D01*
X139173000Y-78905000D01*
X139573000Y-78905000D01*
X139573000Y-77597000D01*
X139827000Y-77597000D01*
X139827000Y-78905000D01*
X140227000Y-78905000D01*
X140766483Y-78747166D01*
X141204500Y-78394896D01*
X141474367Y-77901819D01*
X141491904Y-77819039D01*
X141369915Y-77597000D01*
X139827000Y-77597000D01*
X139573000Y-77597000D01*
X138030085Y-77597000D01*
X137908096Y-77819039D01*
X135251632Y-77819039D01*
X135172015Y-77699885D01*
X134942130Y-77470000D01*
X135830815Y-76581315D01*
X135937403Y-76421795D01*
X135995996Y-76334105D01*
X136054000Y-76042500D01*
X136054000Y-60373831D01*
X136117149Y-60347738D01*
X136546231Y-59919404D01*
X136778735Y-59359472D01*
X136779264Y-58753188D01*
X136547738Y-58192851D01*
X136119404Y-57763769D01*
X135694169Y-57587196D01*
X136902409Y-57587196D01*
X136987467Y-57842539D01*
X137556965Y-58050516D01*
X138162700Y-58024723D01*
X138602533Y-57842539D01*
X138687591Y-57587196D01*
X137795000Y-56694605D01*
X136902409Y-57587196D01*
X135694169Y-57587196D01*
X135559472Y-57531265D01*
X134953188Y-57530736D01*
X134392851Y-57762262D01*
X133963769Y-58190596D01*
X133731265Y-58750528D01*
X133730736Y-59356812D01*
X133962262Y-59917149D01*
X134390596Y-60346231D01*
X134530000Y-60404117D01*
X134530000Y-64060243D01*
X134098972Y-63881265D01*
X133492688Y-63880736D01*
X132932351Y-64112262D01*
X132503269Y-64540596D01*
X132270765Y-65100528D01*
X132270236Y-65706812D01*
X132501762Y-66267149D01*
X132930096Y-66696231D01*
X133102500Y-66767819D01*
X133102500Y-68549222D01*
X133065101Y-68524233D01*
X132515950Y-68415000D01*
X131644050Y-68415000D01*
X131094899Y-68524233D01*
X130629352Y-68835302D01*
X130318283Y-69300849D01*
X130245870Y-69664894D01*
X129539882Y-70370882D01*
X129347171Y-70659294D01*
X129279500Y-70999500D01*
X129279500Y-80667000D01*
X129347171Y-81007206D01*
X129509924Y-81250782D01*
X129539882Y-81295618D01*
X130491900Y-82247636D01*
X130491900Y-84390998D01*
X130034972Y-84201265D01*
X129428688Y-84200736D01*
X128868351Y-84432262D01*
X128439269Y-84860596D01*
X128206765Y-85420528D01*
X128206236Y-86026812D01*
X128437762Y-86587149D01*
X128866096Y-87016231D01*
X129426028Y-87248735D01*
X130032312Y-87249264D01*
X130491900Y-87059367D01*
X130491900Y-88195764D01*
X128904882Y-89782782D01*
X128712171Y-90071194D01*
X128644500Y-90411400D01*
X128644500Y-99557200D01*
X128712171Y-99897406D01*
X128878747Y-100146704D01*
X128904882Y-100185818D01*
X132443464Y-103724400D01*
X131451382Y-104716482D01*
X131347653Y-104871723D01*
X131229904Y-104753769D01*
X130669972Y-104521265D01*
X130063688Y-104520736D01*
X129503351Y-104752262D01*
X129074269Y-105180596D01*
X128841765Y-105740528D01*
X128841236Y-106346812D01*
X129072762Y-106907149D01*
X129501096Y-107336231D01*
X130061028Y-107568735D01*
X130667312Y-107569264D01*
X131191000Y-107352881D01*
X131191000Y-109145117D01*
X131094899Y-109164233D01*
X130629352Y-109475302D01*
X130318283Y-109940849D01*
X130209050Y-110490000D01*
X130318283Y-111039151D01*
X130629352Y-111504698D01*
X131011438Y-111760000D01*
X130629352Y-112015302D01*
X130318283Y-112480849D01*
X130209050Y-113030000D01*
X130318283Y-113579151D01*
X130629352Y-114044698D01*
X131011438Y-114300000D01*
X130629352Y-114555302D01*
X130318283Y-115020849D01*
X130209050Y-115570000D01*
X130318283Y-116119151D01*
X130629352Y-116584698D01*
X131011438Y-116840000D01*
X130629352Y-117095302D01*
X130318283Y-117560849D01*
X130295868Y-117673537D01*
X128372800Y-115750470D01*
X128372800Y-112180300D01*
X128314796Y-111888695D01*
X128149615Y-111641485D01*
X127212179Y-110704049D01*
X127253735Y-110603972D01*
X127254264Y-109997688D01*
X127022738Y-109437351D01*
X126594404Y-109008269D01*
X126034472Y-108775765D01*
X125428188Y-108775236D01*
X124867851Y-109006762D01*
X124438769Y-109435096D01*
X124206265Y-109995028D01*
X124205736Y-110601312D01*
X124437262Y-111161649D01*
X124865596Y-111590731D01*
X125425528Y-111823235D01*
X126031812Y-111823764D01*
X126134291Y-111781421D01*
X126848800Y-112495930D01*
X126848800Y-113454109D01*
X126594404Y-113199269D01*
X126034472Y-112966765D01*
X125428188Y-112966236D01*
X124867851Y-113197762D01*
X124438769Y-113626096D01*
X124206265Y-114186028D01*
X124205736Y-114792312D01*
X124437262Y-115352649D01*
X124865596Y-115781731D01*
X125425528Y-116014235D01*
X125475048Y-116014278D01*
X125856379Y-116395610D01*
X125428188Y-116395236D01*
X125325710Y-116437579D01*
X122839815Y-113951685D01*
X122662338Y-113833098D01*
X122577738Y-113628351D01*
X122149404Y-113199269D01*
X121589472Y-112966765D01*
X120983188Y-112966236D01*
X120880709Y-113008579D01*
X120519100Y-112646970D01*
X120519100Y-111631633D01*
X120980528Y-111823235D01*
X121586812Y-111823764D01*
X122147149Y-111592238D01*
X122576231Y-111163904D01*
X122662127Y-110957042D01*
X122839815Y-110838315D01*
X125325451Y-108352680D01*
X125425528Y-108394235D01*
X126031812Y-108394764D01*
X126592149Y-108163238D01*
X127021231Y-107734904D01*
X127253735Y-107174972D01*
X127254264Y-106568688D01*
X127022738Y-106008351D01*
X126594404Y-105579269D01*
X126034472Y-105346765D01*
X125428188Y-105346236D01*
X124867851Y-105577762D01*
X124438769Y-106006096D01*
X124206265Y-106566028D01*
X124205736Y-107172312D01*
X124248079Y-107274790D01*
X122331843Y-109191027D01*
X122149404Y-109008269D01*
X121589472Y-108775765D01*
X120983188Y-108775236D01*
X120519100Y-108966993D01*
X120519100Y-108714030D01*
X120880451Y-108352679D01*
X120980528Y-108394235D01*
X121586812Y-108394764D01*
X122147149Y-108163238D01*
X122576231Y-107734904D01*
X122808735Y-107174972D01*
X122809264Y-106568688D01*
X122577738Y-106008351D01*
X122149404Y-105579269D01*
X121589472Y-105346765D01*
X120983188Y-105346236D01*
X120422851Y-105577762D01*
X119993769Y-106006096D01*
X119761265Y-106566028D01*
X119760736Y-107172312D01*
X119803079Y-107274791D01*
X119441470Y-107636400D01*
X118172133Y-107636400D01*
X118363735Y-107174972D01*
X118364264Y-106568688D01*
X118132738Y-106008351D01*
X117704404Y-105579269D01*
X117144472Y-105346765D01*
X116538188Y-105346236D01*
X115977851Y-105577762D01*
X115548769Y-106006096D01*
X115316265Y-106566028D01*
X115315736Y-107172312D01*
X115507493Y-107636400D01*
X114238530Y-107636400D01*
X113877179Y-107275049D01*
X113918735Y-107174972D01*
X113919264Y-106568688D01*
X113687738Y-106008351D01*
X113259404Y-105579269D01*
X112699472Y-105346765D01*
X112093188Y-105346236D01*
X111532851Y-105577762D01*
X111103769Y-106006096D01*
X110871265Y-106566028D01*
X110870736Y-107172312D01*
X111102262Y-107732649D01*
X111530596Y-108161731D01*
X112090528Y-108394235D01*
X112696812Y-108394764D01*
X112799291Y-108352421D01*
X113384085Y-108937215D01*
X113631295Y-109102396D01*
X113922900Y-109160400D01*
X115823945Y-109160400D01*
X115548769Y-109435096D01*
X115316265Y-109995028D01*
X115315736Y-110601312D01*
X115547262Y-111161649D01*
X115975596Y-111590731D01*
X116535528Y-111823235D01*
X117141812Y-111823764D01*
X117702149Y-111592238D01*
X118131231Y-111163904D01*
X118363735Y-110603972D01*
X118364264Y-109997688D01*
X118132738Y-109437351D01*
X117856270Y-109160400D01*
X118995100Y-109160400D01*
X118995100Y-112962600D01*
X119053104Y-113254205D01*
X119167830Y-113425904D01*
X119218285Y-113501415D01*
X119802821Y-114085951D01*
X119761265Y-114186028D01*
X119760736Y-114792312D01*
X119992262Y-115352649D01*
X120420596Y-115781731D01*
X120980528Y-116014235D01*
X121586812Y-116014764D01*
X122147149Y-115783238D01*
X122331789Y-115598920D01*
X124247820Y-117514951D01*
X124206265Y-117615028D01*
X124205736Y-118221312D01*
X124437262Y-118781649D01*
X124865596Y-119210731D01*
X125425528Y-119443235D01*
X126031812Y-119443764D01*
X126592149Y-119212238D01*
X127021231Y-118783904D01*
X127253735Y-118223972D01*
X127254111Y-117793341D01*
X129671169Y-120210400D01*
X124653531Y-120210400D01*
X122767179Y-118324049D01*
X122808735Y-118223972D01*
X122809264Y-117617688D01*
X122577738Y-117057351D01*
X122149404Y-116628269D01*
X121589472Y-116395765D01*
X120983188Y-116395236D01*
X120422851Y-116626762D01*
X120238211Y-116811080D01*
X118322179Y-114895049D01*
X118363735Y-114794972D01*
X118364264Y-114188688D01*
X118132738Y-113628351D01*
X117704404Y-113199269D01*
X117144472Y-112966765D01*
X116538188Y-112966236D01*
X115977851Y-113197762D01*
X115548769Y-113626096D01*
X115316265Y-114186028D01*
X115315736Y-114792312D01*
X115547262Y-115352649D01*
X115975596Y-115781731D01*
X116535528Y-116014235D01*
X117141812Y-116014764D01*
X117244291Y-115972421D01*
X119730184Y-118458315D01*
X119855157Y-118541819D01*
X119907662Y-118576902D01*
X119992262Y-118781649D01*
X120420596Y-119210731D01*
X120980528Y-119443235D01*
X121586812Y-119443764D01*
X121689291Y-119401421D01*
X123522869Y-121235000D01*
X90237467Y-121235000D01*
X89465257Y-121081398D01*
X88867807Y-120682193D01*
X88468602Y-120084741D01*
X88361013Y-119543855D01*
X96688150Y-119543855D01*
X96915915Y-119920542D01*
X97908335Y-120323489D01*
X98979412Y-120315980D01*
X99934085Y-119920542D01*
X100161850Y-119543855D01*
X98425000Y-117807005D01*
X96688150Y-119543855D01*
X88361013Y-119543855D01*
X88315000Y-119312533D01*
X88315000Y-117110735D01*
X95728911Y-117110735D01*
X95736420Y-118181812D01*
X96131858Y-119136485D01*
X96508545Y-119364250D01*
X98245395Y-117627400D01*
X98604605Y-117627400D01*
X100341455Y-119364250D01*
X100718142Y-119136485D01*
X101121089Y-118144065D01*
X101118612Y-117790658D01*
X104444413Y-117790658D01*
X104783985Y-118612485D01*
X105412208Y-119241805D01*
X106233441Y-119582811D01*
X107122658Y-119583587D01*
X107944485Y-119244015D01*
X108197244Y-118991696D01*
X111502409Y-118991696D01*
X111587467Y-119247039D01*
X112156965Y-119455016D01*
X112762700Y-119429223D01*
X113202533Y-119247039D01*
X113287591Y-118991696D01*
X112395000Y-118099105D01*
X111502409Y-118991696D01*
X108197244Y-118991696D01*
X108573805Y-118615792D01*
X108914811Y-117794559D01*
X108914909Y-117681465D01*
X110859484Y-117681465D01*
X110885277Y-118287200D01*
X111067461Y-118727033D01*
X111322804Y-118812091D01*
X112215395Y-117919500D01*
X112574605Y-117919500D01*
X113467196Y-118812091D01*
X113722539Y-118727033D01*
X113907225Y-118221312D01*
X115315736Y-118221312D01*
X115547262Y-118781649D01*
X115975596Y-119210731D01*
X116535528Y-119443235D01*
X117141812Y-119443764D01*
X117702149Y-119212238D01*
X118131231Y-118783904D01*
X118363735Y-118223972D01*
X118364264Y-117617688D01*
X118132738Y-117057351D01*
X117704404Y-116628269D01*
X117144472Y-116395765D01*
X116538188Y-116395236D01*
X115977851Y-116626762D01*
X115548769Y-117055096D01*
X115316265Y-117615028D01*
X115315736Y-118221312D01*
X113907225Y-118221312D01*
X113930516Y-118157535D01*
X113904723Y-117551800D01*
X113722539Y-117111967D01*
X113467196Y-117026909D01*
X112574605Y-117919500D01*
X112215395Y-117919500D01*
X111322804Y-117026909D01*
X111067461Y-117111967D01*
X110859484Y-117681465D01*
X108914909Y-117681465D01*
X108915587Y-116905342D01*
X108891607Y-116847304D01*
X111502409Y-116847304D01*
X112395000Y-117739895D01*
X113287591Y-116847304D01*
X113202533Y-116591961D01*
X112633035Y-116383984D01*
X112027300Y-116409777D01*
X111587467Y-116591961D01*
X111502409Y-116847304D01*
X108891607Y-116847304D01*
X108576015Y-116083515D01*
X107947792Y-115454195D01*
X107126559Y-115113189D01*
X106237342Y-115112413D01*
X105415515Y-115451985D01*
X104786195Y-116080208D01*
X104445189Y-116901441D01*
X104444413Y-117790658D01*
X101118612Y-117790658D01*
X101113580Y-117072988D01*
X100718142Y-116118315D01*
X100341455Y-115890550D01*
X98604605Y-117627400D01*
X98245395Y-117627400D01*
X96508545Y-115890550D01*
X96131858Y-116118315D01*
X95728911Y-117110735D01*
X88315000Y-117110735D01*
X88315000Y-114946455D01*
X93386150Y-114946455D01*
X93613915Y-115323142D01*
X94606335Y-115726089D01*
X95677412Y-115718580D01*
X95695844Y-115710945D01*
X96688150Y-115710945D01*
X98425000Y-117447795D01*
X100161850Y-115710945D01*
X100041699Y-115512234D01*
X100055820Y-115526380D01*
X101138354Y-115975887D01*
X102310504Y-115976910D01*
X103393821Y-115529293D01*
X104132088Y-114792312D01*
X110870736Y-114792312D01*
X111102262Y-115352649D01*
X111530596Y-115781731D01*
X112090528Y-116014235D01*
X112696812Y-116014764D01*
X113257149Y-115783238D01*
X113686231Y-115354904D01*
X113918735Y-114794972D01*
X113919264Y-114188688D01*
X113687738Y-113628351D01*
X113259404Y-113199269D01*
X112699472Y-112966765D01*
X112093188Y-112966236D01*
X111532851Y-113197762D01*
X111103769Y-113626096D01*
X110871265Y-114186028D01*
X110870736Y-114792312D01*
X104132088Y-114792312D01*
X104223380Y-114701180D01*
X104672887Y-113618646D01*
X104673910Y-112446496D01*
X104226293Y-111363179D01*
X103465755Y-110601312D01*
X110870736Y-110601312D01*
X111102262Y-111161649D01*
X111530596Y-111590731D01*
X112090528Y-111823235D01*
X112696812Y-111823764D01*
X113257149Y-111592238D01*
X113686231Y-111163904D01*
X113918735Y-110603972D01*
X113919264Y-109997688D01*
X113687738Y-109437351D01*
X113259404Y-109008269D01*
X112699472Y-108775765D01*
X112093188Y-108775236D01*
X111532851Y-109006762D01*
X111103769Y-109435096D01*
X110871265Y-109995028D01*
X110870736Y-110601312D01*
X103465755Y-110601312D01*
X103398180Y-110533620D01*
X102315646Y-110084113D01*
X101143496Y-110083090D01*
X100060179Y-110530707D01*
X99230620Y-111358820D01*
X98781113Y-112441354D01*
X98780090Y-113613504D01*
X99227707Y-114696821D01*
X99816288Y-115286429D01*
X98941665Y-114931311D01*
X97870588Y-114938820D01*
X96915915Y-115334258D01*
X96688150Y-115710945D01*
X95695844Y-115710945D01*
X96632085Y-115323142D01*
X96859850Y-114946455D01*
X95123000Y-113209605D01*
X93386150Y-114946455D01*
X88315000Y-114946455D01*
X88315000Y-112513335D01*
X92426911Y-112513335D01*
X92434420Y-113584412D01*
X92829858Y-114539085D01*
X93206545Y-114766850D01*
X94943395Y-113030000D01*
X95302605Y-113030000D01*
X97039455Y-114766850D01*
X97416142Y-114539085D01*
X97819089Y-113546665D01*
X97811580Y-112475588D01*
X97416142Y-111520915D01*
X97039455Y-111293150D01*
X95302605Y-113030000D01*
X94943395Y-113030000D01*
X93206545Y-111293150D01*
X92829858Y-111520915D01*
X92426911Y-112513335D01*
X88315000Y-112513335D01*
X88315000Y-111113545D01*
X93386150Y-111113545D01*
X95123000Y-112850395D01*
X96859850Y-111113545D01*
X96632085Y-110736858D01*
X95639665Y-110333911D01*
X94568588Y-110341420D01*
X93613915Y-110736858D01*
X93386150Y-111113545D01*
X88315000Y-111113545D01*
X88315000Y-102594660D01*
X95389385Y-102594660D01*
X95665287Y-103262394D01*
X96175719Y-103773717D01*
X96842970Y-104050785D01*
X97565460Y-104051415D01*
X98233194Y-103775513D01*
X98744517Y-103265081D01*
X99021585Y-102597830D01*
X99022215Y-101875340D01*
X98746313Y-101207606D01*
X98235881Y-100696283D01*
X97568630Y-100419215D01*
X96846140Y-100418585D01*
X96178406Y-100694487D01*
X95667083Y-101204919D01*
X95390015Y-101872170D01*
X95389385Y-102594660D01*
X88315000Y-102594660D01*
X88315000Y-92735451D01*
X92887356Y-92735451D01*
X93277092Y-93678684D01*
X93998120Y-94400972D01*
X94940672Y-94792354D01*
X95961251Y-94793244D01*
X96904484Y-94403508D01*
X97626772Y-93682480D01*
X98018154Y-92739928D01*
X98019044Y-91719349D01*
X97629308Y-90776116D01*
X96908280Y-90053828D01*
X95965728Y-89662446D01*
X94945149Y-89661556D01*
X94001916Y-90051292D01*
X93279628Y-90772320D01*
X92888246Y-91714872D01*
X92887356Y-92735451D01*
X88315000Y-92735451D01*
X88315000Y-76311312D01*
X93090736Y-76311312D01*
X93322262Y-76871649D01*
X93750596Y-77300731D01*
X94310528Y-77533235D01*
X94916812Y-77533764D01*
X95019290Y-77491421D01*
X95341100Y-77813231D01*
X95341100Y-78216840D01*
X94919472Y-78041765D01*
X94313188Y-78041236D01*
X93752851Y-78272762D01*
X93323769Y-78701096D01*
X93091265Y-79261028D01*
X93090736Y-79867312D01*
X93322262Y-80427649D01*
X93750596Y-80856731D01*
X94310528Y-81089235D01*
X94916812Y-81089764D01*
X95341100Y-80914452D01*
X95341100Y-81190769D01*
X95019549Y-81512321D01*
X94919472Y-81470765D01*
X94313188Y-81470236D01*
X93752851Y-81701762D01*
X93323769Y-82130096D01*
X93091265Y-82690028D01*
X93090736Y-83296312D01*
X93322262Y-83856649D01*
X93750596Y-84285731D01*
X94310528Y-84518235D01*
X94916812Y-84518764D01*
X95477149Y-84287238D01*
X95906231Y-83858904D01*
X96138735Y-83298972D01*
X96139264Y-82692688D01*
X96096921Y-82590210D01*
X96641915Y-82045216D01*
X96807096Y-81798005D01*
X96826240Y-81701762D01*
X96865100Y-81506400D01*
X96865100Y-77497600D01*
X96807096Y-77205995D01*
X96730368Y-77091164D01*
X96641915Y-76958784D01*
X96097179Y-76414049D01*
X96138735Y-76313972D01*
X96139264Y-75707688D01*
X95907738Y-75147351D01*
X95479404Y-74718269D01*
X94919472Y-74485765D01*
X94313188Y-74485236D01*
X93752851Y-74716762D01*
X93323769Y-75145096D01*
X93091265Y-75705028D01*
X93090736Y-76311312D01*
X88315000Y-76311312D01*
X88315000Y-72882312D01*
X93090736Y-72882312D01*
X93322262Y-73442649D01*
X93750596Y-73871731D01*
X94310528Y-74104235D01*
X94916812Y-74104764D01*
X95477149Y-73873238D01*
X95906231Y-73444904D01*
X96138735Y-72884972D01*
X96139264Y-72278688D01*
X95907738Y-71718351D01*
X95479404Y-71289269D01*
X94919472Y-71056765D01*
X94313188Y-71056236D01*
X93752851Y-71287762D01*
X93323769Y-71716096D01*
X93091265Y-72276028D01*
X93090736Y-72882312D01*
X88315000Y-72882312D01*
X88315000Y-56287700D01*
X89190800Y-56287700D01*
X89190800Y-65822800D01*
X89248804Y-66114405D01*
X89376156Y-66305000D01*
X89413985Y-66361615D01*
X89957821Y-66905451D01*
X89916265Y-67005528D01*
X89915736Y-67611812D01*
X90147262Y-68172149D01*
X90575596Y-68601231D01*
X91135528Y-68833735D01*
X91741812Y-68834264D01*
X92302149Y-68602738D01*
X92710336Y-68195263D01*
X93115596Y-68601231D01*
X93675528Y-68833735D01*
X94281812Y-68834264D01*
X94842149Y-68602738D01*
X95271231Y-68174404D01*
X95503735Y-67614472D01*
X95504264Y-67008188D01*
X95272738Y-66447851D01*
X94844404Y-66018769D01*
X94284472Y-65786265D01*
X93678188Y-65785736D01*
X93117851Y-66017262D01*
X92709664Y-66424737D01*
X92304404Y-66018769D01*
X91744472Y-65786265D01*
X91138188Y-65785736D01*
X91035710Y-65828079D01*
X90714800Y-65507170D01*
X90714800Y-64572196D01*
X91182409Y-64572196D01*
X91267467Y-64827539D01*
X91836965Y-65035516D01*
X92442700Y-65009723D01*
X92882533Y-64827539D01*
X92967591Y-64572196D01*
X92075000Y-63679605D01*
X91182409Y-64572196D01*
X90714800Y-64572196D01*
X90714800Y-64228682D01*
X90747461Y-64307533D01*
X91002804Y-64392591D01*
X91895395Y-63500000D01*
X92254605Y-63500000D01*
X93147196Y-64392591D01*
X93312138Y-64337647D01*
X93322262Y-64362149D01*
X93750596Y-64791231D01*
X94310528Y-65023735D01*
X94916812Y-65024264D01*
X95477149Y-64792738D01*
X95906231Y-64364404D01*
X96138735Y-63804472D01*
X96139002Y-63498128D01*
X99925451Y-59711680D01*
X100025528Y-59753235D01*
X100631812Y-59753764D01*
X101192149Y-59522238D01*
X101621231Y-59093904D01*
X101676300Y-58961283D01*
X101676300Y-60896464D01*
X99701382Y-62871382D01*
X99508671Y-63159794D01*
X99441000Y-63500000D01*
X99441000Y-63903529D01*
X99214000Y-63857560D01*
X98144000Y-63857560D01*
X97908683Y-63901838D01*
X97692559Y-64040910D01*
X97547569Y-64253110D01*
X97496560Y-64505000D01*
X97496560Y-66305000D01*
X97540838Y-66540317D01*
X97679910Y-66756441D01*
X97892110Y-66901431D01*
X98144000Y-66952440D01*
X99214000Y-66952440D01*
X99441000Y-66909727D01*
X99441000Y-68453000D01*
X99508671Y-68793206D01*
X99701382Y-69081618D01*
X100717500Y-70097736D01*
X100717500Y-71089222D01*
X100680101Y-71064233D01*
X100130950Y-70955000D01*
X99259050Y-70955000D01*
X98709899Y-71064233D01*
X98244352Y-71375302D01*
X97933283Y-71840849D01*
X97824050Y-72390000D01*
X97933283Y-72939151D01*
X98244352Y-73404698D01*
X98626438Y-73660000D01*
X98244352Y-73915302D01*
X97933283Y-74380849D01*
X97824050Y-74930000D01*
X97933283Y-75479151D01*
X98244352Y-75944698D01*
X98626438Y-76200000D01*
X98244352Y-76455302D01*
X97933283Y-76920849D01*
X97824050Y-77470000D01*
X97933283Y-78019151D01*
X98244352Y-78484698D01*
X98626438Y-78740000D01*
X98244352Y-78995302D01*
X97933283Y-79460849D01*
X97824050Y-80010000D01*
X97933283Y-80559151D01*
X98244352Y-81024698D01*
X98709899Y-81335767D01*
X99259050Y-81445000D01*
X100130950Y-81445000D01*
X100680101Y-81335767D01*
X100717500Y-81310778D01*
X100717500Y-100418683D01*
X100605340Y-100418585D01*
X99937606Y-100694487D01*
X99426283Y-101204919D01*
X99149215Y-101872170D01*
X99148585Y-102594660D01*
X99424487Y-103262394D01*
X99934919Y-103773717D01*
X100602170Y-104050785D01*
X101324660Y-104051415D01*
X101992394Y-103775513D01*
X102249843Y-103518512D01*
X103620293Y-103518512D01*
X103741118Y-103804162D01*
X104416442Y-104060926D01*
X105138620Y-104039710D01*
X105707282Y-103804162D01*
X105828107Y-103518512D01*
X104724200Y-102414605D01*
X103620293Y-103518512D01*
X102249843Y-103518512D01*
X102503717Y-103265081D01*
X102780785Y-102597830D01*
X102781369Y-101927242D01*
X102898274Y-101927242D01*
X102919490Y-102649420D01*
X103155038Y-103218082D01*
X103440688Y-103338907D01*
X104544595Y-102235000D01*
X104903805Y-102235000D01*
X106007712Y-103338907D01*
X106293362Y-103218082D01*
X106550126Y-102542758D01*
X106528910Y-101820580D01*
X106293362Y-101251918D01*
X106007712Y-101131093D01*
X104903805Y-102235000D01*
X104544595Y-102235000D01*
X103440688Y-101131093D01*
X103155038Y-101251918D01*
X102898274Y-101927242D01*
X102781369Y-101927242D01*
X102781415Y-101875340D01*
X102505513Y-101207606D01*
X102249842Y-100951488D01*
X103620293Y-100951488D01*
X104724200Y-102055395D01*
X105828107Y-100951488D01*
X105707282Y-100665838D01*
X105031958Y-100409074D01*
X104309780Y-100430290D01*
X103741118Y-100665838D01*
X103620293Y-100951488D01*
X102249842Y-100951488D01*
X102241500Y-100943132D01*
X102241500Y-98671696D01*
X111502409Y-98671696D01*
X111587467Y-98927039D01*
X112156965Y-99135016D01*
X112762700Y-99109223D01*
X113202533Y-98927039D01*
X113287591Y-98671696D01*
X112395000Y-97779105D01*
X111502409Y-98671696D01*
X102241500Y-98671696D01*
X102241500Y-97361465D01*
X110859484Y-97361465D01*
X110885277Y-97967200D01*
X111067461Y-98407033D01*
X111322804Y-98492091D01*
X112215395Y-97599500D01*
X112574605Y-97599500D01*
X113467196Y-98492091D01*
X113722539Y-98407033D01*
X113907225Y-97901312D01*
X115315736Y-97901312D01*
X115547262Y-98461649D01*
X115975596Y-98890731D01*
X116535528Y-99123235D01*
X117141812Y-99123764D01*
X117702149Y-98892238D01*
X118131231Y-98463904D01*
X118363735Y-97903972D01*
X118364264Y-97297688D01*
X118132738Y-96737351D01*
X117704404Y-96308269D01*
X117144472Y-96075765D01*
X116538188Y-96075236D01*
X115977851Y-96306762D01*
X115548769Y-96735096D01*
X115316265Y-97295028D01*
X115315736Y-97901312D01*
X113907225Y-97901312D01*
X113930516Y-97837535D01*
X113904723Y-97231800D01*
X113722539Y-96791967D01*
X113467196Y-96706909D01*
X112574605Y-97599500D01*
X112215395Y-97599500D01*
X111322804Y-96706909D01*
X111067461Y-96791967D01*
X110859484Y-97361465D01*
X102241500Y-97361465D01*
X102241500Y-96527304D01*
X111502409Y-96527304D01*
X112395000Y-97419895D01*
X113287591Y-96527304D01*
X113202533Y-96271961D01*
X112633035Y-96063984D01*
X112027300Y-96089777D01*
X111587467Y-96271961D01*
X111502409Y-96527304D01*
X102241500Y-96527304D01*
X102241500Y-92735451D01*
X103910956Y-92735451D01*
X104300692Y-93678684D01*
X105021720Y-94400972D01*
X105964272Y-94792354D01*
X106984851Y-94793244D01*
X107761565Y-94472312D01*
X110870736Y-94472312D01*
X111102262Y-95032649D01*
X111530596Y-95461731D01*
X112090528Y-95694235D01*
X112696812Y-95694764D01*
X113257149Y-95463238D01*
X113686231Y-95034904D01*
X113918735Y-94474972D01*
X113918737Y-94472312D01*
X115315736Y-94472312D01*
X115547262Y-95032649D01*
X115975596Y-95461731D01*
X116535528Y-95694235D01*
X117141812Y-95694764D01*
X117244291Y-95652421D01*
X119730184Y-98138315D01*
X119855157Y-98221819D01*
X119907662Y-98256902D01*
X119992262Y-98461649D01*
X120420596Y-98890731D01*
X120980528Y-99123235D01*
X121586812Y-99123764D01*
X122147149Y-98892238D01*
X122576231Y-98463904D01*
X122808735Y-97903972D01*
X122809264Y-97297688D01*
X122577738Y-96737351D01*
X122149404Y-96308269D01*
X121589472Y-96075765D01*
X120983188Y-96075236D01*
X120422851Y-96306762D01*
X120238211Y-96491080D01*
X118322179Y-94575049D01*
X118363735Y-94474972D01*
X118364264Y-93868688D01*
X118132738Y-93308351D01*
X117704404Y-92879269D01*
X117144472Y-92646765D01*
X116538188Y-92646236D01*
X115977851Y-92877762D01*
X115548769Y-93306096D01*
X115316265Y-93866028D01*
X115315736Y-94472312D01*
X113918737Y-94472312D01*
X113919264Y-93868688D01*
X113687738Y-93308351D01*
X113259404Y-92879269D01*
X112699472Y-92646765D01*
X112093188Y-92646236D01*
X111532851Y-92877762D01*
X111103769Y-93306096D01*
X110871265Y-93866028D01*
X110870736Y-94472312D01*
X107761565Y-94472312D01*
X107928084Y-94403508D01*
X108650372Y-93682480D01*
X109041754Y-92739928D01*
X109042644Y-91719349D01*
X108652908Y-90776116D01*
X108158968Y-90281312D01*
X110870736Y-90281312D01*
X111102262Y-90841649D01*
X111530596Y-91270731D01*
X112090528Y-91503235D01*
X112696812Y-91503764D01*
X113257149Y-91272238D01*
X113686231Y-90843904D01*
X113918735Y-90283972D01*
X113919264Y-89677688D01*
X113687738Y-89117351D01*
X113259404Y-88688269D01*
X112699472Y-88455765D01*
X112093188Y-88455236D01*
X111532851Y-88686762D01*
X111103769Y-89115096D01*
X110871265Y-89675028D01*
X110870736Y-90281312D01*
X108158968Y-90281312D01*
X107931880Y-90053828D01*
X106989328Y-89662446D01*
X105968749Y-89661556D01*
X105025516Y-90051292D01*
X104303228Y-90772320D01*
X103911846Y-91714872D01*
X103910956Y-92735451D01*
X102241500Y-92735451D01*
X102241500Y-86852312D01*
X110870736Y-86852312D01*
X111102262Y-87412649D01*
X111530596Y-87841731D01*
X112090528Y-88074235D01*
X112696812Y-88074764D01*
X112799291Y-88032421D01*
X113384085Y-88617215D01*
X113631295Y-88782396D01*
X113922900Y-88840400D01*
X115823945Y-88840400D01*
X115548769Y-89115096D01*
X115316265Y-89675028D01*
X115315736Y-90281312D01*
X115547262Y-90841649D01*
X115975596Y-91270731D01*
X116535528Y-91503235D01*
X117141812Y-91503764D01*
X117702149Y-91272238D01*
X118131231Y-90843904D01*
X118363735Y-90283972D01*
X118364264Y-89677688D01*
X118132738Y-89117351D01*
X117856270Y-88840400D01*
X118995100Y-88840400D01*
X118995100Y-92642600D01*
X119053104Y-92934205D01*
X119147008Y-93074742D01*
X119218285Y-93181415D01*
X119802821Y-93765951D01*
X119761265Y-93866028D01*
X119760736Y-94472312D01*
X119992262Y-95032649D01*
X120420596Y-95461731D01*
X120980528Y-95694235D01*
X121586812Y-95694764D01*
X122147149Y-95463238D01*
X122331789Y-95278920D01*
X124247820Y-97194951D01*
X124206265Y-97295028D01*
X124205736Y-97901312D01*
X124437262Y-98461649D01*
X124865596Y-98890731D01*
X125425528Y-99123235D01*
X126031812Y-99123764D01*
X126592149Y-98892238D01*
X127021231Y-98463904D01*
X127253735Y-97903972D01*
X127254264Y-97297688D01*
X127022738Y-96737351D01*
X126594404Y-96308269D01*
X126034472Y-96075765D01*
X125428188Y-96075236D01*
X125325710Y-96117579D01*
X123680443Y-94472312D01*
X124205736Y-94472312D01*
X124437262Y-95032649D01*
X124865596Y-95461731D01*
X125425528Y-95694235D01*
X126031812Y-95694764D01*
X126592149Y-95463238D01*
X127021231Y-95034904D01*
X127253735Y-94474972D01*
X127254264Y-93868688D01*
X127022738Y-93308351D01*
X126594404Y-92879269D01*
X126034472Y-92646765D01*
X125428188Y-92646236D01*
X124867851Y-92877762D01*
X124438769Y-93306096D01*
X124206265Y-93866028D01*
X124205736Y-94472312D01*
X123680443Y-94472312D01*
X122839815Y-93631685D01*
X122743001Y-93566996D01*
X122662338Y-93513098D01*
X122577738Y-93308351D01*
X122149404Y-92879269D01*
X121589472Y-92646765D01*
X120983188Y-92646236D01*
X120880709Y-92688579D01*
X120519100Y-92326970D01*
X120519100Y-91311633D01*
X120980528Y-91503235D01*
X121586812Y-91503764D01*
X122147149Y-91272238D01*
X122576231Y-90843904D01*
X122662127Y-90637042D01*
X122839815Y-90518315D01*
X123076818Y-90281312D01*
X124205736Y-90281312D01*
X124437262Y-90841649D01*
X124865596Y-91270731D01*
X125425528Y-91503235D01*
X126031812Y-91503764D01*
X126592149Y-91272238D01*
X127021231Y-90843904D01*
X127253735Y-90283972D01*
X127254264Y-89677688D01*
X127022738Y-89117351D01*
X126594404Y-88688269D01*
X126034472Y-88455765D01*
X125428188Y-88455236D01*
X124867851Y-88686762D01*
X124438769Y-89115096D01*
X124206265Y-89675028D01*
X124205736Y-90281312D01*
X123076818Y-90281312D01*
X125325451Y-88032680D01*
X125425528Y-88074235D01*
X126031812Y-88074764D01*
X126592149Y-87843238D01*
X127021231Y-87414904D01*
X127253735Y-86854972D01*
X127254264Y-86248688D01*
X127022738Y-85688351D01*
X126594404Y-85259269D01*
X126034472Y-85026765D01*
X125428188Y-85026236D01*
X124867851Y-85257762D01*
X124438769Y-85686096D01*
X124206265Y-86246028D01*
X124205736Y-86852312D01*
X124248079Y-86954790D01*
X122331843Y-88871027D01*
X122149404Y-88688269D01*
X121589472Y-88455765D01*
X120983188Y-88455236D01*
X120519100Y-88646993D01*
X120519100Y-88394030D01*
X120880451Y-88032679D01*
X120980528Y-88074235D01*
X121586812Y-88074764D01*
X122147149Y-87843238D01*
X122576231Y-87414904D01*
X122808735Y-86854972D01*
X122809264Y-86248688D01*
X122577738Y-85688351D01*
X122149404Y-85259269D01*
X121589472Y-85026765D01*
X120983188Y-85026236D01*
X120422851Y-85257762D01*
X119993769Y-85686096D01*
X119761265Y-86246028D01*
X119760736Y-86852312D01*
X119803079Y-86954791D01*
X119441470Y-87316400D01*
X118172133Y-87316400D01*
X118363735Y-86854972D01*
X118364264Y-86248688D01*
X118132738Y-85688351D01*
X117704404Y-85259269D01*
X117144472Y-85026765D01*
X116538188Y-85026236D01*
X115977851Y-85257762D01*
X115548769Y-85686096D01*
X115316265Y-86246028D01*
X115315736Y-86852312D01*
X115507493Y-87316400D01*
X114238530Y-87316400D01*
X113877179Y-86955049D01*
X113918735Y-86854972D01*
X113919264Y-86248688D01*
X113687738Y-85688351D01*
X113259404Y-85259269D01*
X112699472Y-85026765D01*
X112093188Y-85026236D01*
X111532851Y-85257762D01*
X111103769Y-85686096D01*
X110871265Y-86246028D01*
X110870736Y-86852312D01*
X102241500Y-86852312D01*
X102241500Y-78873500D01*
X102183496Y-78581895D01*
X102058547Y-78394896D01*
X102018316Y-78334685D01*
X101497542Y-77813911D01*
X101565950Y-77470000D01*
X101456717Y-76920849D01*
X101145648Y-76455302D01*
X100763562Y-76200000D01*
X101145648Y-75944698D01*
X101456717Y-75479151D01*
X101565950Y-74930000D01*
X101456717Y-74380849D01*
X101145648Y-73915302D01*
X100763562Y-73660000D01*
X101145648Y-73404698D01*
X101229637Y-73279000D01*
X101238264Y-73279000D01*
X102489000Y-74529736D01*
X102489000Y-76962000D01*
X102556671Y-77302206D01*
X102736343Y-77571104D01*
X102749382Y-77590618D01*
X105512404Y-80353640D01*
X105553283Y-80559151D01*
X105864352Y-81024698D01*
X106329899Y-81335767D01*
X106879050Y-81445000D01*
X107750950Y-81445000D01*
X108300101Y-81335767D01*
X108765648Y-81024698D01*
X109076717Y-80559151D01*
X109185950Y-80010000D01*
X109076717Y-79460849D01*
X108765648Y-78995302D01*
X108383562Y-78740000D01*
X108765648Y-78484698D01*
X108854517Y-78351696D01*
X111502409Y-78351696D01*
X111587467Y-78607039D01*
X112156965Y-78815016D01*
X112762700Y-78789223D01*
X113202533Y-78607039D01*
X113287591Y-78351696D01*
X112395000Y-77459105D01*
X111502409Y-78351696D01*
X108854517Y-78351696D01*
X109076717Y-78019151D01*
X109185950Y-77470000D01*
X109100710Y-77041465D01*
X110859484Y-77041465D01*
X110885277Y-77647200D01*
X111067461Y-78087033D01*
X111322804Y-78172091D01*
X112215395Y-77279500D01*
X112574605Y-77279500D01*
X113467196Y-78172091D01*
X113722539Y-78087033D01*
X113907225Y-77581312D01*
X115315736Y-77581312D01*
X115547262Y-78141649D01*
X115975596Y-78570731D01*
X116535528Y-78803235D01*
X117141812Y-78803764D01*
X117702149Y-78572238D01*
X118131231Y-78143904D01*
X118363735Y-77583972D01*
X118364264Y-76977688D01*
X118132738Y-76417351D01*
X117704404Y-75988269D01*
X117144472Y-75755765D01*
X116538188Y-75755236D01*
X115977851Y-75986762D01*
X115548769Y-76415096D01*
X115316265Y-76975028D01*
X115315736Y-77581312D01*
X113907225Y-77581312D01*
X113930516Y-77517535D01*
X113904723Y-76911800D01*
X113722539Y-76471967D01*
X113467196Y-76386909D01*
X112574605Y-77279500D01*
X112215395Y-77279500D01*
X111322804Y-76386909D01*
X111067461Y-76471967D01*
X110859484Y-77041465D01*
X109100710Y-77041465D01*
X109076717Y-76920849D01*
X108765648Y-76455302D01*
X108394494Y-76207304D01*
X111502409Y-76207304D01*
X112395000Y-77099895D01*
X113287591Y-76207304D01*
X113202533Y-75951961D01*
X112633035Y-75743984D01*
X112027300Y-75769777D01*
X111587467Y-75951961D01*
X111502409Y-76207304D01*
X108394494Y-76207304D01*
X108383562Y-76200000D01*
X108765648Y-75944698D01*
X109076717Y-75479151D01*
X109185950Y-74930000D01*
X109076717Y-74380849D01*
X108924014Y-74152312D01*
X110870736Y-74152312D01*
X111102262Y-74712649D01*
X111530596Y-75141731D01*
X112090528Y-75374235D01*
X112696812Y-75374764D01*
X113257149Y-75143238D01*
X113686231Y-74714904D01*
X113918735Y-74154972D01*
X113918737Y-74152312D01*
X115315736Y-74152312D01*
X115547262Y-74712649D01*
X115975596Y-75141731D01*
X116535528Y-75374235D01*
X117141812Y-75374764D01*
X117244291Y-75332421D01*
X119730184Y-77818315D01*
X119774442Y-77847887D01*
X119907662Y-77936902D01*
X119992262Y-78141649D01*
X120420596Y-78570731D01*
X120980528Y-78803235D01*
X121586812Y-78803764D01*
X122147149Y-78572238D01*
X122576231Y-78143904D01*
X122808735Y-77583972D01*
X122809264Y-76977688D01*
X122577738Y-76417351D01*
X122149404Y-75988269D01*
X121589472Y-75755765D01*
X120983188Y-75755236D01*
X120422851Y-75986762D01*
X120238211Y-76171080D01*
X118322179Y-74255049D01*
X118363735Y-74154972D01*
X118364264Y-73548688D01*
X118132738Y-72988351D01*
X117704404Y-72559269D01*
X117144472Y-72326765D01*
X116538188Y-72326236D01*
X115977851Y-72557762D01*
X115548769Y-72986096D01*
X115316265Y-73546028D01*
X115315736Y-74152312D01*
X113918737Y-74152312D01*
X113919264Y-73548688D01*
X113687738Y-72988351D01*
X113259404Y-72559269D01*
X112699472Y-72326765D01*
X112093188Y-72326236D01*
X111532851Y-72557762D01*
X111103769Y-72986096D01*
X110871265Y-73546028D01*
X110870736Y-74152312D01*
X108924014Y-74152312D01*
X108765648Y-73915302D01*
X108630502Y-73825000D01*
X108641309Y-73825000D01*
X108874698Y-73728327D01*
X109053327Y-73549699D01*
X109150000Y-73316310D01*
X109150000Y-72675750D01*
X108991250Y-72517000D01*
X107442000Y-72517000D01*
X107442000Y-72537000D01*
X107188000Y-72537000D01*
X107188000Y-72517000D01*
X105638750Y-72517000D01*
X105480000Y-72675750D01*
X105480000Y-73316310D01*
X105576673Y-73549699D01*
X105755302Y-73728327D01*
X105988691Y-73825000D01*
X105999498Y-73825000D01*
X105864352Y-73915302D01*
X105553283Y-74380849D01*
X105444050Y-74930000D01*
X105553283Y-75479151D01*
X105864352Y-75944698D01*
X106246438Y-76200000D01*
X105864352Y-76455302D01*
X105553283Y-76920849D01*
X105444050Y-77470000D01*
X105518743Y-77845507D01*
X104267000Y-76593764D01*
X104267000Y-74161500D01*
X104199329Y-73821294D01*
X104006618Y-73532882D01*
X102495500Y-72021764D01*
X102495500Y-71463690D01*
X105480000Y-71463690D01*
X105480000Y-72104250D01*
X105638750Y-72263000D01*
X107188000Y-72263000D01*
X107188000Y-71113750D01*
X107442000Y-71113750D01*
X107442000Y-72263000D01*
X108991250Y-72263000D01*
X109150000Y-72104250D01*
X109150000Y-71463690D01*
X109053327Y-71230301D01*
X108874698Y-71051673D01*
X108641309Y-70955000D01*
X107600750Y-70955000D01*
X107442000Y-71113750D01*
X107188000Y-71113750D01*
X107029250Y-70955000D01*
X105988691Y-70955000D01*
X105755302Y-71051673D01*
X105576673Y-71230301D01*
X105480000Y-71463690D01*
X102495500Y-71463690D01*
X102495500Y-69961312D01*
X110870736Y-69961312D01*
X111102262Y-70521649D01*
X111530596Y-70950731D01*
X112090528Y-71183235D01*
X112696812Y-71183764D01*
X113257149Y-70952238D01*
X113686231Y-70523904D01*
X113918735Y-69963972D01*
X113919264Y-69357688D01*
X113687738Y-68797351D01*
X113259404Y-68368269D01*
X112699472Y-68135765D01*
X112093188Y-68135236D01*
X111532851Y-68366762D01*
X111103769Y-68795096D01*
X110871265Y-69355028D01*
X110870736Y-69961312D01*
X102495500Y-69961312D01*
X102495500Y-69729500D01*
X102472437Y-69613555D01*
X102427830Y-69389295D01*
X102235118Y-69100882D01*
X101219000Y-68084764D01*
X101219000Y-66671029D01*
X101533260Y-66881011D01*
X101981000Y-66970072D01*
X102428740Y-66881011D01*
X102806500Y-66628600D01*
X103184260Y-66881011D01*
X103632000Y-66970072D01*
X104079740Y-66881011D01*
X104459315Y-66627387D01*
X104522842Y-66532312D01*
X110870736Y-66532312D01*
X111102262Y-67092649D01*
X111530596Y-67521731D01*
X112090528Y-67754235D01*
X112696812Y-67754764D01*
X112799291Y-67712421D01*
X113384085Y-68297215D01*
X113631295Y-68462396D01*
X113922900Y-68520400D01*
X115823945Y-68520400D01*
X115548769Y-68795096D01*
X115316265Y-69355028D01*
X115315736Y-69961312D01*
X115547262Y-70521649D01*
X115975596Y-70950731D01*
X116535528Y-71183235D01*
X117141812Y-71183764D01*
X117702149Y-70952238D01*
X118131231Y-70523904D01*
X118363735Y-69963972D01*
X118364264Y-69357688D01*
X118132738Y-68797351D01*
X117856270Y-68520400D01*
X118995100Y-68520400D01*
X118995100Y-72322600D01*
X119053104Y-72614205D01*
X119130613Y-72730205D01*
X119218285Y-72861415D01*
X119802821Y-73445951D01*
X119761265Y-73546028D01*
X119760736Y-74152312D01*
X119992262Y-74712649D01*
X120420596Y-75141731D01*
X120980528Y-75374235D01*
X121586812Y-75374764D01*
X122147149Y-75143238D01*
X122331789Y-74958920D01*
X124247820Y-76874951D01*
X124206265Y-76975028D01*
X124205736Y-77581312D01*
X124437262Y-78141649D01*
X124865596Y-78570731D01*
X125425528Y-78803235D01*
X126031812Y-78803764D01*
X126592149Y-78572238D01*
X127021231Y-78143904D01*
X127253735Y-77583972D01*
X127254264Y-76977688D01*
X127022738Y-76417351D01*
X126594404Y-75988269D01*
X126034472Y-75755765D01*
X125428188Y-75755236D01*
X125325710Y-75797579D01*
X123680443Y-74152312D01*
X124205736Y-74152312D01*
X124437262Y-74712649D01*
X124865596Y-75141731D01*
X125425528Y-75374235D01*
X126031812Y-75374764D01*
X126592149Y-75143238D01*
X127021231Y-74714904D01*
X127253735Y-74154972D01*
X127254264Y-73548688D01*
X127022738Y-72988351D01*
X126594404Y-72559269D01*
X126034472Y-72326765D01*
X125428188Y-72326236D01*
X124867851Y-72557762D01*
X124438769Y-72986096D01*
X124206265Y-73546028D01*
X124205736Y-74152312D01*
X123680443Y-74152312D01*
X122839815Y-73311685D01*
X122662338Y-73193098D01*
X122577738Y-72988351D01*
X122149404Y-72559269D01*
X121589472Y-72326765D01*
X120983188Y-72326236D01*
X120880709Y-72368579D01*
X120519100Y-72006970D01*
X120519100Y-70991633D01*
X120980528Y-71183235D01*
X121586812Y-71183764D01*
X122147149Y-70952238D01*
X122576231Y-70523904D01*
X122662127Y-70317042D01*
X122839815Y-70198315D01*
X123076818Y-69961312D01*
X124205736Y-69961312D01*
X124437262Y-70521649D01*
X124865596Y-70950731D01*
X125425528Y-71183235D01*
X126031812Y-71183764D01*
X126592149Y-70952238D01*
X127021231Y-70523904D01*
X127253735Y-69963972D01*
X127254264Y-69357688D01*
X127022738Y-68797351D01*
X126594404Y-68368269D01*
X126034472Y-68135765D01*
X125428188Y-68135236D01*
X124867851Y-68366762D01*
X124438769Y-68795096D01*
X124206265Y-69355028D01*
X124205736Y-69961312D01*
X123076818Y-69961312D01*
X125325451Y-67712680D01*
X125425528Y-67754235D01*
X126031812Y-67754764D01*
X126592149Y-67523238D01*
X127021231Y-67094904D01*
X127253735Y-66534972D01*
X127254264Y-65928688D01*
X127162587Y-65706812D01*
X128841236Y-65706812D01*
X129072762Y-66267149D01*
X129501096Y-66696231D01*
X130061028Y-66928735D01*
X130667312Y-66929264D01*
X131227649Y-66697738D01*
X131656731Y-66269404D01*
X131889235Y-65709472D01*
X131889764Y-65103188D01*
X131658238Y-64542851D01*
X131229904Y-64113769D01*
X130669972Y-63881265D01*
X130063688Y-63880736D01*
X129503351Y-64112262D01*
X129074269Y-64540596D01*
X128841765Y-65100528D01*
X128841236Y-65706812D01*
X127162587Y-65706812D01*
X127022738Y-65368351D01*
X126594404Y-64939269D01*
X126034472Y-64706765D01*
X125428188Y-64706236D01*
X124867851Y-64937762D01*
X124438769Y-65366096D01*
X124206265Y-65926028D01*
X124205736Y-66532312D01*
X124248079Y-66634790D01*
X122331843Y-68551027D01*
X122149404Y-68368269D01*
X121589472Y-68135765D01*
X120983188Y-68135236D01*
X120519100Y-68326993D01*
X120519100Y-68074030D01*
X120880451Y-67712679D01*
X120980528Y-67754235D01*
X121586812Y-67754764D01*
X122147149Y-67523238D01*
X122576231Y-67094904D01*
X122808735Y-66534972D01*
X122809264Y-65928688D01*
X122577738Y-65368351D01*
X122149404Y-64939269D01*
X121589472Y-64706765D01*
X120983188Y-64706236D01*
X120422851Y-64937762D01*
X119993769Y-65366096D01*
X119761265Y-65926028D01*
X119760736Y-66532312D01*
X119803079Y-66634791D01*
X119441470Y-66996400D01*
X118172133Y-66996400D01*
X118363735Y-66534972D01*
X118364264Y-65928688D01*
X118132738Y-65368351D01*
X117704404Y-64939269D01*
X117144472Y-64706765D01*
X116538188Y-64706236D01*
X115977851Y-64937762D01*
X115548769Y-65366096D01*
X115316265Y-65926028D01*
X115315736Y-66532312D01*
X115507493Y-66996400D01*
X114238530Y-66996400D01*
X113877179Y-66635049D01*
X113918735Y-66534972D01*
X113919264Y-65928688D01*
X113687738Y-65368351D01*
X113259404Y-64939269D01*
X112699472Y-64706765D01*
X112093188Y-64706236D01*
X111532851Y-64937762D01*
X111103769Y-65366096D01*
X110871265Y-65926028D01*
X110870736Y-66532312D01*
X104522842Y-66532312D01*
X104712939Y-66247812D01*
X104802000Y-65800072D01*
X104802000Y-65009928D01*
X104712939Y-64562188D01*
X104459315Y-64182613D01*
X104079740Y-63928989D01*
X103632000Y-63839928D01*
X103184260Y-63928989D01*
X102806500Y-64181400D01*
X102428740Y-63928989D01*
X101981000Y-63839928D01*
X101533260Y-63928989D01*
X101219000Y-64138971D01*
X101219000Y-63868236D01*
X103193918Y-61893318D01*
X103386630Y-61604905D01*
X103454300Y-61264700D01*
X103454300Y-59023976D01*
X103482262Y-59091649D01*
X103910596Y-59520731D01*
X104470528Y-59753235D01*
X105076812Y-59753764D01*
X105637149Y-59522238D01*
X106066231Y-59093904D01*
X106298735Y-58533972D01*
X106298737Y-58531312D01*
X107695736Y-58531312D01*
X107927262Y-59091649D01*
X108355596Y-59520731D01*
X108915528Y-59753235D01*
X109521812Y-59753764D01*
X110082149Y-59522238D01*
X110247863Y-59356812D01*
X114680736Y-59356812D01*
X114912262Y-59917149D01*
X115340596Y-60346231D01*
X115900528Y-60578735D01*
X116506812Y-60579264D01*
X117067149Y-60347738D01*
X117496231Y-59919404D01*
X117538753Y-59817000D01*
X122993200Y-59817000D01*
X123284805Y-59758996D01*
X123532015Y-59593815D01*
X124206117Y-58919713D01*
X124205736Y-59356812D01*
X124437262Y-59917149D01*
X124865596Y-60346231D01*
X125425528Y-60578735D01*
X126031812Y-60579264D01*
X126592149Y-60347738D01*
X127021231Y-59919404D01*
X127253735Y-59359472D01*
X127254264Y-58753188D01*
X127022738Y-58192851D01*
X126594404Y-57763769D01*
X126034472Y-57531265D01*
X125594949Y-57530882D01*
X125848831Y-57277000D01*
X126935881Y-57277000D01*
X126977262Y-57377149D01*
X127405596Y-57806231D01*
X127965528Y-58038735D01*
X128571812Y-58039264D01*
X129132149Y-57807738D01*
X129561231Y-57379404D01*
X129793735Y-56819472D01*
X129793737Y-56816812D01*
X131190736Y-56816812D01*
X131422262Y-57377149D01*
X131850596Y-57806231D01*
X132410528Y-58038735D01*
X133016812Y-58039264D01*
X133577149Y-57807738D01*
X134006231Y-57379404D01*
X134238735Y-56819472D01*
X134239208Y-56276965D01*
X136259484Y-56276965D01*
X136285277Y-56882700D01*
X136467461Y-57322533D01*
X136722804Y-57407591D01*
X137615395Y-56515000D01*
X137974605Y-56515000D01*
X138867196Y-57407591D01*
X139122539Y-57322533D01*
X139330516Y-56753035D01*
X139304723Y-56147300D01*
X139122539Y-55707467D01*
X138867196Y-55622409D01*
X137974605Y-56515000D01*
X137615395Y-56515000D01*
X136722804Y-55622409D01*
X136467461Y-55707467D01*
X136259484Y-56276965D01*
X134239208Y-56276965D01*
X134239264Y-56213188D01*
X134007738Y-55652851D01*
X133798058Y-55442804D01*
X136902409Y-55442804D01*
X137795000Y-56335395D01*
X138687591Y-55442804D01*
X138602533Y-55187461D01*
X138033035Y-54979484D01*
X137427300Y-55005277D01*
X136987467Y-55187461D01*
X136902409Y-55442804D01*
X133798058Y-55442804D01*
X133579404Y-55223769D01*
X133019472Y-54991265D01*
X132413188Y-54990736D01*
X131852851Y-55222262D01*
X131423769Y-55650596D01*
X131191265Y-56210528D01*
X131190736Y-56816812D01*
X129793737Y-56816812D01*
X129794264Y-56213188D01*
X129562738Y-55652851D01*
X129134404Y-55223769D01*
X128574472Y-54991265D01*
X127968188Y-54990736D01*
X127407851Y-55222262D01*
X126978769Y-55650596D01*
X126936247Y-55753000D01*
X125533200Y-55753000D01*
X125241595Y-55811004D01*
X124994384Y-55976185D01*
X124714226Y-56256343D01*
X124714264Y-56213188D01*
X124482738Y-55652851D01*
X124054404Y-55223769D01*
X123494472Y-54991265D01*
X122888188Y-54990736D01*
X122327851Y-55222262D01*
X121898769Y-55650596D01*
X121666265Y-56210528D01*
X121665736Y-56816812D01*
X121897262Y-57377149D01*
X122325596Y-57806231D01*
X122885528Y-58038735D01*
X122931794Y-58038775D01*
X122677570Y-58293000D01*
X117539119Y-58293000D01*
X117497738Y-58192851D01*
X117069404Y-57763769D01*
X116509472Y-57531265D01*
X115903188Y-57530736D01*
X115342851Y-57762262D01*
X114913769Y-58190596D01*
X114681265Y-58750528D01*
X114680736Y-59356812D01*
X110247863Y-59356812D01*
X110511231Y-59093904D01*
X110743735Y-58533972D01*
X110744264Y-57927688D01*
X110603576Y-57587196D01*
X112772409Y-57587196D01*
X112857467Y-57842539D01*
X113426965Y-58050516D01*
X114032700Y-58024723D01*
X114472533Y-57842539D01*
X114557591Y-57587196D01*
X113665000Y-56694605D01*
X112772409Y-57587196D01*
X110603576Y-57587196D01*
X110512738Y-57367351D01*
X110084404Y-56938269D01*
X109524472Y-56705765D01*
X108918188Y-56705236D01*
X108357851Y-56936762D01*
X107928769Y-57365096D01*
X107696265Y-57925028D01*
X107695736Y-58531312D01*
X106298737Y-58531312D01*
X106299264Y-57927688D01*
X106082881Y-57404000D01*
X107505500Y-57404000D01*
X107845706Y-57336329D01*
X108134118Y-57143618D01*
X108953468Y-56324268D01*
X109521812Y-56324764D01*
X109637494Y-56276965D01*
X112129484Y-56276965D01*
X112155277Y-56882700D01*
X112337461Y-57322533D01*
X112592804Y-57407591D01*
X113485395Y-56515000D01*
X113844605Y-56515000D01*
X114737196Y-57407591D01*
X114992539Y-57322533D01*
X115177225Y-56816812D01*
X117220736Y-56816812D01*
X117452262Y-57377149D01*
X117880596Y-57806231D01*
X118440528Y-58038735D01*
X119046812Y-58039264D01*
X119607149Y-57807738D01*
X120036231Y-57379404D01*
X120268735Y-56819472D01*
X120269264Y-56213188D01*
X120037738Y-55652851D01*
X119609404Y-55223769D01*
X119049472Y-54991265D01*
X118443188Y-54990736D01*
X117882851Y-55222262D01*
X117453769Y-55650596D01*
X117221265Y-56210528D01*
X117220736Y-56816812D01*
X115177225Y-56816812D01*
X115200516Y-56753035D01*
X115174723Y-56147300D01*
X114992539Y-55707467D01*
X114737196Y-55622409D01*
X113844605Y-56515000D01*
X113485395Y-56515000D01*
X112592804Y-55622409D01*
X112337461Y-55707467D01*
X112129484Y-56276965D01*
X109637494Y-56276965D01*
X110082149Y-56093238D01*
X110511231Y-55664904D01*
X110603454Y-55442804D01*
X112772409Y-55442804D01*
X113665000Y-56335395D01*
X114557591Y-55442804D01*
X114472533Y-55187461D01*
X113903035Y-54979484D01*
X113297300Y-55005277D01*
X112857467Y-55187461D01*
X112772409Y-55442804D01*
X110603454Y-55442804D01*
X110743735Y-55104972D01*
X110744264Y-54498688D01*
X110512738Y-53938351D01*
X110084404Y-53509269D01*
X109524472Y-53276765D01*
X108918188Y-53276236D01*
X108357851Y-53507762D01*
X107928769Y-53936096D01*
X107696265Y-54496028D01*
X107695766Y-55067498D01*
X107137264Y-55626000D01*
X106082385Y-55626000D01*
X106298735Y-55104972D01*
X106299264Y-54498688D01*
X106067738Y-53938351D01*
X105709098Y-53579085D01*
X106233441Y-53796811D01*
X107122658Y-53797587D01*
X107944485Y-53458015D01*
X108573805Y-52829792D01*
X108914811Y-52008559D01*
X108915587Y-51119342D01*
X108576015Y-50297515D01*
X107947792Y-49668195D01*
X107126559Y-49327189D01*
X106237342Y-49326413D01*
X105415515Y-49665985D01*
X104786195Y-50294208D01*
X104445189Y-51115441D01*
X104444413Y-52004658D01*
X104783985Y-52826485D01*
X105342514Y-53385990D01*
X105079472Y-53276765D01*
X104473188Y-53276236D01*
X103912851Y-53507762D01*
X103483769Y-53936096D01*
X103251265Y-54496028D01*
X103250736Y-55102312D01*
X103482262Y-55662649D01*
X103658861Y-55839557D01*
X103588782Y-55886382D01*
X102565300Y-56909864D01*
X101616418Y-55960982D01*
X101515129Y-55893303D01*
X101441630Y-55844192D01*
X101621231Y-55664904D01*
X101853735Y-55104972D01*
X101854264Y-54498688D01*
X101622738Y-53938351D01*
X101194404Y-53509269D01*
X100634472Y-53276765D01*
X100028188Y-53276236D01*
X99467851Y-53507762D01*
X99038769Y-53936096D01*
X98806265Y-54496028D01*
X98805736Y-55102312D01*
X99037262Y-55662649D01*
X99075147Y-55700600D01*
X97524900Y-55700600D01*
X97184694Y-55768271D01*
X96997571Y-55893303D01*
X96896282Y-55960982D01*
X96151532Y-56705732D01*
X95583188Y-56705236D01*
X95022851Y-56936762D01*
X94593769Y-57365096D01*
X94361265Y-57925028D01*
X94360736Y-58531312D01*
X94592262Y-59091649D01*
X95020596Y-59520731D01*
X95580528Y-59753235D01*
X96186812Y-59753764D01*
X96747149Y-59522238D01*
X97176231Y-59093904D01*
X97408735Y-58533972D01*
X97409234Y-57962502D01*
X97893136Y-57478600D01*
X98991638Y-57478600D01*
X98806265Y-57925028D01*
X98805736Y-58531312D01*
X98848079Y-58633790D01*
X95333631Y-62148239D01*
X94919472Y-61976265D01*
X94313188Y-61975736D01*
X93752851Y-62207262D01*
X93323769Y-62635596D01*
X93312595Y-62662506D01*
X93147196Y-62607409D01*
X92254605Y-63500000D01*
X91895395Y-63500000D01*
X91002804Y-62607409D01*
X90747461Y-62692467D01*
X90714800Y-62781902D01*
X90714800Y-62427804D01*
X91182409Y-62427804D01*
X92075000Y-63320395D01*
X92967591Y-62427804D01*
X92882533Y-62172461D01*
X92313035Y-61964484D01*
X91707300Y-61990277D01*
X91267467Y-62172461D01*
X91182409Y-62427804D01*
X90714800Y-62427804D01*
X90714800Y-59587106D01*
X91201965Y-59765016D01*
X91807700Y-59739223D01*
X92247533Y-59557039D01*
X92332591Y-59301696D01*
X91440000Y-58409105D01*
X91425858Y-58423248D01*
X91246253Y-58243643D01*
X91260395Y-58229500D01*
X91619605Y-58229500D01*
X92512196Y-59122091D01*
X92767539Y-59037033D01*
X92975516Y-58467535D01*
X92949723Y-57861800D01*
X92767539Y-57421967D01*
X92512196Y-57336909D01*
X91619605Y-58229500D01*
X91260395Y-58229500D01*
X91246253Y-58215358D01*
X91425858Y-58035753D01*
X91440000Y-58049895D01*
X92332591Y-57157304D01*
X92247533Y-56901961D01*
X91678035Y-56693984D01*
X91072300Y-56719777D01*
X90714800Y-56867858D01*
X90714800Y-56603330D01*
X91035451Y-56282679D01*
X91135528Y-56324235D01*
X91741812Y-56324764D01*
X92302149Y-56093238D01*
X92731231Y-55664904D01*
X92963735Y-55104972D01*
X92963737Y-55102312D01*
X94360736Y-55102312D01*
X94592262Y-55662649D01*
X95020596Y-56091731D01*
X95580528Y-56324235D01*
X96186812Y-56324764D01*
X96747149Y-56093238D01*
X97176231Y-55664904D01*
X97408735Y-55104972D01*
X97409264Y-54498688D01*
X97177738Y-53938351D01*
X96749404Y-53509269D01*
X96189472Y-53276765D01*
X95583188Y-53276236D01*
X95022851Y-53507762D01*
X94593769Y-53936096D01*
X94361265Y-54496028D01*
X94360736Y-55102312D01*
X92963737Y-55102312D01*
X92964264Y-54498688D01*
X92732738Y-53938351D01*
X92304404Y-53509269D01*
X91744472Y-53276765D01*
X91138188Y-53276236D01*
X90577851Y-53507762D01*
X90148769Y-53936096D01*
X89916265Y-54496028D01*
X89915736Y-55102312D01*
X89958079Y-55204790D01*
X89413985Y-55748885D01*
X89248804Y-55996095D01*
X89190800Y-56287700D01*
X88315000Y-56287700D01*
X88315000Y-49597467D01*
X88468602Y-48825259D01*
X88867807Y-48227807D01*
X89465257Y-47828602D01*
X90237467Y-47675000D01*
X160527469Y-47675000D01*
X155941970Y-52260500D01*
G36*
X137376685Y-116108815D02*
X137623895Y-116273996D01*
X137915500Y-116332000D01*
X138080504Y-116332000D01*
X138249352Y-116584698D01*
X138627707Y-116837507D01*
X138195500Y-117185104D01*
X137925633Y-117678181D01*
X137908096Y-117760961D01*
X138030085Y-117983000D01*
X139573000Y-117983000D01*
X139573000Y-117963000D01*
X139827000Y-117963000D01*
X139827000Y-117983000D01*
X139847000Y-117983000D01*
X139847000Y-118237000D01*
X139827000Y-118237000D01*
X139827000Y-118257000D01*
X139573000Y-118257000D01*
X139573000Y-118237000D01*
X138030085Y-118237000D01*
X137908096Y-118459039D01*
X137925633Y-118541819D01*
X138039956Y-118750700D01*
X134250834Y-118750700D01*
X134403315Y-118648815D01*
X135833415Y-117218715D01*
X135976215Y-117005000D01*
X135998596Y-116971505D01*
X136056600Y-116679900D01*
X136056600Y-114788730D01*
X137376685Y-116108815D01*
X137376685Y-116108815D01*
G37*
X137376685Y-116108815D02*
X137623895Y-116273996D01*
X137915500Y-116332000D01*
X138080504Y-116332000D01*
X138249352Y-116584698D01*
X138627707Y-116837507D01*
X138195500Y-117185104D01*
X137925633Y-117678181D01*
X137908096Y-117760961D01*
X138030085Y-117983000D01*
X139573000Y-117983000D01*
X139573000Y-117963000D01*
X139827000Y-117963000D01*
X139827000Y-117983000D01*
X139847000Y-117983000D01*
X139847000Y-118237000D01*
X139827000Y-118237000D01*
X139827000Y-118257000D01*
X139573000Y-118257000D01*
X139573000Y-118237000D01*
X138030085Y-118237000D01*
X137908096Y-118459039D01*
X137925633Y-118541819D01*
X138039956Y-118750700D01*
X134250834Y-118750700D01*
X134403315Y-118648815D01*
X135833415Y-117218715D01*
X135976215Y-117005000D01*
X135998596Y-116971505D01*
X136056600Y-116679900D01*
X136056600Y-114788730D01*
X137376685Y-116108815D01*
M02*
