G04 #@! TF.FileFunction,Copper,L2,Bot,Signal*
%FSLAX46Y46*%
G04 Gerber Fmt 4.6, Leading zero omitted, Abs format (unit mm)*
G04 Created by KiCad (PCBNEW 4.0.6) date 06/23/17 11:36:22*
%MOMM*%
%LPD*%
G01*
G04 APERTURE LIST*
%ADD10C,0.100000*%
%ADD11C,1.778000*%
%ADD12R,1.070000X1.800000*%
%ADD13O,1.070000X1.800000*%
%ADD14R,1.800000X1.800000*%
%ADD15O,1.800000X1.800000*%
%ADD16C,2.362200*%
%ADD17C,3.860800*%
%ADD18C,3.000000*%
%ADD19C,1.016000*%
%ADD20R,2.400000X1.600000*%
%ADD21O,2.400000X1.600000*%
%ADD22C,4.114800*%
%ADD23C,4.622800*%
%ADD24C,3.683000*%
%ADD25C,0.600000*%
%ADD26C,0.254000*%
%ADD27C,0.508000*%
G04 APERTURE END LIST*
D10*
D11*
X94615000Y-63500000D03*
X92075000Y-63500000D03*
D12*
X98679000Y-65405000D03*
D13*
X100330000Y-65405000D03*
X101981000Y-65405000D03*
X103632000Y-65405000D03*
D11*
X91440000Y-67310000D03*
X93980000Y-67310000D03*
D14*
X198120000Y-64135000D03*
D15*
X198120000Y-66675000D03*
X198120000Y-69215000D03*
D14*
X198120000Y-87630000D03*
D15*
X198120000Y-90170000D03*
X198120000Y-92710000D03*
D14*
X198120000Y-111125000D03*
D15*
X198120000Y-113665000D03*
X198120000Y-116205000D03*
D11*
X125730000Y-69659500D03*
X125730000Y-66230500D03*
X121285000Y-66230500D03*
X121285000Y-69659500D03*
X116840000Y-69659500D03*
X116840000Y-66230500D03*
X112395000Y-66230500D03*
X112395000Y-69659500D03*
X121285000Y-73850500D03*
X121285000Y-77279500D03*
X116840000Y-77279500D03*
X116840000Y-73850500D03*
X112395000Y-73850500D03*
X112395000Y-77279500D03*
X125730000Y-89979500D03*
X125730000Y-86550500D03*
X121285000Y-86550500D03*
X121285000Y-89979500D03*
X116840000Y-89979500D03*
X116840000Y-86550500D03*
X112395000Y-86550500D03*
X112395000Y-89979500D03*
X125730000Y-97599500D03*
X125730000Y-94170500D03*
X121285000Y-94170500D03*
X121285000Y-97599500D03*
X116840000Y-97599500D03*
X116840000Y-94170500D03*
X112395000Y-94170500D03*
X112395000Y-97599500D03*
X125730000Y-110299500D03*
X125730000Y-106870500D03*
X121285000Y-106870500D03*
X121285000Y-110299500D03*
X116840000Y-110299500D03*
X116840000Y-106870500D03*
X112395000Y-106870500D03*
X112395000Y-110299500D03*
X125730000Y-117919500D03*
X125730000Y-114490500D03*
X121285000Y-114490500D03*
X121285000Y-117919500D03*
X116840000Y-117919500D03*
X116840000Y-114490500D03*
X112395000Y-114490500D03*
X112395000Y-117919500D03*
X137985500Y-65405000D03*
X141414500Y-65405000D03*
X137350500Y-85725000D03*
X140779500Y-85725000D03*
X137985500Y-106045000D03*
X141414500Y-106045000D03*
X130365500Y-65405000D03*
X133794500Y-65405000D03*
X129730500Y-85725000D03*
X133159500Y-85725000D03*
X130365500Y-106045000D03*
X133794500Y-106045000D03*
X193040000Y-67754500D03*
X193040000Y-64325500D03*
X193040000Y-91249500D03*
X193040000Y-87820500D03*
X193040000Y-114744500D03*
X193040000Y-111315500D03*
X109220000Y-54800500D03*
X109220000Y-58229500D03*
X104775000Y-58229500D03*
X104775000Y-54800500D03*
X100330000Y-54800500D03*
X100330000Y-58229500D03*
X94615000Y-72580500D03*
X94615000Y-76009500D03*
X94615000Y-82994500D03*
X94615000Y-79565500D03*
X95885000Y-58229500D03*
X95885000Y-54800500D03*
X91440000Y-54800500D03*
X91440000Y-58229500D03*
D16*
X100965000Y-102235000D03*
X97205800Y-102235000D03*
X104724200Y-102235000D03*
D17*
X95453200Y-92227400D03*
X106476800Y-92227400D03*
D18*
X180975000Y-55245000D03*
D19*
X180975000Y-55245000D03*
D18*
X176530000Y-55245000D03*
D19*
X176530000Y-55245000D03*
D18*
X172085000Y-55245000D03*
D19*
X172085000Y-55245000D03*
D18*
X180975000Y-50800000D03*
D19*
X180975000Y-50800000D03*
D18*
X176530000Y-50800000D03*
D19*
X176530000Y-50800000D03*
D18*
X172085000Y-50800000D03*
D19*
X172085000Y-50800000D03*
D18*
X152400000Y-50800000D03*
D19*
X152400000Y-50800000D03*
D18*
X152400000Y-55245000D03*
D19*
X152400000Y-55245000D03*
D20*
X139700000Y-69850000D03*
D21*
X132080000Y-77470000D03*
X139700000Y-72390000D03*
X132080000Y-74930000D03*
X139700000Y-74930000D03*
X132080000Y-72390000D03*
X139700000Y-77470000D03*
X132080000Y-69850000D03*
D20*
X139065000Y-90170000D03*
D21*
X131445000Y-97790000D03*
X139065000Y-92710000D03*
X131445000Y-95250000D03*
X139065000Y-95250000D03*
X131445000Y-92710000D03*
X139065000Y-97790000D03*
X131445000Y-90170000D03*
D20*
X139700000Y-110490000D03*
D21*
X132080000Y-118110000D03*
X139700000Y-113030000D03*
X132080000Y-115570000D03*
X139700000Y-115570000D03*
X132080000Y-113030000D03*
X139700000Y-118110000D03*
X132080000Y-110490000D03*
D11*
X116205000Y-59055000D03*
X118745000Y-56515000D03*
X113665000Y-56515000D03*
X125730000Y-59055000D03*
X128270000Y-56515000D03*
X123190000Y-56515000D03*
X135255000Y-59055000D03*
X137795000Y-56515000D03*
X132715000Y-56515000D03*
X125730000Y-77279500D03*
X125730000Y-73850500D03*
D20*
X107315000Y-72390000D03*
D21*
X99695000Y-80010000D03*
X107315000Y-74930000D03*
X99695000Y-77470000D03*
X107315000Y-77470000D03*
X99695000Y-74930000D03*
X107315000Y-80010000D03*
X99695000Y-72390000D03*
D22*
X95123000Y-113030000D03*
D23*
X101727000Y-113030000D03*
D22*
X98425000Y-117627400D03*
X198247000Y-102870000D03*
D23*
X191643000Y-102870000D03*
D22*
X194945000Y-98272600D03*
X198247000Y-79375000D03*
D23*
X191643000Y-79375000D03*
D22*
X194945000Y-74777600D03*
X198247000Y-55880000D03*
D23*
X191643000Y-55880000D03*
D22*
X194945000Y-51282600D03*
D24*
X182880000Y-110744000D03*
X182880000Y-106045000D03*
X182880000Y-101346000D03*
X171450000Y-110744000D03*
X171450000Y-106045000D03*
X171450000Y-101346000D03*
X160020000Y-110744000D03*
X160020000Y-106045000D03*
X160020000Y-101346000D03*
X148590000Y-110744000D03*
X148590000Y-106045000D03*
X148590000Y-101346000D03*
X182880000Y-90424000D03*
X182880000Y-85725000D03*
X182880000Y-81026000D03*
X171450000Y-90424000D03*
X171450000Y-85725000D03*
X171450000Y-81026000D03*
X160020000Y-90424000D03*
X160020000Y-85725000D03*
X160020000Y-81026000D03*
X148590000Y-90424000D03*
X148590000Y-85725000D03*
X148590000Y-81026000D03*
X182880000Y-70104000D03*
X182880000Y-65405000D03*
X182880000Y-60706000D03*
X171450000Y-70104000D03*
X171450000Y-65405000D03*
X171450000Y-60706000D03*
X160020000Y-70104000D03*
X160020000Y-65405000D03*
X160020000Y-60706000D03*
X148590000Y-70104000D03*
X148590000Y-65405000D03*
X148590000Y-60706000D03*
D25*
X133700700Y-103724400D03*
X144221500Y-81301900D03*
D26*
X131445000Y-97790000D02*
X133229500Y-97790000D01*
X132080000Y-77470000D02*
X133864500Y-77470000D01*
X135294600Y-99855100D02*
X133229500Y-97790000D01*
X135294600Y-116679900D02*
X135294600Y-99855100D01*
X133864500Y-118110000D02*
X135294600Y-116679900D01*
X132080000Y-118110000D02*
X133864500Y-118110000D01*
X95059500Y-63500000D02*
X94615000Y-63500000D01*
X100330000Y-58229500D02*
X95059500Y-63500000D01*
X134633200Y-78238700D02*
X133864500Y-77470000D01*
X134633200Y-96386300D02*
X134633200Y-78238700D01*
X133229500Y-97790000D02*
X134633200Y-96386300D01*
X135292000Y-59092000D02*
X135255000Y-59055000D01*
X135292000Y-76042500D02*
X135292000Y-59092000D01*
X133864500Y-77470000D02*
X135292000Y-76042500D01*
D27*
X115168500Y-55011500D02*
X115570000Y-54610000D01*
X113665000Y-56515000D02*
X115168500Y-55011500D01*
X135539800Y-55011500D02*
X137043300Y-56515000D01*
X135138300Y-54610000D02*
X135539800Y-55011500D01*
X115570000Y-54610000D02*
X135138300Y-54610000D01*
X92075000Y-58864500D02*
X92075000Y-63500000D01*
X91440000Y-58229500D02*
X92075000Y-58864500D01*
X110877400Y-96081800D02*
X112395000Y-97599500D01*
X95123000Y-111836200D02*
X104724200Y-102235000D01*
X95123000Y-113030000D02*
X95123000Y-111836200D01*
X104724200Y-102235000D02*
X110877400Y-96081800D01*
X198120000Y-92710000D02*
X198120000Y-94321500D01*
X198120000Y-116205000D02*
X201052200Y-113272800D01*
X201052200Y-113272800D02*
X201052200Y-97253700D01*
X201052200Y-97253700D02*
X198120000Y-94321500D01*
X109226500Y-74781000D02*
X111725000Y-77279500D01*
X109226500Y-72390000D02*
X109226500Y-74781000D01*
X112395000Y-77279500D02*
X111725000Y-77279500D01*
X110763500Y-95968000D02*
X110877400Y-96081800D01*
X110763500Y-78911000D02*
X110763500Y-95968000D01*
X111725000Y-77949500D02*
X110763500Y-78911000D01*
X111725000Y-77279500D02*
X111725000Y-77949500D01*
X107315000Y-72390000D02*
X109226500Y-72390000D01*
X109226500Y-60953500D02*
X109226500Y-72390000D01*
X113665000Y-56515000D02*
X109226500Y-60953500D01*
X137795000Y-56515000D02*
X137043300Y-56515000D01*
X136337800Y-76019300D02*
X137788500Y-77470000D01*
X139528700Y-77470000D02*
X137788500Y-77470000D01*
X137043300Y-56515000D02*
X137043300Y-59870200D01*
X137043300Y-59870200D02*
X136337800Y-60575700D01*
X136337800Y-60575700D02*
X136337800Y-76019300D01*
X139065000Y-97790000D02*
X140976500Y-97790000D01*
X139700000Y-77470000D02*
X139528700Y-77470000D01*
X142400100Y-96366400D02*
X140976500Y-97790000D01*
X142400100Y-78258600D02*
X142400100Y-96366400D01*
X141611500Y-77470000D02*
X142400100Y-78258600D01*
X139700000Y-77470000D02*
X141611500Y-77470000D01*
D26*
X193040000Y-62865000D02*
X193040000Y-64325500D01*
X180975000Y-50800000D02*
X193040000Y-62865000D01*
D27*
X100330000Y-65405000D02*
X100330000Y-68453000D01*
X101606500Y-69729500D02*
X101606500Y-72390000D01*
X100330000Y-68453000D02*
X101606500Y-69729500D01*
X100330000Y-65405000D02*
X100330000Y-63500000D01*
X100330000Y-63500000D02*
X102565300Y-61264700D01*
X105410000Y-78994000D02*
X103378000Y-76962000D01*
X103378000Y-76962000D02*
X103378000Y-74161500D01*
X103378000Y-74161500D02*
X101606500Y-72390000D01*
X107315000Y-80010000D02*
X106426000Y-80010000D01*
X106426000Y-80010000D02*
X105410000Y-78994000D01*
X105410000Y-78994000D02*
X105403500Y-78987500D01*
X132080000Y-69850000D02*
X131318000Y-69850000D01*
X131318000Y-69850000D02*
X130168500Y-70999500D01*
X132080000Y-105345100D02*
X132080000Y-110490000D01*
X133700700Y-103724400D02*
X132080000Y-105345100D01*
X99695000Y-72390000D02*
X101606500Y-72390000D01*
X97524900Y-56589600D02*
X95885000Y-58229500D01*
X100987800Y-56589600D02*
X97524900Y-56589600D01*
X102565300Y-58167100D02*
X100987800Y-56589600D01*
X104217400Y-56515000D02*
X102565300Y-58167100D01*
X107505500Y-56515000D02*
X104217400Y-56515000D01*
X109220000Y-54800500D02*
X107505500Y-56515000D01*
X102565300Y-58167100D02*
X102565300Y-61264700D01*
X131445000Y-90170000D02*
X129774900Y-90170000D01*
X129533500Y-99557200D02*
X133700700Y-103724400D01*
X129533500Y-90411400D02*
X129533500Y-99557200D01*
X129774900Y-90170000D02*
X129533500Y-90411400D01*
X131380900Y-88564000D02*
X129774900Y-90170000D01*
X131380900Y-81879400D02*
X131380900Y-88564000D01*
X130168500Y-80667000D02*
X131380900Y-81879400D01*
X130168500Y-70999500D02*
X130168500Y-80667000D01*
X191643000Y-79375000D02*
X189230000Y-79375000D01*
X189230000Y-79375000D02*
X182880000Y-85725000D01*
X189230000Y-79375000D02*
X189230000Y-66040000D01*
X183515000Y-66040000D02*
X189230000Y-66040000D01*
X182880000Y-65405000D02*
X183515000Y-66040000D01*
X194675200Y-58912200D02*
X191643000Y-55880000D01*
X194675200Y-65007900D02*
X194675200Y-58912200D01*
X193643100Y-66040000D02*
X194675200Y-65007900D01*
X189230000Y-66040000D02*
X193643100Y-66040000D01*
X188468000Y-106045000D02*
X191643000Y-102870000D01*
X182880000Y-106045000D02*
X188468000Y-106045000D01*
D26*
X194556000Y-109799500D02*
X193040000Y-111315500D01*
X194556000Y-101687400D02*
X194556000Y-109799500D01*
X191150700Y-98282100D02*
X194556000Y-101687400D01*
X186295100Y-98282100D02*
X191150700Y-98282100D01*
X174177100Y-86164100D02*
X186295100Y-98282100D01*
X174177100Y-52892100D02*
X174177100Y-86164100D01*
X172085000Y-50800000D02*
X174177100Y-52892100D01*
X178858000Y-53128000D02*
X176530000Y-50800000D01*
X178858000Y-89836800D02*
X178858000Y-53128000D01*
X181884200Y-92863000D02*
X178858000Y-89836800D01*
X187997500Y-92863000D02*
X181884200Y-92863000D01*
X193040000Y-87820500D02*
X187997500Y-92863000D01*
X89952800Y-65822800D02*
X91440000Y-67310000D01*
X89952800Y-56287700D02*
X89952800Y-65822800D01*
X91440000Y-54800500D02*
X89952800Y-56287700D01*
D27*
X198247000Y-54584600D02*
X198247000Y-55880000D01*
X194945000Y-51282600D02*
X198247000Y-54584600D01*
X198120000Y-66675000D02*
X197648100Y-66675000D01*
X194178200Y-67754500D02*
X196452900Y-65479800D01*
X193040000Y-67754500D02*
X194178200Y-67754500D01*
X197648100Y-66675000D02*
X196452900Y-65479800D01*
X196452900Y-57674100D02*
X198247000Y-55880000D01*
X196452900Y-65479800D02*
X196452900Y-57674100D01*
X198247000Y-79375000D02*
X201676000Y-82804000D01*
X199898000Y-90170000D02*
X198120000Y-90170000D01*
X201676000Y-88392000D02*
X199898000Y-90170000D01*
X201676000Y-82804000D02*
X201676000Y-88392000D01*
X198247000Y-78079600D02*
X198247000Y-79375000D01*
X194945000Y-74777600D02*
X198247000Y-78079600D01*
X196463100Y-104653900D02*
X198247000Y-102870000D01*
X196463100Y-113665000D02*
X196463100Y-104653900D01*
X194119500Y-113665000D02*
X196463100Y-113665000D01*
X193040000Y-114744500D02*
X194119500Y-113665000D01*
X196463100Y-113665000D02*
X198120000Y-113665000D01*
D26*
X125533200Y-56515000D02*
X128270000Y-56515000D01*
X122993200Y-59055000D02*
X125533200Y-56515000D01*
X116205000Y-59055000D02*
X122993200Y-59055000D01*
X122301000Y-69659500D02*
X121285000Y-69659500D01*
X125730000Y-66230500D02*
X122301000Y-69659500D01*
X139700000Y-72390000D02*
X141224000Y-72390000D01*
X141732000Y-71882000D02*
X141732000Y-65722500D01*
X141224000Y-72390000D02*
X141732000Y-71882000D01*
X141732000Y-65722500D02*
X141414500Y-65405000D01*
X141484500Y-65475000D02*
X141414500Y-65405000D01*
X122301000Y-73850500D02*
X121285000Y-73850500D01*
X125730000Y-77279500D02*
X122301000Y-73850500D01*
X113922900Y-67758400D02*
X112395000Y-66230500D01*
X119757100Y-67758400D02*
X113922900Y-67758400D01*
X121285000Y-66230500D02*
X119757100Y-67758400D01*
X119757100Y-72322600D02*
X121285000Y-73850500D01*
X119757100Y-67758400D02*
X119757100Y-72322600D01*
X120269000Y-77279500D02*
X116840000Y-73850500D01*
X121285000Y-77279500D02*
X120269000Y-77279500D01*
X122301000Y-89979500D02*
X121285000Y-89979500D01*
X125730000Y-86550500D02*
X122301000Y-89979500D01*
X140849500Y-85795000D02*
X140779500Y-85725000D01*
X140849500Y-92710000D02*
X140849500Y-85795000D01*
X139065000Y-92710000D02*
X140849500Y-92710000D01*
X122301000Y-94170500D02*
X121285000Y-94170500D01*
X125730000Y-97599500D02*
X122301000Y-94170500D01*
X113922900Y-88078400D02*
X119757100Y-88078400D01*
X112395000Y-86550500D02*
X113922900Y-88078400D01*
X121285000Y-86550500D02*
X119757100Y-88078400D01*
X119757100Y-92642600D02*
X121285000Y-94170500D01*
X119757100Y-88078400D02*
X119757100Y-92642600D01*
X120269000Y-97599500D02*
X116840000Y-94170500D01*
X121285000Y-97599500D02*
X120269000Y-97599500D01*
X148590000Y-111624900D02*
X148590000Y-110744000D01*
X140702200Y-119512700D02*
X148590000Y-111624900D01*
X131057400Y-119512700D02*
X140702200Y-119512700D01*
X127610800Y-116066100D02*
X131057400Y-119512700D01*
X127610800Y-112180300D02*
X127610800Y-116066100D01*
X125730000Y-110299500D02*
X127610800Y-112180300D01*
X122301000Y-110299500D02*
X121285000Y-110299500D01*
X125730000Y-106870500D02*
X122301000Y-110299500D01*
X139700000Y-113030000D02*
X140462000Y-113030000D01*
X140462000Y-113030000D02*
X141484500Y-112007500D01*
X141484500Y-106115000D02*
X141414500Y-106045000D01*
X141484500Y-112007500D02*
X141484500Y-106115000D01*
X122301000Y-114490500D02*
X121285000Y-114490500D01*
X125730000Y-117919500D02*
X122301000Y-114490500D01*
X113922900Y-108398400D02*
X119757100Y-108398400D01*
X112395000Y-106870500D02*
X113922900Y-108398400D01*
X121285000Y-106870500D02*
X119757100Y-108398400D01*
X119757100Y-112962600D02*
X121285000Y-114490500D01*
X119757100Y-108398400D02*
X119757100Y-112962600D01*
X161951700Y-120242300D02*
X171450000Y-110744000D01*
X130780700Y-120242300D02*
X161951700Y-120242300D01*
X125730000Y-115191600D02*
X130780700Y-120242300D01*
X125730000Y-114490500D02*
X125730000Y-115191600D01*
X120269000Y-117919500D02*
X121285000Y-117919500D01*
X116840000Y-114490500D02*
X120269000Y-117919500D01*
X172651600Y-120972400D02*
X182880000Y-110744000D01*
X124337900Y-120972400D02*
X172651600Y-120972400D01*
X121285000Y-117919500D02*
X124337900Y-120972400D01*
X139700000Y-69850000D02*
X137985500Y-68135500D01*
X137985500Y-68135500D02*
X137985500Y-65405000D01*
X137915500Y-65475000D02*
X137985500Y-65405000D01*
X150368000Y-53022500D02*
X137985500Y-65405000D01*
X180975000Y-54238700D02*
X178752500Y-52016200D01*
X178752500Y-52016200D02*
X178752500Y-50071200D01*
X178752500Y-50071200D02*
X176666900Y-47985600D01*
X176666900Y-47985600D02*
X161294500Y-47985600D01*
X161294500Y-47985600D02*
X156257600Y-53022500D01*
X156257600Y-53022500D02*
X150368000Y-53022500D01*
X180975000Y-55245000D02*
X180975000Y-54238700D01*
X139065000Y-90170000D02*
X138938000Y-90170000D01*
X138938000Y-90170000D02*
X137280500Y-88512500D01*
X137280500Y-85795000D02*
X137350500Y-85725000D01*
X137280500Y-88512500D02*
X137280500Y-85795000D01*
X152804500Y-72718900D02*
X144221500Y-81301900D01*
X152804500Y-64463300D02*
X152804500Y-72718900D01*
X168570700Y-48697100D02*
X152804500Y-64463300D01*
X172960200Y-48697100D02*
X168570700Y-48697100D01*
X174307600Y-50044500D02*
X172960200Y-48697100D01*
X174307600Y-52016300D02*
X174307600Y-50044500D01*
X176530000Y-54238700D02*
X174307600Y-52016300D01*
X176530000Y-55245000D02*
X176530000Y-54238700D01*
X139700000Y-110490000D02*
X137985500Y-108775500D01*
X137985500Y-108775500D02*
X137985500Y-106045000D01*
X137985500Y-106045000D02*
X137915500Y-106115000D01*
X152525500Y-91505000D02*
X137985500Y-106045000D01*
X172085000Y-55245000D02*
X164234500Y-63095500D01*
X164234500Y-63095500D02*
X164234500Y-70340300D01*
X164234500Y-70340300D02*
X152525500Y-82049300D01*
X152525500Y-82049300D02*
X152525500Y-91505000D01*
X132080000Y-72390000D02*
X132842000Y-72390000D01*
X132842000Y-72390000D02*
X133864500Y-71367500D01*
X133864500Y-71367500D02*
X133864500Y-65475000D01*
X133864500Y-65475000D02*
X133794500Y-65405000D01*
X131445000Y-92710000D02*
X131826000Y-92710000D01*
X131826000Y-92710000D02*
X133229500Y-91306500D01*
X133229500Y-85795000D02*
X133159500Y-85725000D01*
X133229500Y-91306500D02*
X133229500Y-85795000D01*
X132080000Y-113030000D02*
X132842000Y-113030000D01*
X132842000Y-113030000D02*
X133864500Y-112007500D01*
X133864500Y-106115000D02*
X133794500Y-106045000D01*
X133864500Y-112007500D02*
X133864500Y-106115000D01*
X139065000Y-95250000D02*
X138684000Y-95250000D01*
X138684000Y-95250000D02*
X137280500Y-96653500D01*
X96103100Y-77497600D02*
X94615000Y-76009500D01*
X96103100Y-81506400D02*
X96103100Y-77497600D01*
X94615000Y-82994500D02*
X96103100Y-81506400D01*
X139700000Y-115570000D02*
X137915500Y-115570000D01*
X139700000Y-74930000D02*
X141484500Y-74930000D01*
X143473000Y-72941500D02*
X141484500Y-74930000D01*
X143473000Y-62378200D02*
X143473000Y-72941500D01*
X150606200Y-55245000D02*
X143473000Y-62378200D01*
X152400000Y-55245000D02*
X150606200Y-55245000D01*
X140763600Y-99188800D02*
X137280500Y-99188800D01*
X143267900Y-96684500D02*
X140763600Y-99188800D01*
X143267900Y-76713400D02*
X143267900Y-96684500D01*
X141484500Y-74930000D02*
X143267900Y-76713400D01*
X137280500Y-96653500D02*
X137280500Y-99188800D01*
X136475400Y-114129900D02*
X137915500Y-115570000D01*
X136475400Y-99993900D02*
X136475400Y-114129900D01*
X137280500Y-99188800D02*
X136475400Y-99993900D01*
X99695000Y-77470000D02*
X100076000Y-77470000D01*
X100076000Y-77470000D02*
X101479500Y-78873500D01*
X101479500Y-101720500D02*
X100965000Y-102235000D01*
X101479500Y-78873500D02*
X101479500Y-101720500D01*
M02*
