G04 #@! TF.FileFunction,Soldermask,Bot*
%FSLAX46Y46*%
G04 Gerber Fmt 4.6, Leading zero omitted, Abs format (unit mm)*
G04 Created by KiCad (PCBNEW 4.0.6) date 06/30/17 20:27:55*
%MOMM*%
%LPD*%
G01*
G04 APERTURE LIST*
%ADD10C,0.100000*%
%ADD11C,3.200400*%
%ADD12C,1.778000*%
%ADD13R,1.070000X1.800000*%
%ADD14O,1.070000X1.800000*%
%ADD15R,1.800000X1.800000*%
%ADD16O,1.800000X1.800000*%
%ADD17C,2.362200*%
%ADD18C,3.860800*%
%ADD19C,3.000000*%
%ADD20C,1.016000*%
%ADD21R,2.400000X1.600000*%
%ADD22O,2.400000X1.600000*%
%ADD23C,4.114800*%
%ADD24C,4.622800*%
%ADD25C,3.683000*%
G04 APERTURE END LIST*
D10*
D11*
X106680000Y-117348000D03*
X186182000Y-117348000D03*
X186690000Y-51562000D03*
D12*
X94615000Y-63500000D03*
X92075000Y-63500000D03*
D13*
X98679000Y-65405000D03*
D14*
X100330000Y-65405000D03*
X101981000Y-65405000D03*
X103632000Y-65405000D03*
D12*
X91440000Y-67310000D03*
X93980000Y-67310000D03*
D15*
X198120000Y-64135000D03*
D16*
X198120000Y-66675000D03*
X198120000Y-69215000D03*
D15*
X198120000Y-87630000D03*
D16*
X198120000Y-90170000D03*
X198120000Y-92710000D03*
D15*
X198120000Y-111125000D03*
D16*
X198120000Y-113665000D03*
X198120000Y-116205000D03*
D12*
X125730000Y-69659500D03*
X125730000Y-66230500D03*
X121285000Y-66230500D03*
X121285000Y-69659500D03*
X116840000Y-69659500D03*
X116840000Y-66230500D03*
X112395000Y-66230500D03*
X112395000Y-69659500D03*
X121285000Y-73850500D03*
X121285000Y-77279500D03*
X116840000Y-77279500D03*
X116840000Y-73850500D03*
X112395000Y-73850500D03*
X112395000Y-77279500D03*
X125730000Y-89979500D03*
X125730000Y-86550500D03*
X121285000Y-86550500D03*
X121285000Y-89979500D03*
X116840000Y-89979500D03*
X116840000Y-86550500D03*
X112395000Y-86550500D03*
X112395000Y-89979500D03*
X125730000Y-97599500D03*
X125730000Y-94170500D03*
X121285000Y-94170500D03*
X121285000Y-97599500D03*
X116840000Y-97599500D03*
X116840000Y-94170500D03*
X112395000Y-94170500D03*
X112395000Y-97599500D03*
X125730000Y-110299500D03*
X125730000Y-106870500D03*
X121285000Y-106870500D03*
X121285000Y-110299500D03*
X116840000Y-110299500D03*
X116840000Y-106870500D03*
X112395000Y-106870500D03*
X112395000Y-110299500D03*
X125730000Y-117919500D03*
X125730000Y-114490500D03*
X121285000Y-114490500D03*
X121285000Y-117919500D03*
X116840000Y-117919500D03*
X116840000Y-114490500D03*
X112395000Y-114490500D03*
X112395000Y-117919500D03*
X137985500Y-65405000D03*
X141414500Y-65405000D03*
X137350500Y-85725000D03*
X140779500Y-85725000D03*
X137985500Y-106045000D03*
X141414500Y-106045000D03*
X130365500Y-65405000D03*
X133794500Y-65405000D03*
X129730500Y-85725000D03*
X133159500Y-85725000D03*
X130365500Y-106045000D03*
X133794500Y-106045000D03*
X193040000Y-67754500D03*
X193040000Y-64325500D03*
X193040000Y-91249500D03*
X193040000Y-87820500D03*
X193040000Y-114744500D03*
X193040000Y-111315500D03*
X109220000Y-54800500D03*
X109220000Y-58229500D03*
X104775000Y-58229500D03*
X104775000Y-54800500D03*
X100330000Y-54800500D03*
X100330000Y-58229500D03*
X94615000Y-72580500D03*
X94615000Y-76009500D03*
X94615000Y-82994500D03*
X94615000Y-79565500D03*
X95885000Y-58229500D03*
X95885000Y-54800500D03*
X91440000Y-54800500D03*
X91440000Y-58229500D03*
D17*
X100965000Y-102235000D03*
X97205800Y-102235000D03*
X104724200Y-102235000D03*
D18*
X95453200Y-92227400D03*
X106476800Y-92227400D03*
D19*
X180975000Y-55245000D03*
D20*
X180975000Y-55245000D03*
D19*
X176530000Y-55245000D03*
D20*
X176530000Y-55245000D03*
D19*
X172085000Y-55245000D03*
D20*
X172085000Y-55245000D03*
D19*
X180975000Y-50800000D03*
D20*
X180975000Y-50800000D03*
D19*
X176530000Y-50800000D03*
D20*
X176530000Y-50800000D03*
D19*
X172085000Y-50800000D03*
D20*
X172085000Y-50800000D03*
D19*
X152400000Y-50800000D03*
D20*
X152400000Y-50800000D03*
D19*
X152400000Y-55245000D03*
D20*
X152400000Y-55245000D03*
D21*
X139700000Y-69850000D03*
D22*
X132080000Y-77470000D03*
X139700000Y-72390000D03*
X132080000Y-74930000D03*
X139700000Y-74930000D03*
X132080000Y-72390000D03*
X139700000Y-77470000D03*
X132080000Y-69850000D03*
D21*
X139065000Y-90170000D03*
D22*
X131445000Y-97790000D03*
X139065000Y-92710000D03*
X131445000Y-95250000D03*
X139065000Y-95250000D03*
X131445000Y-92710000D03*
X139065000Y-97790000D03*
X131445000Y-90170000D03*
D21*
X139700000Y-110490000D03*
D22*
X132080000Y-118110000D03*
X139700000Y-113030000D03*
X132080000Y-115570000D03*
X139700000Y-115570000D03*
X132080000Y-113030000D03*
X139700000Y-118110000D03*
X132080000Y-110490000D03*
D12*
X116205000Y-59055000D03*
X118745000Y-56515000D03*
X113665000Y-56515000D03*
X125730000Y-59055000D03*
X128270000Y-56515000D03*
X123190000Y-56515000D03*
X135255000Y-59055000D03*
X137795000Y-56515000D03*
X132715000Y-56515000D03*
X125730000Y-77279500D03*
X125730000Y-73850500D03*
D21*
X107315000Y-72390000D03*
D22*
X99695000Y-80010000D03*
X107315000Y-74930000D03*
X99695000Y-77470000D03*
X107315000Y-77470000D03*
X99695000Y-74930000D03*
X107315000Y-80010000D03*
X99695000Y-72390000D03*
D23*
X95123000Y-113030000D03*
D24*
X101727000Y-113030000D03*
D23*
X98425000Y-117627400D03*
X198247000Y-102870000D03*
D24*
X191643000Y-102870000D03*
D23*
X194945000Y-98272600D03*
X198247000Y-79375000D03*
D24*
X191643000Y-79375000D03*
D23*
X194945000Y-74777600D03*
X198247000Y-55880000D03*
D24*
X191643000Y-55880000D03*
D23*
X194945000Y-51282600D03*
D25*
X182880000Y-110744000D03*
X182880000Y-106045000D03*
X182880000Y-101346000D03*
X171450000Y-110744000D03*
X171450000Y-106045000D03*
X171450000Y-101346000D03*
X160020000Y-110744000D03*
X160020000Y-106045000D03*
X160020000Y-101346000D03*
X148590000Y-110744000D03*
X148590000Y-106045000D03*
X148590000Y-101346000D03*
X182880000Y-90424000D03*
X182880000Y-85725000D03*
X182880000Y-81026000D03*
X171450000Y-90424000D03*
X171450000Y-85725000D03*
X171450000Y-81026000D03*
X160020000Y-90424000D03*
X160020000Y-85725000D03*
X160020000Y-81026000D03*
X148590000Y-90424000D03*
X148590000Y-85725000D03*
X148590000Y-81026000D03*
X182880000Y-70104000D03*
X182880000Y-65405000D03*
X182880000Y-60706000D03*
X171450000Y-70104000D03*
X171450000Y-65405000D03*
X171450000Y-60706000D03*
X160020000Y-70104000D03*
X160020000Y-65405000D03*
X160020000Y-60706000D03*
X148590000Y-70104000D03*
X148590000Y-65405000D03*
X148590000Y-60706000D03*
D11*
X106680000Y-51562000D03*
M02*
