M48
;DRILL file {KiCad 4.0.6} date 06/30/17 20:25:14
;FORMAT={-:-/ absolute / metric / decimal}
FMAT,2
METRIC,TZ
T1C0.406
T2C0.508
T3C0.711
T4C0.800
T5C0.900
T6C1.000
T7C1.295
T8C2.616
T9C2.794
T10C3.048
T11C3.556
T12C3.200
%
G90
G05
M71
T1
X133.701Y-103.724
X144.221Y-81.302
T2
X152.4Y-50.8
X152.4Y-55.245
X172.085Y-50.8
X172.085Y-55.245
X176.53Y-50.8
X176.53Y-55.245
X180.975Y-50.8
X180.975Y-55.245
T3
X91.44Y-54.8
X91.44Y-58.229
X91.44Y-67.31
X92.075Y-63.5
X93.98Y-67.31
X94.615Y-63.5
X94.615Y-72.581
X94.615Y-76.01
X94.615Y-79.566
X94.615Y-82.995
X95.885Y-54.8
X95.885Y-58.229
X100.33Y-54.8
X100.33Y-58.229
X104.775Y-54.8
X104.775Y-58.229
X109.22Y-54.8
X109.22Y-58.229
X112.395Y-66.23
X112.395Y-69.659
X112.395Y-73.85
X112.395Y-77.279
X112.395Y-86.55
X112.395Y-89.98
X112.395Y-94.17
X112.395Y-97.599
X112.395Y-106.87
X112.395Y-110.299
X112.395Y-114.49
X112.395Y-117.919
X113.665Y-56.515
X116.205Y-59.055
X116.84Y-66.23
X116.84Y-69.659
X116.84Y-73.85
X116.84Y-77.279
X116.84Y-86.55
X116.84Y-89.98
X116.84Y-94.17
X116.84Y-97.599
X116.84Y-106.87
X116.84Y-110.299
X116.84Y-114.49
X116.84Y-117.919
X118.745Y-56.515
X121.285Y-66.23
X121.285Y-69.659
X121.285Y-73.85
X121.285Y-77.279
X121.285Y-86.55
X121.285Y-89.98
X121.285Y-94.17
X121.285Y-97.599
X121.285Y-106.87
X121.285Y-110.299
X121.285Y-114.49
X121.285Y-117.919
X123.19Y-56.515
X125.73Y-59.055
X125.73Y-66.23
X125.73Y-69.659
X125.73Y-73.85
X125.73Y-77.279
X125.73Y-86.55
X125.73Y-89.98
X125.73Y-94.17
X125.73Y-97.599
X125.73Y-106.87
X125.73Y-110.299
X125.73Y-114.49
X125.73Y-117.919
X128.27Y-56.515
X129.731Y-85.725
X130.365Y-65.405
X130.365Y-106.045
X132.715Y-56.515
X133.159Y-85.725
X133.794Y-65.405
X133.794Y-106.045
X135.255Y-59.055
X137.35Y-85.725
X137.795Y-56.515
X137.986Y-65.405
X137.986Y-106.045
X140.779Y-85.725
X141.415Y-65.405
X141.415Y-106.045
X193.04Y-64.325
X193.04Y-67.754
X193.04Y-87.82
X193.04Y-91.249
X193.04Y-111.316
X193.04Y-114.744
T4
X99.695Y-72.39
X99.695Y-74.93
X99.695Y-77.47
X99.695Y-80.01
X107.315Y-72.39
X107.315Y-74.93
X107.315Y-77.47
X107.315Y-80.01
X131.445Y-90.17
X131.445Y-92.71
X131.445Y-95.25
X131.445Y-97.79
X132.08Y-69.85
X132.08Y-72.39
X132.08Y-74.93
X132.08Y-77.47
X132.08Y-110.49
X132.08Y-113.03
X132.08Y-115.57
X132.08Y-118.11
X139.065Y-90.17
X139.065Y-92.71
X139.065Y-95.25
X139.065Y-97.79
X139.7Y-69.85
X139.7Y-72.39
X139.7Y-74.93
X139.7Y-77.47
X139.7Y-110.49
X139.7Y-113.03
X139.7Y-115.57
X139.7Y-118.11
T5
X98.679Y-65.405
X100.33Y-65.405
X101.981Y-65.405
X103.632Y-65.405
T6
X198.12Y-64.135
X198.12Y-66.675
X198.12Y-69.215
X198.12Y-87.63
X198.12Y-90.17
X198.12Y-92.71
X198.12Y-111.125
X198.12Y-113.665
X198.12Y-116.205
T7
X97.206Y-102.235
X100.965Y-102.235
X104.724Y-102.235
T8
X148.59Y-60.706
X148.59Y-65.405
X148.59Y-70.104
X148.59Y-81.026
X148.59Y-85.725
X148.59Y-90.424
X148.59Y-101.346
X148.59Y-106.045
X148.59Y-110.744
X160.02Y-60.706
X160.02Y-65.405
X160.02Y-70.104
X160.02Y-81.026
X160.02Y-85.725
X160.02Y-90.424
X160.02Y-101.346
X160.02Y-106.045
X160.02Y-110.744
X171.45Y-60.706
X171.45Y-65.405
X171.45Y-70.104
X171.45Y-81.026
X171.45Y-85.725
X171.45Y-90.424
X171.45Y-101.346
X171.45Y-106.045
X171.45Y-110.744
X182.88Y-60.706
X182.88Y-65.405
X182.88Y-70.104
X182.88Y-81.026
X182.88Y-85.725
X182.88Y-90.424
X182.88Y-101.346
X182.88Y-106.045
X182.88Y-110.744
T9
X95.453Y-92.227
X106.477Y-92.227
T10
X95.123Y-113.03
X98.425Y-117.627
X194.945Y-51.283
X194.945Y-74.778
X194.945Y-98.273
X198.247Y-55.88
X198.247Y-79.375
X198.247Y-102.87
T11
X101.727Y-113.03
X191.643Y-55.88
X191.643Y-79.375
X191.643Y-102.87
T12
X106.68Y-51.562
X106.68Y-117.348
X186.182Y-117.348
X186.69Y-51.562
T0
M30
