G04 #@! TF.FileFunction,Legend,Top*
%FSLAX46Y46*%
G04 Gerber Fmt 4.6, Leading zero omitted, Abs format (unit mm)*
G04 Created by KiCad (PCBNEW 4.0.6) date 06/30/17 20:27:55*
%MOMM*%
%LPD*%
G01*
G04 APERTURE LIST*
%ADD10C,0.100000*%
%ADD11C,0.300000*%
%ADD12C,0.152400*%
%ADD13C,0.120000*%
%ADD14C,0.150000*%
G04 APERTURE END LIST*
D10*
D11*
X151385713Y-95857143D02*
X151528570Y-95928571D01*
X151814285Y-95928571D01*
X151957142Y-95857143D01*
X152028570Y-95714286D01*
X152028570Y-95642857D01*
X151957142Y-95500000D01*
X151814285Y-95428571D01*
X151599999Y-95428571D01*
X151457142Y-95357143D01*
X151385713Y-95214286D01*
X151385713Y-95142857D01*
X151457142Y-95000000D01*
X151599999Y-94928571D01*
X151814285Y-94928571D01*
X151957142Y-95000000D01*
X153314285Y-95928571D02*
X153314285Y-95142857D01*
X153242856Y-95000000D01*
X153099999Y-94928571D01*
X152814285Y-94928571D01*
X152671428Y-95000000D01*
X153314285Y-95857143D02*
X153171428Y-95928571D01*
X152814285Y-95928571D01*
X152671428Y-95857143D01*
X152599999Y-95714286D01*
X152599999Y-95571429D01*
X152671428Y-95428571D01*
X152814285Y-95357143D01*
X153171428Y-95357143D01*
X153314285Y-95285714D01*
X154028571Y-95928571D02*
X154028571Y-94928571D01*
X154028571Y-95071429D02*
X154099999Y-95000000D01*
X154242857Y-94928571D01*
X154457142Y-94928571D01*
X154599999Y-95000000D01*
X154671428Y-95142857D01*
X154671428Y-95928571D01*
X154671428Y-95142857D02*
X154742857Y-95000000D01*
X154885714Y-94928571D01*
X155099999Y-94928571D01*
X155242857Y-95000000D01*
X155314285Y-95142857D01*
X155314285Y-95928571D01*
X155957142Y-95857143D02*
X156099999Y-95928571D01*
X156385714Y-95928571D01*
X156528571Y-95857143D01*
X156599999Y-95714286D01*
X156599999Y-95642857D01*
X156528571Y-95500000D01*
X156385714Y-95428571D01*
X156171428Y-95428571D01*
X156028571Y-95357143D01*
X155957142Y-95214286D01*
X155957142Y-95142857D01*
X156028571Y-95000000D01*
X156171428Y-94928571D01*
X156385714Y-94928571D01*
X156528571Y-95000000D01*
X157885714Y-95928571D02*
X157885714Y-95142857D01*
X157814285Y-95000000D01*
X157671428Y-94928571D01*
X157385714Y-94928571D01*
X157242857Y-95000000D01*
X157885714Y-95857143D02*
X157742857Y-95928571D01*
X157385714Y-95928571D01*
X157242857Y-95857143D01*
X157171428Y-95714286D01*
X157171428Y-95571429D01*
X157242857Y-95428571D01*
X157385714Y-95357143D01*
X157742857Y-95357143D01*
X157885714Y-95285714D01*
X158600000Y-95928571D02*
X158600000Y-94928571D01*
X158600000Y-95071429D02*
X158671428Y-95000000D01*
X158814286Y-94928571D01*
X159028571Y-94928571D01*
X159171428Y-95000000D01*
X159242857Y-95142857D01*
X159242857Y-95928571D01*
X159242857Y-95142857D02*
X159314286Y-95000000D01*
X159457143Y-94928571D01*
X159671428Y-94928571D01*
X159814286Y-95000000D01*
X159885714Y-95142857D01*
X159885714Y-95928571D01*
X161957143Y-95928571D02*
X161814285Y-95857143D01*
X161742857Y-95714286D01*
X161742857Y-94428571D01*
X162742857Y-95928571D02*
X162599999Y-95857143D01*
X162528571Y-95785714D01*
X162457142Y-95642857D01*
X162457142Y-95214286D01*
X162528571Y-95071429D01*
X162599999Y-95000000D01*
X162742857Y-94928571D01*
X162957142Y-94928571D01*
X163099999Y-95000000D01*
X163171428Y-95071429D01*
X163242857Y-95214286D01*
X163242857Y-95642857D01*
X163171428Y-95785714D01*
X163099999Y-95857143D01*
X162957142Y-95928571D01*
X162742857Y-95928571D01*
X163742857Y-94928571D02*
X164100000Y-95928571D01*
X164457142Y-94928571D01*
X165599999Y-95857143D02*
X165457142Y-95928571D01*
X165171428Y-95928571D01*
X165028571Y-95857143D01*
X164957142Y-95714286D01*
X164957142Y-95142857D01*
X165028571Y-95000000D01*
X165171428Y-94928571D01*
X165457142Y-94928571D01*
X165599999Y-95000000D01*
X165671428Y-95142857D01*
X165671428Y-95285714D01*
X164957142Y-95428571D01*
X166242856Y-95857143D02*
X166385713Y-95928571D01*
X166671428Y-95928571D01*
X166814285Y-95857143D01*
X166885713Y-95714286D01*
X166885713Y-95642857D01*
X166814285Y-95500000D01*
X166671428Y-95428571D01*
X166457142Y-95428571D01*
X166314285Y-95357143D01*
X166242856Y-95214286D01*
X166242856Y-95142857D01*
X166314285Y-95000000D01*
X166457142Y-94928571D01*
X166671428Y-94928571D01*
X166814285Y-95000000D01*
X168671428Y-94928571D02*
X168671428Y-96428571D01*
X168671428Y-95000000D02*
X168814285Y-94928571D01*
X169099999Y-94928571D01*
X169242856Y-95000000D01*
X169314285Y-95071429D01*
X169385714Y-95214286D01*
X169385714Y-95642857D01*
X169314285Y-95785714D01*
X169242856Y-95857143D01*
X169099999Y-95928571D01*
X168814285Y-95928571D01*
X168671428Y-95857143D01*
X170599999Y-95857143D02*
X170457142Y-95928571D01*
X170171428Y-95928571D01*
X170028571Y-95857143D01*
X169957142Y-95714286D01*
X169957142Y-95142857D01*
X170028571Y-95000000D01*
X170171428Y-94928571D01*
X170457142Y-94928571D01*
X170599999Y-95000000D01*
X170671428Y-95142857D01*
X170671428Y-95285714D01*
X169957142Y-95428571D01*
X171314285Y-94928571D02*
X171314285Y-95928571D01*
X171314285Y-95071429D02*
X171385713Y-95000000D01*
X171528571Y-94928571D01*
X171742856Y-94928571D01*
X171885713Y-95000000D01*
X171957142Y-95142857D01*
X171957142Y-95928571D01*
X172671428Y-94928571D02*
X172671428Y-95928571D01*
X172671428Y-95071429D02*
X172742856Y-95000000D01*
X172885714Y-94928571D01*
X173099999Y-94928571D01*
X173242856Y-95000000D01*
X173314285Y-95142857D01*
X173314285Y-95928571D01*
X173885714Y-94928571D02*
X174242857Y-95928571D01*
X174599999Y-94928571D02*
X174242857Y-95928571D01*
X174099999Y-96285714D01*
X174028571Y-96357143D01*
X173885714Y-96428571D01*
X175171428Y-95785714D02*
X175242856Y-95857143D01*
X175171428Y-95928571D01*
X175099999Y-95857143D01*
X175171428Y-95785714D01*
X175171428Y-95928571D01*
X175171428Y-95357143D02*
X175099999Y-94500000D01*
X175171428Y-94428571D01*
X175242856Y-94500000D01*
X175171428Y-95357143D01*
X175171428Y-94428571D01*
X175885714Y-95785714D02*
X175957142Y-95857143D01*
X175885714Y-95928571D01*
X175814285Y-95857143D01*
X175885714Y-95785714D01*
X175885714Y-95928571D01*
X175885714Y-95357143D02*
X175814285Y-94500000D01*
X175885714Y-94428571D01*
X175957142Y-94500000D01*
X175885714Y-95357143D01*
X175885714Y-94428571D01*
X176600000Y-95785714D02*
X176671428Y-95857143D01*
X176600000Y-95928571D01*
X176528571Y-95857143D01*
X176600000Y-95785714D01*
X176600000Y-95928571D01*
X176600000Y-95357143D02*
X176528571Y-94500000D01*
X176600000Y-94428571D01*
X176671428Y-94500000D01*
X176600000Y-95357143D01*
X176600000Y-94428571D01*
X177314286Y-95785714D02*
X177385714Y-95857143D01*
X177314286Y-95928571D01*
X177242857Y-95857143D01*
X177314286Y-95785714D01*
X177314286Y-95928571D01*
X177314286Y-95357143D02*
X177242857Y-94500000D01*
X177314286Y-94428571D01*
X177385714Y-94500000D01*
X177314286Y-95357143D01*
X177314286Y-94428571D01*
X178028572Y-95785714D02*
X178100000Y-95857143D01*
X178028572Y-95928571D01*
X177957143Y-95857143D01*
X178028572Y-95785714D01*
X178028572Y-95928571D01*
X178028572Y-95357143D02*
X177957143Y-94500000D01*
X178028572Y-94428571D01*
X178100000Y-94500000D01*
X178028572Y-95357143D01*
X178028572Y-94428571D01*
X178742858Y-95785714D02*
X178814286Y-95857143D01*
X178742858Y-95928571D01*
X178671429Y-95857143D01*
X178742858Y-95785714D01*
X178742858Y-95928571D01*
X178742858Y-95357143D02*
X178671429Y-94500000D01*
X178742858Y-94428571D01*
X178814286Y-94500000D01*
X178742858Y-95357143D01*
X178742858Y-94428571D01*
X99413429Y-68242571D02*
X98913429Y-67528286D01*
X98556286Y-68242571D02*
X98556286Y-66742571D01*
X99127714Y-66742571D01*
X99270572Y-66814000D01*
X99342000Y-66885429D01*
X99413429Y-67028286D01*
X99413429Y-67242571D01*
X99342000Y-67385429D01*
X99270572Y-67456857D01*
X99127714Y-67528286D01*
X98556286Y-67528286D01*
X99984857Y-67814000D02*
X100699143Y-67814000D01*
X99842000Y-68242571D02*
X100342000Y-66742571D01*
X100842000Y-68242571D01*
X101842000Y-67456857D02*
X102056286Y-67528286D01*
X102127714Y-67599714D01*
X102199143Y-67742571D01*
X102199143Y-67956857D01*
X102127714Y-68099714D01*
X102056286Y-68171143D01*
X101913428Y-68242571D01*
X101342000Y-68242571D01*
X101342000Y-66742571D01*
X101842000Y-66742571D01*
X101984857Y-66814000D01*
X102056286Y-66885429D01*
X102127714Y-67028286D01*
X102127714Y-67171143D01*
X102056286Y-67314000D01*
X101984857Y-67385429D01*
X101842000Y-67456857D01*
X101342000Y-67456857D01*
X103627714Y-66814000D02*
X103484857Y-66742571D01*
X103270571Y-66742571D01*
X103056286Y-66814000D01*
X102913428Y-66956857D01*
X102842000Y-67099714D01*
X102770571Y-67385429D01*
X102770571Y-67599714D01*
X102842000Y-67885429D01*
X102913428Y-68028286D01*
X103056286Y-68171143D01*
X103270571Y-68242571D01*
X103413428Y-68242571D01*
X103627714Y-68171143D01*
X103699143Y-68099714D01*
X103699143Y-67599714D01*
X103413428Y-67599714D01*
D12*
X97917000Y-67564000D02*
X97917000Y-63246000D01*
X97917000Y-67564000D02*
G75*
G03X103124000Y-68453000I3048000J2159000D01*
G01*
X102525145Y-68798749D02*
G75*
G03X97917000Y-63246000I-1560145J3393749D01*
G01*
D13*
X200740000Y-61555000D02*
X200740000Y-71795000D01*
X196099000Y-61555000D02*
X196099000Y-71795000D01*
X200740000Y-61555000D02*
X196099000Y-61555000D01*
X200740000Y-71795000D02*
X196099000Y-71795000D01*
X199230000Y-61555000D02*
X199230000Y-71795000D01*
X200740000Y-64825000D02*
X199230000Y-64825000D01*
X200740000Y-68526000D02*
X199230000Y-68526000D01*
X200740000Y-85050000D02*
X200740000Y-95290000D01*
X196099000Y-85050000D02*
X196099000Y-95290000D01*
X200740000Y-85050000D02*
X196099000Y-85050000D01*
X200740000Y-95290000D02*
X196099000Y-95290000D01*
X199230000Y-85050000D02*
X199230000Y-95290000D01*
X200740000Y-88320000D02*
X199230000Y-88320000D01*
X200740000Y-92021000D02*
X199230000Y-92021000D01*
X200740000Y-108545000D02*
X200740000Y-118785000D01*
X196099000Y-108545000D02*
X196099000Y-118785000D01*
X200740000Y-108545000D02*
X196099000Y-108545000D01*
X200740000Y-118785000D02*
X196099000Y-118785000D01*
X199230000Y-108545000D02*
X199230000Y-118785000D01*
X200740000Y-111815000D02*
X199230000Y-111815000D01*
X200740000Y-115516000D02*
X199230000Y-115516000D01*
D12*
X107213400Y-98628200D02*
X94716600Y-98628200D01*
X94716600Y-85826600D02*
X94716600Y-98628200D01*
X107213400Y-85826600D02*
X107213400Y-98628200D01*
X107213400Y-85826600D02*
X94716600Y-85826600D01*
X103860600Y-92227400D02*
G75*
G03X103860600Y-92227400I-2895600J0D01*
G01*
X101219000Y-108585000D02*
X87757000Y-108585000D01*
X101219000Y-117475000D02*
X87757000Y-117475000D01*
X101219000Y-108585000D02*
X101219000Y-117475000D01*
X87757000Y-108585000D02*
X87757000Y-117475000D01*
X192151000Y-107315000D02*
X205613000Y-107315000D01*
X192151000Y-98425000D02*
X205613000Y-98425000D01*
X192151000Y-107315000D02*
X192151000Y-98425000D01*
X205613000Y-107315000D02*
X205613000Y-98425000D01*
X192151000Y-83820000D02*
X205613000Y-83820000D01*
X192151000Y-74930000D02*
X205613000Y-74930000D01*
X192151000Y-83820000D02*
X192151000Y-74930000D01*
X205613000Y-83820000D02*
X205613000Y-74930000D01*
X192151000Y-60325000D02*
X205613000Y-60325000D01*
X192151000Y-51435000D02*
X205613000Y-51435000D01*
X192151000Y-60325000D02*
X192151000Y-51435000D01*
X205613000Y-60325000D02*
X205613000Y-51435000D01*
X186309000Y-100457000D02*
X179578000Y-100457000D01*
X179578000Y-100457000D02*
X179451000Y-100457000D01*
X179451000Y-99695000D02*
X179451000Y-98806000D01*
X179451000Y-98806000D02*
X186309000Y-98806000D01*
X186309000Y-98806000D02*
X186309000Y-99695000D01*
X179451000Y-112395000D02*
X186309000Y-112395000D01*
X179451000Y-99695000D02*
X186309000Y-99695000D01*
X186309000Y-112395000D02*
X186309000Y-99695000D01*
X179451000Y-112395000D02*
X179451000Y-99695000D01*
X174879000Y-100457000D02*
X168148000Y-100457000D01*
X168148000Y-100457000D02*
X168021000Y-100457000D01*
X168021000Y-99695000D02*
X168021000Y-98806000D01*
X168021000Y-98806000D02*
X174879000Y-98806000D01*
X174879000Y-98806000D02*
X174879000Y-99695000D01*
X168021000Y-112395000D02*
X174879000Y-112395000D01*
X168021000Y-99695000D02*
X174879000Y-99695000D01*
X174879000Y-112395000D02*
X174879000Y-99695000D01*
X168021000Y-112395000D02*
X168021000Y-99695000D01*
X163449000Y-100457000D02*
X156718000Y-100457000D01*
X156718000Y-100457000D02*
X156591000Y-100457000D01*
X156591000Y-99695000D02*
X156591000Y-98806000D01*
X156591000Y-98806000D02*
X163449000Y-98806000D01*
X163449000Y-98806000D02*
X163449000Y-99695000D01*
X156591000Y-112395000D02*
X163449000Y-112395000D01*
X156591000Y-99695000D02*
X163449000Y-99695000D01*
X163449000Y-112395000D02*
X163449000Y-99695000D01*
X156591000Y-112395000D02*
X156591000Y-99695000D01*
X152019000Y-100457000D02*
X145288000Y-100457000D01*
X145288000Y-100457000D02*
X145161000Y-100457000D01*
X145161000Y-99695000D02*
X145161000Y-98806000D01*
X145161000Y-98806000D02*
X152019000Y-98806000D01*
X152019000Y-98806000D02*
X152019000Y-99695000D01*
X145161000Y-112395000D02*
X152019000Y-112395000D01*
X145161000Y-99695000D02*
X152019000Y-99695000D01*
X152019000Y-112395000D02*
X152019000Y-99695000D01*
X145161000Y-112395000D02*
X145161000Y-99695000D01*
X186309000Y-80137000D02*
X179578000Y-80137000D01*
X179578000Y-80137000D02*
X179451000Y-80137000D01*
X179451000Y-79375000D02*
X179451000Y-78486000D01*
X179451000Y-78486000D02*
X186309000Y-78486000D01*
X186309000Y-78486000D02*
X186309000Y-79375000D01*
X179451000Y-92075000D02*
X186309000Y-92075000D01*
X179451000Y-79375000D02*
X186309000Y-79375000D01*
X186309000Y-92075000D02*
X186309000Y-79375000D01*
X179451000Y-92075000D02*
X179451000Y-79375000D01*
X174879000Y-80137000D02*
X168148000Y-80137000D01*
X168148000Y-80137000D02*
X168021000Y-80137000D01*
X168021000Y-79375000D02*
X168021000Y-78486000D01*
X168021000Y-78486000D02*
X174879000Y-78486000D01*
X174879000Y-78486000D02*
X174879000Y-79375000D01*
X168021000Y-92075000D02*
X174879000Y-92075000D01*
X168021000Y-79375000D02*
X174879000Y-79375000D01*
X174879000Y-92075000D02*
X174879000Y-79375000D01*
X168021000Y-92075000D02*
X168021000Y-79375000D01*
X163449000Y-80137000D02*
X156718000Y-80137000D01*
X156718000Y-80137000D02*
X156591000Y-80137000D01*
X156591000Y-79375000D02*
X156591000Y-78486000D01*
X156591000Y-78486000D02*
X163449000Y-78486000D01*
X163449000Y-78486000D02*
X163449000Y-79375000D01*
X156591000Y-92075000D02*
X163449000Y-92075000D01*
X156591000Y-79375000D02*
X163449000Y-79375000D01*
X163449000Y-92075000D02*
X163449000Y-79375000D01*
X156591000Y-92075000D02*
X156591000Y-79375000D01*
X152019000Y-80137000D02*
X145288000Y-80137000D01*
X145288000Y-80137000D02*
X145161000Y-80137000D01*
X145161000Y-79375000D02*
X145161000Y-78486000D01*
X145161000Y-78486000D02*
X152019000Y-78486000D01*
X152019000Y-78486000D02*
X152019000Y-79375000D01*
X145161000Y-92075000D02*
X152019000Y-92075000D01*
X145161000Y-79375000D02*
X152019000Y-79375000D01*
X152019000Y-92075000D02*
X152019000Y-79375000D01*
X145161000Y-92075000D02*
X145161000Y-79375000D01*
X186309000Y-59817000D02*
X179578000Y-59817000D01*
X179578000Y-59817000D02*
X179451000Y-59817000D01*
X179451000Y-59055000D02*
X179451000Y-58166000D01*
X179451000Y-58166000D02*
X186309000Y-58166000D01*
X186309000Y-58166000D02*
X186309000Y-59055000D01*
X179451000Y-71755000D02*
X186309000Y-71755000D01*
X179451000Y-59055000D02*
X186309000Y-59055000D01*
X186309000Y-71755000D02*
X186309000Y-59055000D01*
X179451000Y-71755000D02*
X179451000Y-59055000D01*
X174879000Y-59817000D02*
X168148000Y-59817000D01*
X168148000Y-59817000D02*
X168021000Y-59817000D01*
X168021000Y-59055000D02*
X168021000Y-58166000D01*
X168021000Y-58166000D02*
X174879000Y-58166000D01*
X174879000Y-58166000D02*
X174879000Y-59055000D01*
X168021000Y-71755000D02*
X174879000Y-71755000D01*
X168021000Y-59055000D02*
X174879000Y-59055000D01*
X174879000Y-71755000D02*
X174879000Y-59055000D01*
X168021000Y-71755000D02*
X168021000Y-59055000D01*
X163449000Y-59817000D02*
X156718000Y-59817000D01*
X156718000Y-59817000D02*
X156591000Y-59817000D01*
X156591000Y-59055000D02*
X156591000Y-58166000D01*
X156591000Y-58166000D02*
X163449000Y-58166000D01*
X163449000Y-58166000D02*
X163449000Y-59055000D01*
X156591000Y-71755000D02*
X163449000Y-71755000D01*
X156591000Y-59055000D02*
X163449000Y-59055000D01*
X163449000Y-71755000D02*
X163449000Y-59055000D01*
X156591000Y-71755000D02*
X156591000Y-59055000D01*
X152019000Y-59817000D02*
X145288000Y-59817000D01*
X145288000Y-59817000D02*
X145161000Y-59817000D01*
X145161000Y-59055000D02*
X145161000Y-58166000D01*
X145161000Y-58166000D02*
X152019000Y-58166000D01*
X152019000Y-58166000D02*
X152019000Y-59055000D01*
X145161000Y-71755000D02*
X152019000Y-71755000D01*
X145161000Y-59055000D02*
X152019000Y-59055000D01*
X152019000Y-71755000D02*
X152019000Y-59055000D01*
X145161000Y-71755000D02*
X145161000Y-59055000D01*
D14*
X100226905Y-61897381D02*
X100226905Y-60897381D01*
X100465000Y-60897381D01*
X100607858Y-60945000D01*
X100703096Y-61040238D01*
X100750715Y-61135476D01*
X100798334Y-61325952D01*
X100798334Y-61468810D01*
X100750715Y-61659286D01*
X100703096Y-61754524D01*
X100607858Y-61849762D01*
X100465000Y-61897381D01*
X100226905Y-61897381D01*
X101750715Y-61897381D02*
X101179286Y-61897381D01*
X101465000Y-61897381D02*
X101465000Y-60897381D01*
X101369762Y-61040238D01*
X101274524Y-61135476D01*
X101179286Y-61183095D01*
X202287619Y-66770238D02*
X202240000Y-66865476D01*
X202144762Y-66960714D01*
X202001905Y-67103571D01*
X201954286Y-67198810D01*
X201954286Y-67294048D01*
X202192381Y-67246429D02*
X202144762Y-67341667D01*
X202049524Y-67436905D01*
X201859048Y-67484524D01*
X201525714Y-67484524D01*
X201335238Y-67436905D01*
X201240000Y-67341667D01*
X201192381Y-67246429D01*
X201192381Y-67055952D01*
X201240000Y-66960714D01*
X201335238Y-66865476D01*
X201525714Y-66817857D01*
X201859048Y-66817857D01*
X202049524Y-66865476D01*
X202144762Y-66960714D01*
X202192381Y-67055952D01*
X202192381Y-67246429D01*
X202192381Y-65865476D02*
X202192381Y-66436905D01*
X202192381Y-66151191D02*
X201192381Y-66151191D01*
X201335238Y-66246429D01*
X201430476Y-66341667D01*
X201478095Y-66436905D01*
X202287619Y-90265238D02*
X202240000Y-90360476D01*
X202144762Y-90455714D01*
X202001905Y-90598571D01*
X201954286Y-90693810D01*
X201954286Y-90789048D01*
X202192381Y-90741429D02*
X202144762Y-90836667D01*
X202049524Y-90931905D01*
X201859048Y-90979524D01*
X201525714Y-90979524D01*
X201335238Y-90931905D01*
X201240000Y-90836667D01*
X201192381Y-90741429D01*
X201192381Y-90550952D01*
X201240000Y-90455714D01*
X201335238Y-90360476D01*
X201525714Y-90312857D01*
X201859048Y-90312857D01*
X202049524Y-90360476D01*
X202144762Y-90455714D01*
X202192381Y-90550952D01*
X202192381Y-90741429D01*
X201287619Y-89931905D02*
X201240000Y-89884286D01*
X201192381Y-89789048D01*
X201192381Y-89550952D01*
X201240000Y-89455714D01*
X201287619Y-89408095D01*
X201382857Y-89360476D01*
X201478095Y-89360476D01*
X201620952Y-89408095D01*
X202192381Y-89979524D01*
X202192381Y-89360476D01*
X202287619Y-113760238D02*
X202240000Y-113855476D01*
X202144762Y-113950714D01*
X202001905Y-114093571D01*
X201954286Y-114188810D01*
X201954286Y-114284048D01*
X202192381Y-114236429D02*
X202144762Y-114331667D01*
X202049524Y-114426905D01*
X201859048Y-114474524D01*
X201525714Y-114474524D01*
X201335238Y-114426905D01*
X201240000Y-114331667D01*
X201192381Y-114236429D01*
X201192381Y-114045952D01*
X201240000Y-113950714D01*
X201335238Y-113855476D01*
X201525714Y-113807857D01*
X201859048Y-113807857D01*
X202049524Y-113855476D01*
X202144762Y-113950714D01*
X202192381Y-114045952D01*
X202192381Y-114236429D01*
X201192381Y-113474524D02*
X201192381Y-112855476D01*
X201573333Y-113188810D01*
X201573333Y-113045952D01*
X201620952Y-112950714D01*
X201668571Y-112903095D01*
X201763810Y-112855476D01*
X202001905Y-112855476D01*
X202097143Y-112903095D01*
X202144762Y-112950714D01*
X202192381Y-113045952D01*
X202192381Y-113331667D01*
X202144762Y-113426905D01*
X202097143Y-113474524D01*
X100369762Y-104592381D02*
X100036428Y-104116190D01*
X99798333Y-104592381D02*
X99798333Y-103592381D01*
X100179286Y-103592381D01*
X100274524Y-103640000D01*
X100322143Y-103687619D01*
X100369762Y-103782857D01*
X100369762Y-103925714D01*
X100322143Y-104020952D01*
X100274524Y-104068571D01*
X100179286Y-104116190D01*
X99798333Y-104116190D01*
X100655476Y-103592381D02*
X100988809Y-104592381D01*
X101322143Y-103592381D01*
X102179286Y-104592381D02*
X101607857Y-104592381D01*
X101893571Y-104592381D02*
X101893571Y-103592381D01*
X101798333Y-103735238D01*
X101703095Y-103830476D01*
X101607857Y-103878095D01*
X98377381Y-113768095D02*
X97377381Y-113768095D01*
X97377381Y-113387142D01*
X97425000Y-113291904D01*
X97472619Y-113244285D01*
X97567857Y-113196666D01*
X97710714Y-113196666D01*
X97805952Y-113244285D01*
X97853571Y-113291904D01*
X97901190Y-113387142D01*
X97901190Y-113768095D01*
X97710714Y-112339523D02*
X98377381Y-112339523D01*
X97329762Y-112577619D02*
X98044048Y-112815714D01*
X98044048Y-112196666D01*
X195897381Y-103608095D02*
X194897381Y-103608095D01*
X194897381Y-103227142D01*
X194945000Y-103131904D01*
X194992619Y-103084285D01*
X195087857Y-103036666D01*
X195230714Y-103036666D01*
X195325952Y-103084285D01*
X195373571Y-103131904D01*
X195421190Y-103227142D01*
X195421190Y-103608095D01*
X194897381Y-102703333D02*
X194897381Y-102084285D01*
X195278333Y-102417619D01*
X195278333Y-102274761D01*
X195325952Y-102179523D01*
X195373571Y-102131904D01*
X195468810Y-102084285D01*
X195706905Y-102084285D01*
X195802143Y-102131904D01*
X195849762Y-102179523D01*
X195897381Y-102274761D01*
X195897381Y-102560476D01*
X195849762Y-102655714D01*
X195802143Y-102703333D01*
X195897381Y-80113095D02*
X194897381Y-80113095D01*
X194897381Y-79732142D01*
X194945000Y-79636904D01*
X194992619Y-79589285D01*
X195087857Y-79541666D01*
X195230714Y-79541666D01*
X195325952Y-79589285D01*
X195373571Y-79636904D01*
X195421190Y-79732142D01*
X195421190Y-80113095D01*
X194992619Y-79160714D02*
X194945000Y-79113095D01*
X194897381Y-79017857D01*
X194897381Y-78779761D01*
X194945000Y-78684523D01*
X194992619Y-78636904D01*
X195087857Y-78589285D01*
X195183095Y-78589285D01*
X195325952Y-78636904D01*
X195897381Y-79208333D01*
X195897381Y-78589285D01*
X195897381Y-56618095D02*
X194897381Y-56618095D01*
X194897381Y-56237142D01*
X194945000Y-56141904D01*
X194992619Y-56094285D01*
X195087857Y-56046666D01*
X195230714Y-56046666D01*
X195325952Y-56094285D01*
X195373571Y-56141904D01*
X195421190Y-56237142D01*
X195421190Y-56618095D01*
X195897381Y-55094285D02*
X195897381Y-55665714D01*
X195897381Y-55380000D02*
X194897381Y-55380000D01*
X195040238Y-55475238D01*
X195135476Y-55570476D01*
X195183095Y-55665714D01*
X185824762Y-107854524D02*
X185872381Y-107711667D01*
X185872381Y-107473571D01*
X185824762Y-107378333D01*
X185777143Y-107330714D01*
X185681905Y-107283095D01*
X185586667Y-107283095D01*
X185491429Y-107330714D01*
X185443810Y-107378333D01*
X185396190Y-107473571D01*
X185348571Y-107664048D01*
X185300952Y-107759286D01*
X185253333Y-107806905D01*
X185158095Y-107854524D01*
X185062857Y-107854524D01*
X184967619Y-107806905D01*
X184920000Y-107759286D01*
X184872381Y-107664048D01*
X184872381Y-107425952D01*
X184920000Y-107283095D01*
X184872381Y-106949762D02*
X185872381Y-106711667D01*
X185158095Y-106521190D01*
X185872381Y-106330714D01*
X184872381Y-106092619D01*
X185872381Y-105187857D02*
X185872381Y-105759286D01*
X185872381Y-105473572D02*
X184872381Y-105473572D01*
X185015238Y-105568810D01*
X185110476Y-105664048D01*
X185158095Y-105759286D01*
X184967619Y-104806905D02*
X184920000Y-104759286D01*
X184872381Y-104664048D01*
X184872381Y-104425952D01*
X184920000Y-104330714D01*
X184967619Y-104283095D01*
X185062857Y-104235476D01*
X185158095Y-104235476D01*
X185300952Y-104283095D01*
X185872381Y-104854524D01*
X185872381Y-104235476D01*
X174394762Y-107854524D02*
X174442381Y-107711667D01*
X174442381Y-107473571D01*
X174394762Y-107378333D01*
X174347143Y-107330714D01*
X174251905Y-107283095D01*
X174156667Y-107283095D01*
X174061429Y-107330714D01*
X174013810Y-107378333D01*
X173966190Y-107473571D01*
X173918571Y-107664048D01*
X173870952Y-107759286D01*
X173823333Y-107806905D01*
X173728095Y-107854524D01*
X173632857Y-107854524D01*
X173537619Y-107806905D01*
X173490000Y-107759286D01*
X173442381Y-107664048D01*
X173442381Y-107425952D01*
X173490000Y-107283095D01*
X173442381Y-106949762D02*
X174442381Y-106711667D01*
X173728095Y-106521190D01*
X174442381Y-106330714D01*
X173442381Y-106092619D01*
X174442381Y-105187857D02*
X174442381Y-105759286D01*
X174442381Y-105473572D02*
X173442381Y-105473572D01*
X173585238Y-105568810D01*
X173680476Y-105664048D01*
X173728095Y-105759286D01*
X174442381Y-104235476D02*
X174442381Y-104806905D01*
X174442381Y-104521191D02*
X173442381Y-104521191D01*
X173585238Y-104616429D01*
X173680476Y-104711667D01*
X173728095Y-104806905D01*
X162964762Y-107854524D02*
X163012381Y-107711667D01*
X163012381Y-107473571D01*
X162964762Y-107378333D01*
X162917143Y-107330714D01*
X162821905Y-107283095D01*
X162726667Y-107283095D01*
X162631429Y-107330714D01*
X162583810Y-107378333D01*
X162536190Y-107473571D01*
X162488571Y-107664048D01*
X162440952Y-107759286D01*
X162393333Y-107806905D01*
X162298095Y-107854524D01*
X162202857Y-107854524D01*
X162107619Y-107806905D01*
X162060000Y-107759286D01*
X162012381Y-107664048D01*
X162012381Y-107425952D01*
X162060000Y-107283095D01*
X162012381Y-106949762D02*
X163012381Y-106711667D01*
X162298095Y-106521190D01*
X163012381Y-106330714D01*
X162012381Y-106092619D01*
X163012381Y-105187857D02*
X163012381Y-105759286D01*
X163012381Y-105473572D02*
X162012381Y-105473572D01*
X162155238Y-105568810D01*
X162250476Y-105664048D01*
X162298095Y-105759286D01*
X162012381Y-104568810D02*
X162012381Y-104473571D01*
X162060000Y-104378333D01*
X162107619Y-104330714D01*
X162202857Y-104283095D01*
X162393333Y-104235476D01*
X162631429Y-104235476D01*
X162821905Y-104283095D01*
X162917143Y-104330714D01*
X162964762Y-104378333D01*
X163012381Y-104473571D01*
X163012381Y-104568810D01*
X162964762Y-104664048D01*
X162917143Y-104711667D01*
X162821905Y-104759286D01*
X162631429Y-104806905D01*
X162393333Y-104806905D01*
X162202857Y-104759286D01*
X162107619Y-104711667D01*
X162060000Y-104664048D01*
X162012381Y-104568810D01*
X151534762Y-107378333D02*
X151582381Y-107235476D01*
X151582381Y-106997380D01*
X151534762Y-106902142D01*
X151487143Y-106854523D01*
X151391905Y-106806904D01*
X151296667Y-106806904D01*
X151201429Y-106854523D01*
X151153810Y-106902142D01*
X151106190Y-106997380D01*
X151058571Y-107187857D01*
X151010952Y-107283095D01*
X150963333Y-107330714D01*
X150868095Y-107378333D01*
X150772857Y-107378333D01*
X150677619Y-107330714D01*
X150630000Y-107283095D01*
X150582381Y-107187857D01*
X150582381Y-106949761D01*
X150630000Y-106806904D01*
X150582381Y-106473571D02*
X151582381Y-106235476D01*
X150868095Y-106044999D01*
X151582381Y-105854523D01*
X150582381Y-105616428D01*
X151582381Y-105187857D02*
X151582381Y-104997381D01*
X151534762Y-104902142D01*
X151487143Y-104854523D01*
X151344286Y-104759285D01*
X151153810Y-104711666D01*
X150772857Y-104711666D01*
X150677619Y-104759285D01*
X150630000Y-104806904D01*
X150582381Y-104902142D01*
X150582381Y-105092619D01*
X150630000Y-105187857D01*
X150677619Y-105235476D01*
X150772857Y-105283095D01*
X151010952Y-105283095D01*
X151106190Y-105235476D01*
X151153810Y-105187857D01*
X151201429Y-105092619D01*
X151201429Y-104902142D01*
X151153810Y-104806904D01*
X151106190Y-104759285D01*
X151010952Y-104711666D01*
X185824762Y-87058333D02*
X185872381Y-86915476D01*
X185872381Y-86677380D01*
X185824762Y-86582142D01*
X185777143Y-86534523D01*
X185681905Y-86486904D01*
X185586667Y-86486904D01*
X185491429Y-86534523D01*
X185443810Y-86582142D01*
X185396190Y-86677380D01*
X185348571Y-86867857D01*
X185300952Y-86963095D01*
X185253333Y-87010714D01*
X185158095Y-87058333D01*
X185062857Y-87058333D01*
X184967619Y-87010714D01*
X184920000Y-86963095D01*
X184872381Y-86867857D01*
X184872381Y-86629761D01*
X184920000Y-86486904D01*
X184872381Y-86153571D02*
X185872381Y-85915476D01*
X185158095Y-85724999D01*
X185872381Y-85534523D01*
X184872381Y-85296428D01*
X185300952Y-84772619D02*
X185253333Y-84867857D01*
X185205714Y-84915476D01*
X185110476Y-84963095D01*
X185062857Y-84963095D01*
X184967619Y-84915476D01*
X184920000Y-84867857D01*
X184872381Y-84772619D01*
X184872381Y-84582142D01*
X184920000Y-84486904D01*
X184967619Y-84439285D01*
X185062857Y-84391666D01*
X185110476Y-84391666D01*
X185205714Y-84439285D01*
X185253333Y-84486904D01*
X185300952Y-84582142D01*
X185300952Y-84772619D01*
X185348571Y-84867857D01*
X185396190Y-84915476D01*
X185491429Y-84963095D01*
X185681905Y-84963095D01*
X185777143Y-84915476D01*
X185824762Y-84867857D01*
X185872381Y-84772619D01*
X185872381Y-84582142D01*
X185824762Y-84486904D01*
X185777143Y-84439285D01*
X185681905Y-84391666D01*
X185491429Y-84391666D01*
X185396190Y-84439285D01*
X185348571Y-84486904D01*
X185300952Y-84582142D01*
X174394762Y-87058333D02*
X174442381Y-86915476D01*
X174442381Y-86677380D01*
X174394762Y-86582142D01*
X174347143Y-86534523D01*
X174251905Y-86486904D01*
X174156667Y-86486904D01*
X174061429Y-86534523D01*
X174013810Y-86582142D01*
X173966190Y-86677380D01*
X173918571Y-86867857D01*
X173870952Y-86963095D01*
X173823333Y-87010714D01*
X173728095Y-87058333D01*
X173632857Y-87058333D01*
X173537619Y-87010714D01*
X173490000Y-86963095D01*
X173442381Y-86867857D01*
X173442381Y-86629761D01*
X173490000Y-86486904D01*
X173442381Y-86153571D02*
X174442381Y-85915476D01*
X173728095Y-85724999D01*
X174442381Y-85534523D01*
X173442381Y-85296428D01*
X173442381Y-85010714D02*
X173442381Y-84344047D01*
X174442381Y-84772619D01*
X162964762Y-87058333D02*
X163012381Y-86915476D01*
X163012381Y-86677380D01*
X162964762Y-86582142D01*
X162917143Y-86534523D01*
X162821905Y-86486904D01*
X162726667Y-86486904D01*
X162631429Y-86534523D01*
X162583810Y-86582142D01*
X162536190Y-86677380D01*
X162488571Y-86867857D01*
X162440952Y-86963095D01*
X162393333Y-87010714D01*
X162298095Y-87058333D01*
X162202857Y-87058333D01*
X162107619Y-87010714D01*
X162060000Y-86963095D01*
X162012381Y-86867857D01*
X162012381Y-86629761D01*
X162060000Y-86486904D01*
X162012381Y-86153571D02*
X163012381Y-85915476D01*
X162298095Y-85724999D01*
X163012381Y-85534523D01*
X162012381Y-85296428D01*
X162012381Y-84486904D02*
X162012381Y-84677381D01*
X162060000Y-84772619D01*
X162107619Y-84820238D01*
X162250476Y-84915476D01*
X162440952Y-84963095D01*
X162821905Y-84963095D01*
X162917143Y-84915476D01*
X162964762Y-84867857D01*
X163012381Y-84772619D01*
X163012381Y-84582142D01*
X162964762Y-84486904D01*
X162917143Y-84439285D01*
X162821905Y-84391666D01*
X162583810Y-84391666D01*
X162488571Y-84439285D01*
X162440952Y-84486904D01*
X162393333Y-84582142D01*
X162393333Y-84772619D01*
X162440952Y-84867857D01*
X162488571Y-84915476D01*
X162583810Y-84963095D01*
X151534762Y-87058333D02*
X151582381Y-86915476D01*
X151582381Y-86677380D01*
X151534762Y-86582142D01*
X151487143Y-86534523D01*
X151391905Y-86486904D01*
X151296667Y-86486904D01*
X151201429Y-86534523D01*
X151153810Y-86582142D01*
X151106190Y-86677380D01*
X151058571Y-86867857D01*
X151010952Y-86963095D01*
X150963333Y-87010714D01*
X150868095Y-87058333D01*
X150772857Y-87058333D01*
X150677619Y-87010714D01*
X150630000Y-86963095D01*
X150582381Y-86867857D01*
X150582381Y-86629761D01*
X150630000Y-86486904D01*
X150582381Y-86153571D02*
X151582381Y-85915476D01*
X150868095Y-85724999D01*
X151582381Y-85534523D01*
X150582381Y-85296428D01*
X150582381Y-84439285D02*
X150582381Y-84915476D01*
X151058571Y-84963095D01*
X151010952Y-84915476D01*
X150963333Y-84820238D01*
X150963333Y-84582142D01*
X151010952Y-84486904D01*
X151058571Y-84439285D01*
X151153810Y-84391666D01*
X151391905Y-84391666D01*
X151487143Y-84439285D01*
X151534762Y-84486904D01*
X151582381Y-84582142D01*
X151582381Y-84820238D01*
X151534762Y-84915476D01*
X151487143Y-84963095D01*
X185824762Y-66738333D02*
X185872381Y-66595476D01*
X185872381Y-66357380D01*
X185824762Y-66262142D01*
X185777143Y-66214523D01*
X185681905Y-66166904D01*
X185586667Y-66166904D01*
X185491429Y-66214523D01*
X185443810Y-66262142D01*
X185396190Y-66357380D01*
X185348571Y-66547857D01*
X185300952Y-66643095D01*
X185253333Y-66690714D01*
X185158095Y-66738333D01*
X185062857Y-66738333D01*
X184967619Y-66690714D01*
X184920000Y-66643095D01*
X184872381Y-66547857D01*
X184872381Y-66309761D01*
X184920000Y-66166904D01*
X184872381Y-65833571D02*
X185872381Y-65595476D01*
X185158095Y-65404999D01*
X185872381Y-65214523D01*
X184872381Y-64976428D01*
X185205714Y-64166904D02*
X185872381Y-64166904D01*
X184824762Y-64405000D02*
X185539048Y-64643095D01*
X185539048Y-64024047D01*
X174394762Y-66738333D02*
X174442381Y-66595476D01*
X174442381Y-66357380D01*
X174394762Y-66262142D01*
X174347143Y-66214523D01*
X174251905Y-66166904D01*
X174156667Y-66166904D01*
X174061429Y-66214523D01*
X174013810Y-66262142D01*
X173966190Y-66357380D01*
X173918571Y-66547857D01*
X173870952Y-66643095D01*
X173823333Y-66690714D01*
X173728095Y-66738333D01*
X173632857Y-66738333D01*
X173537619Y-66690714D01*
X173490000Y-66643095D01*
X173442381Y-66547857D01*
X173442381Y-66309761D01*
X173490000Y-66166904D01*
X173442381Y-65833571D02*
X174442381Y-65595476D01*
X173728095Y-65404999D01*
X174442381Y-65214523D01*
X173442381Y-64976428D01*
X173442381Y-64690714D02*
X173442381Y-64071666D01*
X173823333Y-64405000D01*
X173823333Y-64262142D01*
X173870952Y-64166904D01*
X173918571Y-64119285D01*
X174013810Y-64071666D01*
X174251905Y-64071666D01*
X174347143Y-64119285D01*
X174394762Y-64166904D01*
X174442381Y-64262142D01*
X174442381Y-64547857D01*
X174394762Y-64643095D01*
X174347143Y-64690714D01*
X162964762Y-66738333D02*
X163012381Y-66595476D01*
X163012381Y-66357380D01*
X162964762Y-66262142D01*
X162917143Y-66214523D01*
X162821905Y-66166904D01*
X162726667Y-66166904D01*
X162631429Y-66214523D01*
X162583810Y-66262142D01*
X162536190Y-66357380D01*
X162488571Y-66547857D01*
X162440952Y-66643095D01*
X162393333Y-66690714D01*
X162298095Y-66738333D01*
X162202857Y-66738333D01*
X162107619Y-66690714D01*
X162060000Y-66643095D01*
X162012381Y-66547857D01*
X162012381Y-66309761D01*
X162060000Y-66166904D01*
X162012381Y-65833571D02*
X163012381Y-65595476D01*
X162298095Y-65404999D01*
X163012381Y-65214523D01*
X162012381Y-64976428D01*
X162107619Y-64643095D02*
X162060000Y-64595476D01*
X162012381Y-64500238D01*
X162012381Y-64262142D01*
X162060000Y-64166904D01*
X162107619Y-64119285D01*
X162202857Y-64071666D01*
X162298095Y-64071666D01*
X162440952Y-64119285D01*
X163012381Y-64690714D01*
X163012381Y-64071666D01*
X151534762Y-66738333D02*
X151582381Y-66595476D01*
X151582381Y-66357380D01*
X151534762Y-66262142D01*
X151487143Y-66214523D01*
X151391905Y-66166904D01*
X151296667Y-66166904D01*
X151201429Y-66214523D01*
X151153810Y-66262142D01*
X151106190Y-66357380D01*
X151058571Y-66547857D01*
X151010952Y-66643095D01*
X150963333Y-66690714D01*
X150868095Y-66738333D01*
X150772857Y-66738333D01*
X150677619Y-66690714D01*
X150630000Y-66643095D01*
X150582381Y-66547857D01*
X150582381Y-66309761D01*
X150630000Y-66166904D01*
X150582381Y-65833571D02*
X151582381Y-65595476D01*
X150868095Y-65404999D01*
X151582381Y-65214523D01*
X150582381Y-64976428D01*
X151582381Y-64071666D02*
X151582381Y-64643095D01*
X151582381Y-64357381D02*
X150582381Y-64357381D01*
X150725238Y-64452619D01*
X150820476Y-64547857D01*
X150868095Y-64643095D01*
M02*
